<?xml version="1.0" encoding="utf-8"?>
<!-- Generator: Adobe Illustrator 19.1.1, SVG Export Plug-In . SVG Version: 6.00 Build 0)  -->
<svg version="1.1" id="Layer_1" xmlns="http://www.w3.org/2000/svg" xmlns:xlink="http://www.w3.org/1999/xlink" x="0px" y="0px"
	 viewBox="0 0 295 304" style="enable-background:new 0 0 295 304;" xml:space="preserve">
<style type="text/css">
	.st0{fill:#3A4351;}
	.st1{fill:#CFDAF8;}
	.st2{fill:#FCFDFD;}
	.st3{fill:#F6F7FB;}
	.st4{fill:#1E51F4;}
</style>
<path class="st0" d="M131.8,97.3c0.5-0.1,0.9-0.3,1.4-0.4c6.8-1.8,10.5-6,11.5-13.2c1.7-12.8,7.8-23,19-30.1c3.7-2.3,6.7-5.6,10-8.4
	c2.7-2.2,4.2-2,6,1c4.2,7.1,8.4,14.1,12.5,21.3c1.1,1.9,1.8,2.1,3.5,0.6c5.2-4.4,10.6-8.8,16-13c2.3-1.8,2.8-3.4,1.9-6.4
	c-2.1-6.7-3.6-13.7-5.4-20.5c-0.5-3.4-1.1-6.9-1.6-10.3c-0.1-1-1-2.4,0.3-3.1c1.5-0.8,2.1,0.9,2.9,1.8c7,7.2,12.4,15.6,17.2,24.4
	c3.9,9,7.3,18.2,8.3,28.1c1.9,18.3-0.6,35.8-9.7,52.1c-5.5,9.8-10.9,19.6-16.3,29.4c-0.6,1-1,2.4-2.6,2.3c-1.4-1.8,0.2-3.1,0.9-4.4
	c4.8-8.6,9.6-17.2,14.4-25.8c13-23.1,15.1-47.2,6.1-72.1c-4-11.1-10.2-20.9-18.3-29.6c1,7,2,14,4.3,20.7c1.5,6.3,3.7,12.4,2.9,19
	c-0.8,6.8-1,13.7-4.2,19.9c-1.4,0.9-2.8,2.4-4.6,2.3c-5.1-0.4-8.3,2.7-11.5,5.7c-3.8,2.6-6.4,6.2-8.8,9.9c-3,4.6-5.9,9.2-8.7,13.8
	c-1.4,2.4-3.4,3.5-6.1,3.7c-6.1,0.5-12.1,1-18.2,1.5c-5.2-0.9-7.6,2.2-9,6.6c-2.2,2.7-3.7,5.9-5.3,9c-0.5,0-0.8,0.2-0.8,0.7
	c-1,1.8-2.2,3.6-3,5.5c-1.3,3.4-5,5.1-5.7,8.7c-0.3,0.8-0.5,1.6-0.8,2.4c0,0.1-0.1,0.2-0.1,0.3c-0.6,1.1-1.1,2.3-1.7,3.4
	c-0.7-1.2-0.3-2.4,0-3.7c0.5-2.4,2.5-4.9-0.1-7.2c-5.7-5-7.7-11.5-8.2-18.8c-0.5-7.1-1.7-8.1-8.6-9.9c-1.5-0.4-3.2-0.5-4.7-0.8
	c-3.9-0.8-7.5,0.7-11.3,1.5c-7.7,1-7.7,1-7.7,10.9c-2-0.3-3.2-0.6-1.8-3.3c1-1.9,1.3-4.7,0.2-6.9c-3.8-8.1-7.8-16.1-11.5-24.3
	c-0.9-1.8-2-3-3.9-3.7c-3.8-1.4-7.5-3-11.3-4.6c-2.7-2-3.3-0.7-2.9,1.9c0.6,3.8,1,7.7,1.8,11.4c3.5,16.2,11,30.6,20,44.3
	c12.4,18.9,20.3,39.4,20.8,62.3c0.1,5.9,2.7,10.8,6.8,14.9c0.9,0.9,2.3,1.7,2.2,3.3c-1.5,1.1-2.2-0.2-3.1-1
	c-6.1-5.4-8.5-12.5-8.7-20.4c-0.4-20.8-8.1-39.1-19.1-56.3c-9.3-14.6-17.6-29.5-21.3-46.6c-1-4.8-1.8-9.5-1.9-14.4
	c0-3.1,1.5-3.8,4-2.8c5.1,2.1,10.1,4.3,15.1,6.4c2,0.8,2.7,2.5,3.5,4.2c3.2,6.9,6.5,13.7,9.6,20.7c0.9,2,1.8,2.9,4.2,2.2
	c3.6-1,7.3-1.5,11-2.3c1-0.2,2-0.4,3-0.5c2.2-0.1,6.5-2.5,7.8-4.3c1-1.4,2.7-1.7,4.1-2.5c1.4,1.5,0.6,2.1-0.8,3
	c-3.2,2.2-2.8,5.7,1,6.7c3.7,1,4.9,3.4,5.3,6.7c0.5,3.4,1.1,6.9,1.5,10.3c0.4,4.9,4.3,7.6,6.9,11.1c0.2,0.3,0.9,0.3,1.3-0.2
	c1.4-0.3,1.7-1.5,2.1-2.7c0.1-0.2,0.2-0.4,0.4-0.6c0.4-0.8,0.9-1.5,1.3-2.3c1.2-1,1.9-2.3,2.2-3.8c0.6-0.3,0.7-0.9,0.7-1.4
	c2.4-2.8,4.1-6.1,5.7-9.5l0,0c1.3-1.3,2.2-2.9,2.7-4.7c0,0,0,0,0,0c1-0.5,1.9-1,2.9-1.5c1.7-0.1,3.4-0.3,5.1-0.4
	c5.3,0.1,10.6-0.2,15.9-1.4c4.7,0.9,6.7-2.3,8.7-5.6c5.2-9,10.4-17.9,19.1-24.2c2.5-1.8,4.8-3.4,8.1-3.2c2.9,0.2,5-1.6,5.5-4.1
	c1.2-5.6,2.7-11.2,2.4-17c0-0.8,0.3-1.9-0.8-2.3c-1-0.3-1.5,0.6-2.2,1.1c-5.1,4.1-10.1,8.1-15.1,12.3c-2.5,2.1-4.3,1.8-5.9-1.1
	c-4-7-8.3-13.9-12.3-21c-1.1-1.9-1.7-2.6-3.8-0.9c-6.8,6-13.8,11.9-20.8,17.7c-1.3,1.1-2,2.4-2.4,4.1c-2.6,8.4-4.4,17.1-7.6,25.3
	c-7.6,3.4-15.2,6.7-22.8,10.1c-2.2,1-3.1,0.8-2.7-1.8c4.1-1,7.7-3.2,11.5-4.9C130.4,98,131.1,97.6,131.8,97.3z"/>
<path class="st1" d="M214.2,41.7C212,35,211,28,209.9,21c8.2,8.6,14.3,18.5,18.3,29.6c9,24.9,6.9,49-6.1,72.1
	c-4.8,8.6-9.7,17.2-14.4,25.8c-0.7,1.3-2.3,2.6-0.9,4.4c-2,4.2-3.9,8.5-5.9,12.7c-6.4,13.1-8,27.2-8.5,41.5
	c-1.6-0.1-1.9,0.9-2.2,2.3c-1.8,8.1-4.9,11.1-13,12.5c-1.3,0.2-2.5,0.4-2.4,2.1c-3.1,0.2-6,1.2-9.1,0.8c-1.3-2.2-2.6-2.4-3.9,0
	l-0.2,0c0,0-0.2,0-0.2,0c-0.4-2-2-1.5-3.2-1.5c-8.6,0-17.1,0-25.7,0c-1.2,0-2.5-0.4-3.5,0.8c-5.7,0.2-11.3-0.3-16.9-0.7
	c-1.4-0.1-2.2-1-3.3-1.5c0.1-1.6-1.3-2.4-2.2-3.3c-4.1-4.1-6.7-9.1-6.8-14.9c-0.5-22.9-8.4-43.3-20.8-62.3
	c-9-13.7-16.5-28.1-20-44.3c-0.8-3.8-1.3-7.6-1.8-11.4c-0.4-2.6,0.2-3.9,2.9-1.9c-0.1,0.5-0.4,1-0.4,1.4c0.7,11.5,4.1,22.3,9.4,32.4
	c7.1,13.8,14.9,27.4,21.5,41.5c5.9,12.6,9.8,25.7,10.6,39.6c0.4,6.8,3.4,12.1,8.1,16.4c1.7,1.5,3.2,3.8,6.2,3.8
	c7,0,13.9,0.2,20.9,0.6c11.2,0.7,22.4-0.4,33.6-0.7c7.7-0.2,15-5.7,16.5-12.4c0.7-3.3,1-6.7,1-10c0.1-7.4,0.8-14.7,1.8-21.9
	c1.6-11.3,7.2-21.1,12.4-31c2.9-5.5,6.8-10.4,9.1-16.2c1-1.5,2.2-3,3-4.6c3.2-6.4,7.6-12.5,7.5-20.1c2.7-3.3,3.2-7.5,3.5-11.4
	c1.5-15.7-0.8-31-7.3-45.5C216.6,44.1,216.4,42.1,214.2,41.7z"/>
<path class="st0" d="M148.2,229.1c9.1,0,18.2,0,27.3,0c3.5,0,6.6,0.7,8.1,4.1c1.5,3.4,1,6.7-2,9.2c-1.7,1.4-0.3,2.3,0.4,3.1
	c3,3.4,3.1,6.7-0.1,10.1c-1,1-1.6,1.4-0.2,2.7c2.5,2.4,3.5,5.7,1.8,8.9c-1.8,3.4-4.6,5.6-8.8,5.6c-14.4-0.1-28.7,0-43.1,0
	c-3.5,0-7,0-10.5,0c-3.8,0-6.9-1.4-8.4-5.1c-1.4-3.4-0.8-6.7,1.9-9.2c1.1-1,1.1-1.4,0.1-2.6c-3.9-4.6-3.9-7.3,0-11.7
	c1.1-1.2,0.4-1.5-0.3-2.1c-2.8-2.6-3.2-5.8-1.7-9.2c1.4-3.3,4.4-3.6,7.5-3.6C129.7,229.1,139,229.1,148.2,229.1
	C148.2,229.1,148.2,229.1,148.2,229.1z M174.5,232.3l0.1,0c-0.8-0.3-1.7-0.8-2.4-0.7c-9.1,1.1-18.2,0.2-27.3,0.5
	c-8.6,0.3-17.3-0.9-25.9,0.1c-1.5,0.2-3.5-0.4-3.7,2.1c-0.1,2.4-0.7,5.4,2.1,6.6c4,1.7,2.6,3.1,0.2,4.8c-3.8,2.9-3.2,5.8,0.6,8.9
	c1.8,1.5,1.7,2.4,0.5,3.9c-0.5,0.7-1.3,1.2-1.9,1.7c-2.1,1.7-2.5,3.8-1.5,6.3c0.9,2.3,2.5,3.3,5.2,3.3c14.5-0.1,29-0.1,43.5,0
	c3.7,0,7.6-0.9,11.1,0.4c2.1,0.8,3.1,0.1,4.1-1c2.3-2.8,3.2-5.7,0.7-9.1c-1.7-2.2-2.3-4.4,0.4-6.7c2-1.7,1.3-4.2,0.3-6.5
	c-1-2.4-3.6-2.4-5.2-3.8c0.2-0.3,0.5-0.6,0.7-0.9c1-0.4,2-0.8,3-1.3c3.1-1.4,2.4-4.2,2.2-6.7c-0.2-2.9-2.6-1.5-3.9-2
	c0-0.2-0.2-0.4-0.4-0.4C176.1,231.8,175.2,231.4,174.5,232.3z"/>
<path class="st1" d="M144.2,121.6c-1.5,3.4-3.2,6.7-5.7,9.5c0-1,0-2.1-0.1-3.1c0.1-0.1,0.1-0.2,0.2-0.3c-0.1,0.1-0.1,0.2-0.2,0.3
	c-4.9-0.3-5.3-0.9-2.9-5c0.3-0.6,0.6-1.1,0.3-1.7c-2.4-5.5-3.7-11.3-4.8-17.1c-0.3-1.3-0.7-1.7-2-1.1c-2.2,1.1-4.5,2-6.8,3
	c-1.9,0.8-2.6,2-1.8,4.1c1.1,2.9,2,5.9,3,8.8c2.6,7.7,3.8,15.9,8.4,22.9c-0.4,0.4-1.1,0.5-1.3,0.2c-2.6-3.5-6.5-6.2-6.9-11.1
	c-0.3-3.5-0.9-6.9-1.5-10.3c-0.5-3.3-1.7-5.7-5.3-6.7c-3.8-1-4.2-4.5-1-6.7c1.4-1,2.2-1.6,0.8-3c-1.5-3.3-4.2-6.2-4.4-10
	c-0.1-1.1-0.8-2.9,0.7-3.3c1.7-0.4,1.2,1.7,1.8,2.6c1.9,3,2.3,6.5,3.4,9.7c-0.3,2.5,0.6,2.8,2.7,1.8c7.6-3.5,15.2-6.8,22.8-10.1
	c0.1,1.7-1.3,1.9-2.4,2.5c-2.4,1.3-5,2.1-7.4,3.5c-1.2,0.7-1.7,1.5-1.4,2.6c1.4,6.5,2.6,13.1,6,19c0.8,1.4,1.8,1.3,3.1,0.9
	C142.7,123,142.8,121.3,144.2,121.6z"/>
<path class="st0" d="M148.6,274.2c6.1,0,12.2,0,18.3,0c1.2,0,2.6-0.4,3.3,1.1c0.7,1.4-0.3,2.4-1.2,3.2
	c-12.3,11.5-28.9,13.3-41.1-0.2c-0.7-0.8-1.7-1.6-1.2-2.9c0.6-1.5,2-1.3,3.2-1.3C136.2,274.1,142.4,274.1,148.6,274.2
	C148.6,274.1,148.6,274.1,148.6,274.2z M156.6,282.8c0.9,0.2,1.9,0.7,2.2-0.7c1.7-1.1,3.8-1.8,5.1-4c-1.1,0.2-1.6-1.1-2.8-0.6
	c-1.8-0.1-3.7-0.3-5.5-0.4c-7.1-0.5-14.3,1.1-21.4-0.9c-0.8-0.2-1.5,0.2-2,0.8c-0.8,0.9-0.1,1.6,0.6,2.2c3.3,2.7,6.6,5.4,11.2,5.5
	c3.2,0.1,6.5,0,9.7-0.1c0.9,0,2.5,0.6,2.4-1.4C156.2,283,156.4,282.9,156.6,282.8z"/>
<path class="st0" d="M174.7,223.9c-0.1-1.7,1.1-1.9,2.4-2.1c8.1-1.4,11.3-4.3,13-12.5c0.3-1.4,0.6-2.4,2.2-2.3
	C193.9,216.7,183.8,226.3,174.7,223.9z"/>
<path class="st0" d="M128.7,224c1-1.1,2.3-0.8,3.5-0.8c8.6,0,17.1,0,25.7,0c1.3,0,2.9-0.5,3.2,1.5c-0.8,1.2-2,0.8-3.1,0.8
	c-8.7,0-17.4,0-26.2,0C130.6,225.6,129,226.1,128.7,224z"/>
<path class="st1" d="M131.8,97.3c-0.7,0.3-1.4,0.7-2.1,1c-0.5-4.7-3.3-9.1-1.8-14.4c0.6,2.9,1.8,5.2,5.1,6.2
	c-2.2-0.4-3.3-0.1-2.8,2.3C130.6,94.2,130.6,95.9,131.8,97.3z"/>
<path class="st0" d="M161.6,224.8c1.3-2.4,2.6-2.2,3.9,0C164.2,226.1,162.9,226.2,161.6,224.8z"/>
<path class="st2" d="M210.5,127.3c-2.3,5.8-6.2,10.7-9.1,16.2c-5.2,9.9-10.9,19.7-12.4,31c-1,7.2-1.8,14.6-1.8,21.9
	c0,3.3-0.3,6.7-1,10c-1.4,6.7-8.8,12.2-16.5,12.4c-11.2,0.3-22.4,1.4-33.6,0.7c-7-0.5-13.9-0.7-20.9-0.6c-2.9,0-4.5-2.3-6.2-3.8
	c-4.8-4.3-7.7-9.6-8.1-16.4c-0.8-13.9-4.7-27-10.6-39.6c-6.6-14.2-14.3-27.7-21.5-41.5c-5.2-10.1-8.7-20.9-9.4-32.4
	c0-0.5,0.2-1,0.4-1.4c3.7,1.5,7.5,3.2,11.3,4.6c1.9,0.7,3,1.8,3.9,3.7c3.8,8.1,7.8,16.1,11.5,24.3c1,2.2,0.8,5-0.2,6.9
	c-1.4,2.7-0.2,3,1.8,3.3c0.1-9.9,0.1-9.9,7.7-10.9c-0.1,7.3,1.8,14,4.3,20.8c2,5.6,5.2,10.4,8,15.4c0.8,1.4,1.8,3.7,3.7,3
	c1.6-0.6,2.8-2.5,2.7-4.5c0-1.1-0.3-2.2-0.6-3.3c-1.5-5.6-3.5-11.1-4.4-16.7c-0.9-5.4-1-10.8-2.4-16.1c1.6,0.2,3.2,0.4,4.7,0.8
	c6.9,1.8,8,2.8,8.6,9.9c0.5,7.4,2.5,13.8,8.2,18.8c2.6,2.3,0.5,4.8,0.1,7.2c-0.3,1.3-0.6,2.5,0,3.7c0.6-1.1,1.1-2.3,1.7-3.4
	c0.1-0.1,0.1-0.2,0.1-0.3c0.9,0.2,1.3,0.7,1.3,1.5c0,4.6,0.4,9.3-0.1,13.8c-1.2,9.6-1.6,19.2-2.1,28.8c0.1,3.6-0.4,7.2,0.2,10.8
	c0.4,0,0.8,0,1.2,0c0-3.6,0-7.2,0-10.8c-0.1-6.4,0.5-12.8,1.3-19.2c1-7.5,2.1-15.2,0.9-22.8c-0.2-1.7-0.2-3.5-1.9-4.5
	c0.8-3.7,4.5-5.3,5.7-8.7c0.7-1.9,2-3.7,3-5.5c0.2,0,0.4,0.1,0.7,0.1c0,5.9,0,11.9,0,17.8c0.3,0,0.6,0,1,0c-0.5-6,0.8-12-0.7-18
	c0-0.2,0-0.4-0.1-0.6c1.5-3.1,3.1-6.3,5.3-9c1.3,0.3,3.2-0.9,3.7,1.4c-0.5,1.5,1,1.1,1.5,1.6c1.3-0.1,3.3,0.3,2.9-1.7
	c-0.5-2.8,1-5.2,0.9-7.9c6.1-0.5,12.1-1,18.2-1.5c2.7-0.2,4.7-1.3,6.1-3.7c2.8-4.7,5.8-9.3,8.7-13.8c2.4-3.8,5.1-7.4,8.8-9.9
	c4.5,3.1,4.2,8.5,5.1,12.9c1.1,4.9,2.1,10.2,0.4,15.4c-0.2,0.6-0.1,1.3,0.5,1.7c0.7,0.5,1.5,0.1,2-0.4c0.7-0.7,1.5-1.4,1.9-2.3
	c3.4-6.7,6.8-13.4,8.4-21c0.9-4.7-1.6-8.9-0.4-13.4c0.2-0.8-1-0.9-1.7-1c3.3-6.2,3.4-13.1,4.2-19.9c0.8-6.6-1.4-12.8-2.9-19
	c2.2,0.4,2.4,2.4,3,3.9c6.5,14.5,8.9,29.7,7.3,45.5c-0.4,3.9-0.8,8.1-3.5,11.4c-1.1,0-1.8,0.5-2.2,1.6c-3,7.2-5.4,14.7-9.8,21.2
	C207.6,127.4,209.3,127.1,210.5,127.3z M141.5,179.8c0,1.1,0,2.2,1.5,2.3c0.5,0.2,1.1,0.6,1.6,0.7c5.8,0.6,5.8,0.6,4.4,6.1
	c0,5.7,0,11.3,0,17c0.2,0,0.5,0,0.7,0c0-5.7,0-11.4,0-17c1-3.6,2.2-7,2-11c-0.1-2.6-0.7-4.4-2.7-5.5c-2.3-1.2-5-1.7-7,0.1
	c-2,1.7-2.9,4.1-1.2,6.6C141,179.3,141.2,179.5,141.5,179.8z M148.9,153.6c0.2,0.3,0,1.1,0.6,0.8c0.5-0.2,0-0.7-0.4-1
	c-0.8-8.5-1.3-17.1-0.8-25.7c-0.7,8.1-0.8,16.1-0.7,24.1C147.7,152.4,148.4,153,148.9,153.6z M158.8,194.7c0.2,0.9-0.5,2,1,2.8
	c3.5-6.9,1.1-13.9,0.5-20.8c0-1,0-2,0-3c-0.1-1,0.4-2.2-0.7-3c0-1,0-2,0-3c0.3-7.7-1.3-15.6,1.7-22.9c3.1-7.8,5.1-16,7.3-24.1
	c0.2-0.7,2.4-1.6,0.2-2.6c-2-0.8-2.4,0.6-2.9,1.9c-2.4,7-4.2,14.2-6.7,21.3c-1.1,3-2.4,6.3-1.8,9.8c-2.8,4.1-1.5,8.7-1.2,13
	C156.9,174.3,158.8,184.4,158.8,194.7z M186.1,154.7c-4.9,6.3-6.2,13.1-3.6,18.6C182.1,166.8,185.1,160.9,186.1,154.7z M140.1,203.6
	c0.1,0,0.3,0,0.4,0.1c0-5.7,0-11.3,0-17c-0.1,0-0.3,0-0.4,0C140.1,192.3,140.1,197.9,140.1,203.6z M138.8,183.7
	c0.2,0.1,0.5,0.3,0.6,0.2c0.2-0.1,0.3-0.4,0.3-0.6c-0.1-0.1-0.4-0.3-0.6-0.3C138.9,183.2,138.9,183.5,138.8,183.7z"/>
<path class="st3" d="M144.2,121.6c-1.4-0.2-1.5,1.4-2.6,1.8c-1.3,0.4-2.3,0.5-3.1-0.9c-3.4-5.9-4.6-12.5-6-19
	c-0.2-1.1,0.2-1.9,1.4-2.6c2.4-1.4,5-2.2,7.4-3.5c1-0.6,2.5-0.8,2.4-2.5c3.2-8.2,5-16.9,7.6-25.3c0.5-1.6,1.1-2.9,2.4-4.1
	c7-5.9,13.9-11.7,20.8-17.7c2-1.8,2.7-1,3.8,0.9c4,7,8.3,13.9,12.3,21c1.7,2.9,3.4,3.2,5.9,1.1c5-4.1,10-8.2,15.1-12.3
	c0.6-0.5,1.2-1.5,2.2-1.1c1.1,0.4,0.7,1.5,0.8,2.3c0.3,5.8-1.2,11.4-2.4,17c-0.5,2.5-2.7,4.3-5.5,4.1c-3.3-0.2-5.6,1.4-8.1,3.2
	c-8.7,6.3-13.9,15.2-19.1,24.2c-1.9,3.3-4,6.5-8.7,5.6c0.3-4.2,1.6-8.3,3.7-11.6c1.8-2.8,2.6-5.8,3.6-8.8c0.6-1.7-0.1-3-2.3-2.7
	c-2.2,0.3-4.4,0.7-6.6,1c0.6,0.5,1.2,0.6,1.8,0.5c3.4-0.5,4,0.9,2.9,3.9c-1.5,4.1-2.9,8.2-4.3,12.3c-1.8,5.2-2.2,5.5-7.8,5.5
	c-4,0-4.4-0.4-3.6-4.2c1.5-7.1,3.2-14.3,4.6-21.4c0.5-2.3,0.9-4.7-0.3-7c-3.1,1.9,0.1,5.9-3.1,7.5c2.3,3.1,0.1,6.1-0.5,9.1
	c-1.2,5.8-2.7,11.6-4,17.4c-1.7,0.1-3.4,0.3-5.1,0.4c-1.8-1.1-2.7-0.5-2.9,1.5c0,0,0,0,0,0C144.5,117.6,143.8,119.2,144.2,121.6
	L144.2,121.6z"/>
<path class="st3" d="M107,113.9c1.4,5.3,1.5,10.8,2.4,16.1c0.9,5.7,2.9,11.2,4.4,16.7c0.3,1.1,0.6,2.2,0.6,3.3c0.1,2-1.1,4-2.7,4.5
	c-2,0.7-2.9-1.5-3.7-3c-2.9-5-6.1-9.8-8-15.4c-2.4-6.8-4.4-13.6-4.3-20.8C99.5,114.6,103.1,113.1,107,113.9z"/>
<path class="st3" d="M213,80.6c0.7,0.2,1.9,0.2,1.7,1c-1.2,4.5,1.3,8.7,0.4,13.4c-1.5,7.6-4.9,14.2-8.4,21c-0.4,0.9-1.2,1.6-1.9,2.3
	c-0.5,0.6-1.3,0.9-2,0.4c-0.6-0.4-0.7-1.1-0.5-1.7c1.8-5.2,0.7-10.5-0.4-15.4c-1-4.4-0.6-9.7-5.1-12.9c3.3-3.1,6.5-6.1,11.5-5.7
	C210.2,83.1,211.5,81.6,213,80.6z"/>
<path class="st3" d="M138.5,128c0,1,0,2.1,0.1,3.1c-0.1,0.6-0.1,1.1-0.7,1.4c-1.6,0.7-3.5,1.4-2.2,3.8c-0.4,0.8-0.9,1.5-1.3,2.3
	c-0.5,0-1,0-0.4,0.6c-0.4,1.1-0.7,2.3-2.1,2.7c-4.6-7-5.8-15.2-8.4-22.9c-1-2.9-1.9-5.9-3-8.8c-0.8-2.1-0.1-3.3,1.8-4.1
	c2.3-1,4.6-2,6.8-3c1.3-0.6,1.7-0.2,2,1.1c1.1,5.8,2.5,11.6,4.8,17.1c0.3,0.7,0,1.1-0.3,1.7C133.2,127,133.6,127.6,138.5,128
	L138.5,128z"/>
<path class="st1" d="M154.9,115c1.4-5.8,2.9-11.5,4-17.4c0.6-3,2.8-5.9,0.5-9.1c3.2-1.6,0-5.6,3.1-7.5c1.3,2.3,0.8,4.7,0.3,7
	c-1.5,7.2-3.1,14.3-4.6,21.4c-0.8,3.8-0.4,4.2,3.6,4.2c5.6,0,6-0.3,7.8-5.5c1.4-4.1,2.8-8.3,4.3-12.3c1.1-3,0.6-4.4-2.9-3.9
	c-0.6,0.1-1.2,0-1.8-0.5c2.2-0.3,4.4-0.7,6.6-1c2.1-0.3,2.9,1,2.3,2.7c-1.1,3-1.8,5.9-3.6,8.8c-2.1,3.3-3.4,7.4-3.7,11.6
	C165.6,114.8,160.3,115,154.9,115z"/>
<path class="st1" d="M129.5,194.7c0.4-9.6,0.9-19.2,2.1-28.8c0.6-4.5,0.1-9.2,0.1-13.8c0-0.9-0.4-1.4-1.3-1.5
	c0.3-0.8,0.5-1.6,0.8-2.4c1.8,1,1.7,2.8,1.9,4.5c1.1,7.7,0.1,15.3-0.9,22.8c-0.9,6.4-1.5,12.8-1.3,19.2
	C130.5,194.7,130,194.7,129.5,194.7z"/>
<path class="st3" d="M155,117.7c0.1,2.7-1.4,5.1-0.9,7.9c0.4,2-1.6,1.6-2.9,1.7c0-1-0.6-1.5-1.5-1.6c-0.5-2.3-2.4-1.1-3.7-1.4
	C147.4,119.9,149.8,116.8,155,117.7z"/>
<path class="st1" d="M144.2,121.6c-0.4-2.3,0.3-4,2.7-4.7C146.4,118.7,145.5,120.2,144.2,121.6z"/>
<path class="st1" d="M135.6,136.3c-1.3-2.4,0.6-3.1,2.2-3.8C137.5,134.1,136.8,135.3,135.6,136.3z"/>
<path class="st1" d="M146.9,116.9c0.2-2,1.1-2.6,2.9-1.5C148.8,115.9,147.9,116.4,146.9,116.9z"/>
<path class="st1" d="M134,139.3c-0.6-0.6-0.1-0.6,0.4-0.6C134.2,138.9,134.1,139.1,134,139.3z"/>
<path class="st1" d="M140.6,134.1c-0.2,0-0.4-0.1-0.7-0.1c0-0.5,0.3-0.7,0.8-0.7c0.1,0.2,0.1,0.4,0.1,0.6L140.6,134.1z"/>
<path class="st3" d="M210.5,127.3c-1.2-0.1-2.9,0.2-1.5-2c4.4-6.5,6.8-14,9.8-21.2c0.4-1.1,1.1-1.6,2.2-1.6
	c0.1,7.7-4.3,13.7-7.5,20.1C212.7,124.3,211.6,125.7,210.5,127.3z"/>
<path class="st4" d="M175.3,243.2c1.7,1.4,4.2,1.4,5.2,3.8c1,2.3,1.7,4.9-0.3,6.5c-2.7,2.3-2.1,4.5-0.4,6.7c2.5,3.3,1.6,6.3-0.7,9.1
	c-1,1.2-2,1.9-4.1,1c-3.4-1.3-7.4-0.4-11.1-0.4c-14.5-0.1-29-0.1-43.5,0c-2.7,0-4.2-1-5.2-3.3c-1-2.5-0.6-4.6,1.5-6.3
	c0.7-0.5,1.4-1.1,1.9-1.7c1.2-1.4,1.3-2.3-0.5-3.9c-3.8-3.1-4.4-6.1-0.6-8.9c2.3-1.7,3.7-3.2-0.2-4.8c-2.8-1.2-2.2-4.2-2.1-6.6
	c0.1-2.5,2.2-1.9,3.7-2.1c8.6-1,17.3,0.2,25.9-0.1c9.1-0.3,18.2,0.6,27.3-0.5c0.8-0.1,1.6,0.5,2.4,0.7c-0.2,1.3,0.8,2,1.4,2.9
	c0.6,0.9,0.2,3.2,1.9,2.5c1.9-0.7,0.7-2.5,0.3-3.9c-0.2-0.6-0.6-1.1-0.8-1.6c1.4,0.6,3.8-0.8,3.9,2c0.2,2.5,0.9,5.3-2.2,6.7
	c-1,0.5-2,0.9-3,1.3c-2.4-0.6-2.5-4.1-5.7-4.1c-13.9,0.2-27.7,0.1-41.6,0.1c-2.1,0-3.6,1-3.9,3.3c-0.3,2.8,1.1,4.3,4.6,4.3
	c12.6,0,25.2,0,37.8,0C170.4,246,173.2,245.9,175.3,243.2z M144.1,261.6C144.1,261.6,144.1,261.6,144.1,261.6c5.4,0,10.7-0.1,16.1,0
	c2.6,0,4.1-1.4,4.1-3.8c0-2.5-1.6-3.8-4.2-3.8c-10.4,0-20.7,0-31.1,0c-2.4,0-4.2,0.9-4.3,3.6c0,2.8,1.5,4,4.3,4
	C134.1,261.6,139.1,261.6,144.1,261.6z M175,269.2c1.8-0.3,3.2-1.2,3.6-3.1c0.2-0.7-0.6-1.4-1-1.1c-1.4,1.2-3.7,1.4-4.3,3.4
	C173,269.2,174.2,269.2,175,269.2z"/>
<path class="st3" d="M175.3,243.2c-2.1,2.7-4.9,2.8-8,2.7c-12.6-0.1-25.2,0-37.8,0c-3.5,0-4.9-1.5-4.6-4.3c0.3-2.3,1.8-3.3,3.9-3.3
	c13.9,0,27.7,0.1,41.6-0.1c3.2,0,3.3,3.4,5.7,4.1C175.8,242.6,175.6,242.9,175.3,243.2z M127.3,243c0.1,0.6,0.4,1.1,1.3,1.1
	c0.9,0,1.4-0.3,1.5-1.2c0.1-1-0.4-1.6-1.5-1.6C127.7,241.4,127.3,241.9,127.3,243z"/>
<path class="st1" d="M177.3,232.2c0.3,0.5,0.7,1.1,0.8,1.6c0.5,1.4,1.6,3.2-0.3,3.9c-1.7,0.7-1.3-1.6-1.9-2.5
	c-0.6-0.9-1.5-1.7-1.4-2.9c0,0-0.1,0-0.1,0c0.8-0.2,1.6-0.3,2.5-0.5C177.1,231.8,177.3,232,177.3,232.2z"/>
<path class="st4" d="M177,231.8c-0.8,0.2-1.6,0.3-2.5,0.5C175.2,231.4,176.1,231.8,177,231.8z"/>
<path class="st3" d="M138.5,128c0.1-0.1,0.1-0.2,0.2-0.3C138.6,127.8,138.6,127.9,138.5,128C138.5,128,138.5,128,138.5,128z"/>
<path class="st4" d="M156.1,283.2c0.1,2-1.5,1.3-2.4,1.4c-3.2,0.1-6.5,0.1-9.7,0.1c-4.6-0.1-7.9-2.8-11.2-5.5
	c-0.7-0.6-1.4-1.2-0.6-2.2c0.5-0.6,1.2-1,2-0.8c7.1,2,14.3,0.3,21.4,0.9c1.8,0.1,3.7,0.3,5.5,0.4c-1.5,1.6-3.5,2.2-5.5,3
	c-1.5,0.6-4.4,0.2-4.1,2.2C152,284.9,154.5,282.8,156.1,283.2z"/>
<path class="st1" d="M156.1,283.2c-1.5-0.4-4.1,1.7-4.5-0.5c-0.4-2,2.6-1.6,4.1-2.2c1.9-0.8,4-1.4,5.5-3c1.1-0.4,1.7,0.8,2.8,0.6
	c-1.3,2.2-3.4,2.8-5.1,4c-0.7,0.2-1.5,0.5-2.2,0.7C156.4,282.9,156.2,283,156.1,283.2z"/>
<path class="st4" d="M156.6,282.8c0.7-0.2,1.5-0.5,2.2-0.7C158.4,283.5,157.4,283,156.6,282.8z"/>
<path class="st3" d="M157.2,151.1c-0.6-3.5,0.8-6.8,1.8-9.8c2.4-7,4.3-14.2,6.7-21.3c0.4-1.3,0.9-2.7,2.9-1.9c2.2,0.9,0,1.9-0.2,2.6
	c-2.2,8.1-4.2,16.2-7.3,24.1c-2.9,7.3-1.4,15.2-1.7,22.9c-2-0.4-1.4-2-1.5-3.3C157.7,160.1,157.5,155.6,157.2,151.1z"/>
<path class="st1" d="M157.2,151.1c0.3,4.5,0.5,8.9,0.8,13.4c0.1,1.2-0.6,2.9,1.5,3.3c0,1,0,2,0,3c-1.1,1.3-1.3,2.4,0.7,3
	c0,1,0,2,0,3c-1.4,1.3-0.6,3-0.8,4.5c-0.5,4.5,0.9,9-0.8,13.4c0-10.3-1.9-20.4-2.7-30.6C155.7,159.8,154.4,155.2,157.2,151.1z"/>
<path class="st3" d="M149,188.8c1.3-5.5,1.3-5.5-4.4-6.1c-0.6-0.1-1.1-0.5-1.6-0.7c0,0,0,0,0,0c1,0,2,0.1,3,0c2.5-0.2,3.7-1.9,4.4-4
	c0.7-2.1-0.8-3.5-2.3-4.6c-3.1-2.2-6.9,0.8-7.3,5.6l0,0c-1.6-2.6-0.8-5,1.2-6.6c2.1-1.7,4.8-1.3,7-0.1c2.1,1.1,2.6,2.9,2.7,5.5
	c0.2,3.9-1,7.4-2,11C149.5,188.8,149.3,188.8,149,188.8z"/>
<path class="st3" d="M186.1,154.7c-0.9,6.3-3.9,12.1-3.6,18.6C179.9,167.7,181.2,161,186.1,154.7z"/>
<path class="st3" d="M158.8,194.7c1.6-4.4,0.3-8.9,0.8-13.4c0.2-1.5-0.6-3.2,0.8-4.5c0.6,6.9,3,13.8-0.5,20.8
	C158.3,196.7,158.9,195.6,158.8,194.7z"/>
<path class="st1" d="M148.9,153.6c-0.4-0.6-1.2-1.2-1.2-1.8c-0.1-8-0.1-16.1,0.7-24.1c-0.5,8.6-0.1,17.2,0.8,25.7L148.9,153.6z"/>
<path class="st3" d="M129.5,194.7c0.5,0,1,0,1.4,0c0,3.6,0,7.2,0,10.8c-0.4,0-0.8,0-1.2,0C129.2,201.9,129.6,198.3,129.5,194.7z"/>
<path class="st1" d="M140.9,133.9c1.5,6,0.3,12,0.7,18c-0.3,0-0.6,0-1,0c0-5.9,0-11.9,0-17.8C140.6,134.1,140.9,133.9,140.9,133.9z"
	/>
<path class="st3" d="M140.1,203.6c0-5.6,0-11.3,0-16.9c0.1,0,0.3,0,0.4,0c0,5.7,0,11.3,0,17C140.4,203.6,140.3,203.6,140.1,203.6z"
	/>
<path class="st1" d="M149,188.8c0.2,0,0.5,0,0.7,0c0,5.7,0,11.4,0,17c-0.2,0-0.5,0-0.7,0C149,200.1,149,194.5,149,188.8z"/>
<path class="st3" d="M160.2,173.8c-2.1-0.6-1.8-1.7-0.7-3C160.6,171.6,160.2,172.7,160.2,173.8z"/>
<path class="st3" d="M143,182c-1.5-0.1-1.5-1.2-1.5-2.3l0,0C142.5,180.2,143,180.9,143,182L143,182z"/>
<path class="st1" d="M149.7,125.7c1,0.1,1.5,0.6,1.5,1.6C150.7,126.8,149.3,127.1,149.7,125.7z"/>
<path class="st3" d="M138.8,183.7c0.1-0.2,0.1-0.5,0.3-0.6c0.1-0.1,0.5,0.1,0.6,0.3c0.1,0.2-0.1,0.5-0.3,0.6
	C139.2,184,139,183.8,138.8,183.7z"/>
<path class="st1" d="M149.1,153.4c0.3,0.3,0.8,0.8,0.4,1c-0.6,0.3-0.4-0.5-0.6-0.8C148.9,153.6,149.1,153.4,149.1,153.4z"/>
<path class="st3" d="M141.5,179.8c-0.2-0.2-0.5-0.5-0.7-0.7c0,0,0,0,0,0C141,179.2,141.3,179.5,141.5,179.8L141.5,179.8z"/>
<path class="st3" d="M144.1,261.6c-5,0-10,0-15,0c-2.8,0-4.3-1.2-4.3-4c0-2.7,1.9-3.6,4.3-3.6c10.4,0,20.7,0,31.1,0
	c2.5,0,4.2,1.3,4.2,3.8c0,2.4-1.5,3.8-4.1,3.8C154.9,261.6,149.5,261.6,144.1,261.6C144.1,261.6,144.1,261.6,144.1,261.6z"/>
<path class="st1" d="M175,269.2c-0.8,0-2,0-1.7-0.9c0.6-1.9,2.9-2.2,4.3-3.4c0.3-0.3,1.1,0.4,1,1.1
	C178.2,268.1,176.8,268.9,175,269.2z"/>
<path class="st2" d="M127.3,243c0-1.1,0.4-1.6,1.3-1.7c1.1,0,1.6,0.5,1.5,1.6c-0.1,0.9-0.6,1.3-1.5,1.2
	C127.7,244.1,127.4,243.6,127.3,243z"/>
<path class="st2" d="M141.5,179.7c-0.2-0.3-0.5-0.5-0.7-0.8c0.3-4.9,4.1-7.8,7.3-5.6c1.6,1.1,3,2.5,2.3,4.6c-0.7,2.1-1.9,3.8-4.4,4
	c-1,0.1-2,0-3,0C143,180.9,142.5,180.2,141.5,179.7z"/>
</svg>
