<?xml version="1.0" encoding="utf-8"?>
<!-- Generator: Adobe Illustrator 19.1.1, SVG Export Plug-In . SVG Version: 6.00 Build 0)  -->
<svg version="1.1" id="Layer_1" xmlns="http://www.w3.org/2000/svg" xmlns:xlink="http://www.w3.org/1999/xlink" x="0px" y="0px"
	 viewBox="0 0 1275.1 1146.1" style="enable-background:new 0 0 1275.1 1146.1;" xml:space="preserve">
<style type="text/css">
	.st0{fill:#EEAB56;}
	.st1{fill:#4B5E74;}
	.st2{fill:#B9CCD4;}
	.st3{fill:#FDD699;}
	.st4{fill:#B16F26;}
	.st5{fill:#EEB602;}
	.st6{fill:#787878;}
	.st7{fill:#696969;}
	.st8{fill:#BF2634;}
	.st9{fill:#FEFEFE;}
	.st10{fill:#FCD598;}
	.st11{fill:#080705;}
	.st12{fill:#F9DBAA;}
	.st13{fill:#545454;}
</style>
<path class="st0" d="M1218.1,685.2c0.1,2,0.1,4,0.1,6c0,131.8,0,263.5,0,395.3c0,7.8,1.1,6.6-7,6.8c-3.5,0-7-0.3-10.5,0.1
	c-3.9,0.4-4.7-1.2-4.6-4.8c0.2-13-0.2-26,0.2-39c0.1-4.6-1.4-5.5-5.6-5.4c-8.8,0.3-17.7,0.1-26.5,0.1c-7.4,0-14.7,0-22.1,0
	c-168.5,0-337.1,0-505.6,0c-5.2,0-10.3,0.1-15.5,0.1c-8.3,0-16.7,0-25,0c-8.9,0-17.8,0-26.7,0c-6.4,0-12.7,0-19.1,0
	c-41.2,0-82.4,0-123.5,0c-6.6,0-13.1,0-19.7,0c-8.5,0-17.1,0-25.6,0c-8.4,0-16.9,0-25.3,0c-66.3,0-132.6,0-198.9-0.1
	c-7,0-14.1,0-21.1,0c-6.3,0-12.7,0.2-19-0.1c-3.8-0.2-5.2,0.7-5.1,4.9c0.3,13.3,0,26.7,0.2,40c0,3.1-0.6,4.5-4.1,4.3
	c-5.1-0.3-10.3-0.2-15.5,0c-2.5,0.1-3.9-0.6-3.5-3.3c0.1-0.7,0-1.3,0-2c0-132.8,0-265.5,0-398.3c0-1.5,0.1-3,0.1-4.5
	c1.7,0,3.3,0.1,5,0.1c372.9,0,745.8,0,1118.7,0C1214.8,685.2,1216.5,685.2,1218.1,685.2z"/>
<path class="st0" d="M89.3,664.3c-11.5,0-23-0.2-34.5,0.1c-4.2,0.1-5.8-0.7-5.6-5.4c0.4-12.1,0.4-24.3,0-36.5
	c-0.1-4.7,1.5-5.4,5.6-5.3c97.8,0.1,195.5,0.1,293.3,0.1c2.2,0,4.3-0.1,6.5-0.1c1.5,0,3,0.1,4.5,0.1c81.5,0,163,0,244.5,0
	c1.3,0,2.7-0.1,4-0.2c31,0,61.9,0,92.9,0c26.9,0,53.8,0.1,80.7,0.1c24.8,0,49.5-0.1,74.3-0.1c5.7,1.4,11.5,1.2,17.3,1.2
	c26.9,0,53.9-0.1,80.8-0.1c24.6,0,49.2-0.1,73.7-1c19.8,0,39.7,0.1,59.5,0.1c54.3,0,108.6,0.1,163-0.1c4.7,0,5.7,1.4,5.6,5.8
	c-0.3,12.2-0.3,24.3,0,36.5c0.1,4.1-1.3,5-5.1,4.9c-10.7-0.2-21.3-0.1-32-0.1c-2.2,0-4.3,0-6.5,0c-345.2,0-690.4,0-1035.6,0
	C147.2,664.2,118.2,664.3,89.3,664.3z"/>
<path class="st1" d="M607.6,617.1c-1.3,0.1-2.7,0.2-4,0.2c-81.5,0-163,0-244.5,0c-1.5,0-3-0.1-4.5-0.1c1.7-10.3,4.8-20.3,7.8-30.4
	c1-3.4,1.1-7.1,2.9-10.3c0.8-1.4-0.5-2.6-1.1-3.6c-13.7-23.7-27.5-47.4-41.3-71.1c-4.8-8.2-9.8-16.3-14.6-24.5
	c-0.1-0.8,0-1.7-0.3-2.4c-3.4-7.8-3.3-7.8,3.1-13.3c9.8-8.4,21.3-13.4,33.4-17.2c3.7,4.5,7.3,9.1,11.1,13.5
	c5.6,6.4,10,13.9,16.7,19.1c7.5,5.8,15.8,10.5,23.5,15.9c2.3,1.6,3.4,1.4,5-1c3.7-5.9,7.9-11.5,13.3-16
	c37.8,28.8,80.9,28.2,116.2-1.6c5,3.4,8.8,8,12.8,12.4c2.5,2.8,4.5,7.6,7.5,8.2c3.4,0.7,6.6-3.7,9.9-5.7c12.7-7.4,23.9-16.4,32-29.1
	c3.9-6.1,8.9-11.6,13.4-17.3c6.9,2.3,13.6,5.2,20,8.8c7.9,4.5,15.7,9.3,20.6,17.5c-18.7,30.7-37.5,61.5-56.3,92.1
	c-1.5,2.4-1.6,4.3-0.5,6.8C596.4,584.1,602.4,600.4,607.6,617.1z M501.2,565c0-3.2,0.1-6.3,0-9.5c0-1.3,0.8-3.2-1.8-3.2
	c-2.1,0-2,1.5-1.8,2.8c0.3,2.8-1.1,3.3-3.5,3.2c-15.3-0.9-12.4,1.8-12.7,13.8c0,0.2,0,0.3,0,0.5c0,3.7,1.8,5.6,5.5,5.6
	c3.5,0,7-0.2,10.5,0.1c3.5,0.3,4.2-1.2,4-4.3C501.1,571,501.2,568,501.2,565z M469.6,558.3c-9.7,0-10.2,0.4-10.2,8.3
	c0,11.5,0,11.6,8.9,11.6c10.9,0,11-0.1,11-9C479.2,558.3,479.2,558.3,469.6,558.3z M446.7,578.2c1.8,0,3.7,0.1,5.5,0
	c1.3-0.1,3.3,0.7,3.1-1.9c-0.1-2.4-2-1.7-3.4-1.8c-1.5-0.1-3,0-4.5,0c-8.7,0-8.5,0-8.5-8.8c0-3.3,1.3-3.9,4.1-3.7
	c3.3,0.2,6.6,0,10,0c1.3,0,2.2-0.3,2.3-1.9c0-1.7-1.1-1.8-2.3-1.8c-3.2,0-6.3,0-9.5,0c-7.5,0-8.2,0.8-8.3,8.3
	C435.3,578.2,435.3,578.2,446.7,578.2z M420.9,577.7c1.7-4.4-1.8-5-4-6.3c-5.5-3.3-5.5-3.2,0-6.4c2.2-1.3,5.7-1.9,4-6.2
	c-4,2.3-8,4.3-11.7,6.7c-2.6,1.6-2.6,3.8,0,5.5C413,573.3,417,575.4,420.9,577.7z M533.8,558.6c-1.6,5,2.6,5.2,4.9,6.9
	c1.2,0.9,3.3,1.5,3.4,2.5c0.3,1.9-2.2,2-3.4,2.9c-2.2,1.8-6.5,1.9-4.9,6.9c4.1-2.3,8.2-4.4,12-6.9c2.7-1.8,2.6-4-0.4-5.7
	C541.6,563.1,537.9,561,533.8,558.6z M505.4,569.1c0,0.8-0.2,1.7,0,2.5c0.8,2.1-2.2,6.4,1.9,6.3c3.8-0.1,1.6-4.3,1.7-6.5
	c0.3-8.7,0.1-8.7,8.9-9.3c0.2,0,0.3,0,0.5,0c1.3,0.1,2.3-0.2,2.3-1.8c0-1.6-0.8-1.9-2.2-1.9c-2.1,0.1-4.3,0-6.4,0
	c-5.3,0.1-6.6,1.4-6.6,6.8C505.3,566.5,505.4,567.8,505.4,569.1z"/>
<path class="st2" d="M626.3,1072.4c32-0.1,64-0.3,96-0.1c35.5,0.2,70.9,0.3,106.4,1.1c27.9,0.7,55.9,1.3,83.8,2
	c22.3,0.6,44.5,1.3,66.8,2c17.1,0.5,34.2,1.3,51.2,2.1c12.2,0.5,24.5,1,36.7,2c20.1,1.6,40.3,2.5,60.4,4.7
	c14.6,1.6,29.3,2.8,43.6,6.2c2.9,0.7,7.6,0.7,7.6,4.2c0.1,3.4-4.6,3.7-7.5,4.5c-11.3,3.1-23.1,4.1-34.7,5.3
	c-12.6,1.3-25.3,2.7-37.9,3.9c-5.3,0.5-10.6,0.6-15.9,1c-16,1.1-32.1,1.2-48.2,2.3c-15.7,1-31.5,1.1-47.2,2.2
	c-15.5,1-30.9,0.3-46.4,0.9c-29.8,1.3-59.5,1.4-89.3,2.3c-19.6,0.6-39.3,0.3-58.9,0.7c-85.8,2-171.6,0.9-257.3,0.6
	c-24-0.1-48,0.1-71.9-1c-15.8-0.7-31.6,0.1-47.4-1c-15-1-30,0-44.9-1c-15.5-1.1-31-0.2-46.4-0.9c-15.9-0.8-31.8-1.4-47.7-2
	c-12.4-0.5-24.8-1.1-37.2-2c-16.1-1.3-32.3-2.1-48.4-3.7c-17.1-1.6-34.2-3.3-51.1-6.2c-3.3-0.6-6.5-1.4-9.4-3
	c-1.1-0.6-2.7-0.9-2.8-2.5c0-1.9,1.6-2.4,3-2.9c6.4-2.3,13.1-3.4,19.8-4.4c19-2.8,38.1-4.2,57.2-5.9c13.2-1.2,26.5-1.4,39.7-2.2
	c23.5-1.3,47-2.4,70.6-3.3c10.1-0.4,20.2-0.5,30.4-0.6c-0.9,1.9-1.9,3.8-2.8,5.7c-2.8,5.8-1.8,12-2.2,18c-0.3,4.7,2,6.9,6.3,7.1
	c6,0.2,11.9,1.2,17.9,1.1c9.6-0.1,19.2,1.1,28.7,1.7c8.6,0.5,17.1,1.9,25.7,2.3c4.6,0.3,7-2.4,7.4-6.3c0.6-5.1,0.6-10.3-1.9-15.1
	c-0.2-5.9-0.5-11.8-0.7-17.8c16.7-0.3,33.5-0.1,50.2-0.7c24-0.9,48.1-0.3,72.2-0.3c0.4,6.3-0.1,12.5-0.7,18.7
	c-0.6,3.4-1.5,6.8-1.9,10.2c-0.9,7.5,2.4,11.2,9.8,11.1c2,0,4,0,6-0.3c13.6-2,27.3-2.8,41-4c8.1-0.7,16.2-0.3,24.3-1.7
	c3.6-0.6,5.5-2.6,5.7-5.8c0.4-6.6,0.2-13.2-2.7-19.4C629.7,1078.9,628,1075.7,626.3,1072.4z"/>
<path class="st3" d="M344.5,444.3c-12.1,3.8-23.6,8.8-33.4,17.2c-6.5,5.6-6.5,5.5-3.1,13.3c0.3,0.7,0.2,1.6,0.3,2.4
	c-6.5-8.2-11.3-17.5-16.9-26.3c-17.3-27.5-34.3-55.1-51.4-82.8c-13.1-21.3-26.1-42.7-39.3-63.9c-1.6-2.6-1-4.4,0.5-6.2
	c10.4-12.6,21-25.1,31.5-37.7c10.4-12.6,20.8-25.3,31.1-37.9c6.7-8.2,13.2-16.5,20.3-24.3c3.6-3.9,4.3-8.6,5-13.2
	c1.5-10.1,2.2-20.3,3.3-30.5c1.2-11.1,2.7-22.2,3.7-33.4c0.9-9,1.2-18.1,4.1-26.8c2.4-2.7,3.5-7.1,8.3-7.1c6.2,0,12.7,0.1,17.6,3.9
	c5.1,4,8.8,2.7,12.9-0.6c0.4-0.3,0.8-0.6,1.2-0.9c9.8-5.2,19.1-11.4,31-10.4c5.5-0.4,10.4,1.2,13,6.3c2.4,4.8,1.3,9.6-2.4,13.7
	c-0.7,0.7-1.3,1.4-0.8,2.6c0.7,1.6,2.1,1.4,3.4,1.4c5.7-0.1,11.2,0.1,16.4,2.8c2.9,1.5,5.3,3.3,6.5,6.4c-0.3,13.1-9.7,17.8-21,21.7
	c3.9,0.5,6.9,0.8,9.8,1.2c12.3,1.6,16.3,9.4,10.2,20.1c-0.7,1.3-1.6,2.6-2.4,3.8c-10.8,14.9-24.2,26.9-40,36.3
	c-6.8,4.1-13.8,7.9-20.7,11.9c-10.4,3.8-20.4,9-31.1,12.1c-2,0.6-3.1,2.4-4.3,4c-20.6,28.1-41.1,56.3-61.9,84.4
	c-1.8,2.4-1.6,3.9,0.1,6c5.3,6.8,10.5,13.7,15.7,20.6c21.8,28.7,43.7,57.4,65.3,86.2C333,428.5,339.6,435.8,344.5,444.3z"/>
<path class="st3" d="M646.4,469.1c-4.9-8.2-12.7-13-20.6-17.5c-6.3-3.6-13-6.5-20-8.8c1-1.5,1.9-3.2,3-4.6
	c32.3-42.7,64.7-85.3,97.2-127.8c2.1-2.8,1.7-4.4-0.1-6.8c-18.5-25.2-37.3-50.2-55.3-75.7c-6-8.4-12.7-14.5-22.8-16.7
	c-3.5-0.8-6.4-3.8-10.4-2.9c-0.2-2.4-2.4-2.6-4-3.3c-15-6.7-28.9-15-41.8-25.1c-10.7-8.4-20-18.1-26.5-30.1
	c-4.8-8.7-1.5-15.1,8.1-17.7c3.8-1,7.7-0.7,12.5-1.6c-3.5-1.5-6.1-2.5-8.6-3.7c-6.6-3.5-11.8-8.2-11.8-16.5
	c-0.2-5.2,3.5-7.3,7.4-8.7c6.4-2.4,13.1-3.1,20.2-3.1c-6.1-4.7-6.1-11-5.7-17.3c0,0,0,0.1,0,0.1c0.4-0.3,0.7-0.6,1.1-0.9
	c0.3-0.7,0.6-1.4,0.9-2.1c10.7-6,20.9-3,31.1,1.4c5.4,2.3,10.1,6.2,15.9,7.5c1.1,2.8,2.8,4.9,5.8,2.6c7.7-6.1,16.5-6.9,25.8-5.9
	c0.4,0.4,0.9,0.8,1.3,1.3c3.5,7.5,4.6,15.4,5.5,23.5c1.1,9.5,1.2,19.1,3.6,28.5c0.4,12.7,2.4,25.3,3.8,38c0.3,2.5,0.3,5,0.5,7.5
	c0.4,7.7,5.5,12.9,10,18.3c19.5,23.4,38.9,46.9,58.4,70.4c6.5,7.8,12.8,15.6,19.4,23.3c1.8,2.1,2,3.4,0.5,6
	c-19.3,31-38.4,62.2-57.6,93.2C677.7,419,662,444,646.4,469.1z"/>
<path class="st4" d="M89.3,664.3c29,0,58,0,87,0c345.2,0,690.4,0,1035.6,0c2.2,0,4.3,0,6.5,0c-0.1,7-0.1,13.9-0.2,20.9
	c-1.7,0-3.3,0.1-5,0.1c-372.9,0-745.8,0-1118.7,0c-1.7,0-3.3,0-5-0.1C89.4,678.2,89.3,671.2,89.3,664.3z"/>
<path class="st5" d="M545.3,110.3c0,8.3,5.2,12.9,11.8,16.5c2.4,1.3,5,2.2,8.6,3.7c-4.7,0.9-8.7,0.6-12.5,1.6
	c-9.5,2.6-12.8,9-8.1,17.7c6.6,12,15.9,21.7,26.5,30.1c12.8,10.2,26.8,18.5,41.8,25.1c1.6,0.7,3.7,0.9,4,3.3
	c-1.4,1.8-2.9,3.6-4.3,5.4c-7.6,10.3-15.1,20.5-16.6,33.9c-1,8.6-2.7,17-4.1,25.5c-0.4,2.8-0.9,5.5-1.2,8.3
	c-1.2,10.4-2.8,20.4-11.4,28c-4.7,4.1-8.2,9.5-12.2,14.3c-1.2,1.4-1.8,3.7-4.3,3.6c1.2-3.9,2.5-7.8,3.6-11.8
	c2.3-9,2.6-18.6,9.4-26.2c2.6-2.9,1.5-7.8,0.6-11.6c-0.7-2.7-3.9-0.7-5.6-1.8c2.2-9.7,3.3-19.4,2.3-29.5
	c-1.6-16.7-7.1-31.7-17.5-44.7c-5.7-7.1-12-13.7-20.5-17.6c-0.2-0.4-0.4-0.8-0.9-0.3c0.2,0.2,0.4,0.4,0.6,0.5
	c8.4,11.7,12,25.1,13.4,39.4c-10.5-16.6-23.4-30.7-40.2-40.9c-17.6-10.6-44.1-18.3-54.4-15.8c1.5,0.5,2.8,0.9,4,1.4
	c10.6,4.5,20.9,9.6,27.5,19.7c-0.2,0.2-0.3,0.3-0.5,0.5c-14.3-4.4-28.8-7.8-43.8-8.9c-10-0.8-20-0.8-30.8-0.2
	c4.2,3.2,6.4,6.7,8.4,10.3c0.7,1.2,2.1,2.6,1,4c-0.9,1.1-2.5,0.4-3.8,0.1c-7.7-1.3-15.4-2-23.3-0.7c-8.5,1.4-12.4,5.3-13.5,13.9
	c-2.8,23.1-5.6,46.1-8.5,69.2c-1.8,1.7-5.2-0.5-6.4,2.3c-1.8,4.2,0.5,12.8,3.9,16c-0.2,2.1-0.3,4.3-0.5,6.4
	c-1.2,10.7-2.3,21.4-3.5,32c-0.7-0.6-1.4-1.1-2.1-1.7c0.4-1.9-0.5-3.6-1-5.3c-4.4-15.4-8.5-30.8-11.1-46.6
	c-4.4-23.8-6.8-47.9-6.9-72.1c6.9-4,13.8-7.8,20.7-11.9c15.8-9.4,29.2-21.4,40-36.3c0.9-1.2,1.7-2.5,2.4-3.8
	c6.1-10.7,2.2-18.5-10.2-20.1c-2.9-0.4-5.9-0.7-9.8-1.2c11.4-3.9,20.7-8.6,21-21.7c11.9-10.6,24.7-19.7,38.7-27.2
	c14.4-7.8,29.6-13.3,46.8-17.3c-7.1,10.9-13.7,21-20.2,31c30.3-17.9,60.8-31.2,96.6-20.6c-0.3,0.7-0.6,1.4-0.9,2.1
	c-0.4,0.3-0.7,0.6-1.1,0.9c0,0,0-0.1,0-0.1c-11.7,8.5-23.8,16.8-29.2,32C541.4,112.7,542.8,110.2,545.3,110.3z M471.5,100.7
	c0.4,0.2,0.6,0.5,0.8,0.5c0.7,0.2,0.7-0.4,0.7-0.8c0-0.1-0.4-0.5-0.5-0.4C472.2,100.2,471.9,100.4,471.5,100.7z"/>
<path class="st6" d="M1057.1,418.2c0,8.7-2,17.1-3.1,25.6c-2,14.9-4.5,29.7-6.7,44.6c-3.5,23.3-6.9,46.7-10.3,70.1
	c-0.1,0.6-0.5,1.2-0.7,1.8c-3.2,0-6.3-0.1-9.5,0.1c-19.7,1.8-39.4,1.6-59-1.5c-17.2-2.7-33.9-7.5-49.9-14.6
	c-13.4-5.9-25.9-13.4-37.5-22.5c-3.5-2.7-5.2-5.9-3.4-10.4c0.5-1.3,0.1-3,0.4-4.4c4.6-27.4,8.1-54.9,13.6-82.1
	c1.1-5.5,3-6.8,8.3-6.8C951.9,418.3,1004.5,418.2,1057.1,418.2z"/>
<path class="st7" d="M1057.1,418.2c-52.6,0-105.2,0.1-157.8-0.1c-5.3,0-7.2,1.3-8.3,6.8c-5.5,27.2-9,54.8-13.6,82.1
	c-0.2,1.5,0.2,3.1-0.4,4.4c-1.8,4.5-0.1,7.7,3.4,10.4c11.5,9.1,24,16.5,37.5,22.5c16,7.1,32.7,11.9,49.9,14.6
	c19.6,3.1,39.3,3.3,59,1.5c3.1-0.3,6.3-0.1,9.5-0.1c-1.5,10.8-2.7,21.6-4.5,32.3c-1.4,8.2-1.4,16.7-4.5,24.6c-24.6,1-49.2,1-73.7,1
	c-26.9,0-53.9,0.1-80.8,0.1c-5.8,0-11.6,0.3-17.3-1.2c-1.7-1.6-3.8-0.9-5.7-0.9c-25.5-0.1-51-0.1-76.5,0c-24.3,0-48.6,0.1-73,0.2
	c-2.3-3.5-0.8-7.3-0.8-11c0-1.8,2.1-1.1,3.3-1.1c6.7-0.2,13.3-0.2,20-0.2c42.6-0.3,85.3-0.6,127.9-0.8c4.4,0,5.4-1.7,5.9-5.7
	c1.5-10.1,2.7-20.3,4.6-30.3c1.9-10.2,2.8-20.7,4.3-31c1.4-9.7,2.9-19.3,4.3-28.9c1.6-10.6,2.7-21.3,4.7-31.9c1.6-8.6,2.6-17.4,4-26
	c1.7-10.3,3.4-20.5,4.8-30.8c0.5-3.6,2-4.4,5.5-4.4c52.5-0.1,105-0.3,157.4-0.5c2.6,0,5.3,0.1,7.9,0.6
	C1055.8,414.7,1058.1,415.3,1057.1,418.2z"/>
<path class="st5" d="M371.3,79.2c-11.8-1-21.2,5.3-31,10.4c-0.4,0.2-0.8,0.5-1.2,0.9c-4.1,3.4-7.9,4.6-12.9,0.6
	c-4.9-3.9-11.5-3.9-17.6-3.9c-4.7,0-5.8,4.3-8.3,7.1c-10.8-6.5-17.6-16.7-25.5-27.7c7.8,3.1,14.1,6.2,20.9,8.1
	c3.3,0.9,6.7,1.8,9.9,3c3.7,1.3,3.2-0.7,2.6-2.9c-1.5-5.9-5-10.8-8.9-15c-7.1-7.7-14.6-14.9-23.7-20.7c5.4-1,13.1,2.8,28.8,14.5
	c8.7,6.5,16.3,14.2,23.2,22.9C328,62.8,333.4,51,338.7,39c-1.5,9.1,0.2,17.7,3.4,26.3c4.8-15.9,12.6-30.2,21.3-44.1
	c-1.3,17.3,2.4,33.9,6.3,50.4C370.3,74.1,371.7,76.5,371.3,79.2z"/>
<path class="st8" d="M427.6,1074.2c0.2,5.9,0.5,11.8,0.7,17.8c-2.6,0.9-2.9-0.3-3.1-2.6c-0.7-10-5.8-17.1-14.8-21.3
	c-19.9-9.2-41.9-3.4-54.4,14.5c-1.1,1.6-3.5,3.4-2.4,5.1c1,1.5,3.7,1.6,5.9,1.7c0.2,0,0.3,0,0.5,0c20.7,2.2,41.3,4.2,62.1,4.1
	c-0.9,0.3-1.8,0.5-2.7,0.5c-19.2,1-38.3,0-57.2-3.4c-5.9-1.1-12.4-1-15.9-7.4c0.9-1.9,1.9-3.8,2.8-5.7c3.8-6.2,4.3-13.2,5.4-20.2
	c0.7-4.3-0.2-8.7,1.7-12.8c8.4,0,16.9,0,25.3,0c-1.1,1.8-4.7,1.6-4.1,4.4c0.5,2.5,4.2,1.1,5.6,3.3c-2.7,1-5.4,1.9-8,3
	c-1.4,0.6-3.9,0.7-2.8,3.1c1.1,2.4,3.1,0.4,4.2-0.2c10-5.3,19.8-4.4,29.4,1c0.9,0.5,1.8,0.9,2.7,1.3c1.2,0.5,2.6,1.6,3.4-0.2
	c0.8-1.7-0.9-2.2-2-2.8c-3.5-1.6-7-3.2-11.3-5.3c1.9-0.4,2.8-0.4,3.4-0.8c1.9-1.3,8.5,0.4,3.5-5.3c0.6-0.5,1.2-1,1.8-1.5
	c6.6,0,13.1,0,19.7,0C427.1,1054.3,427.4,1064.3,427.6,1074.2z"/>
<path class="st8" d="M626.3,1072.4c1.7,3.2,3.4,6.5,5.1,9.7c-4.5,6.1-4.5,6.1-9,0c-12.2-16.8-31-22.6-50.7-15.8
	c-10.7,3.7-18.7,12.3-18.5,24.3c0.1,5-2.5,1.5-4,1.3c0.6-6.2,1.2-12.5,0.7-18.7c0.1-9.6,0.2-19.2,0.3-28.9c6.4,0,12.7,0,19.1,0
	c2,1.1,2.5,1.7,2.1,2.1c-3.9,3.7,0.1,3.6,2.1,4.5c1.3,0.6,3.1-0.3,3.9,1.7c-3,1.4-6.1,2.6-8.9,4.1c-1.3,0.7-4.3,1.1-2.9,3.6
	c1.2,2.1,3,0,4.3-0.7c10.2-5.6,20.6-8.1,31.6-2c0.1,0.1,0.3,0.2,0.4,0.2c1.2,0.2,2.7,1.3,3.3-0.6c0.5-1.4-0.9-1.9-2-2.3
	c-2.9-1.1-5.8-2.1-8.8-3.2c6.4-4.1,6.4-4.1,1.6-7.4c8.3,0,16.7,0,25,0C622.1,1053.8,622.5,1063.4,626.3,1072.4z"/>
<path class="st5" d="M658.3,137.2c-2.3-9.3-2.5-19-3.6-28.5c-0.9-8.1-2-16.1-5.5-23.5c5.2-6.9,9.1-14.5,11.6-22.9
	c0.3,12.7,1.7,25.3-3.2,38.8c10.6-4.4,18.1-12.2,28.6-13.9c10.3-1.7,20.6-2.3,31.1-1.5c-9.7,2.7-19.3,5.5-28.1,10.4
	c-4.6,2.6-9,5.4-12.4,9.7c-2.5,3.2-1.3,3.6,1.8,4c7.8,0.9,15.6,0.8,23.4,0.7c2,0,4-0.2,7.4-0.4C691.6,119.6,674.9,128.4,658.3,137.2
	z"/>
<path class="st5" d="M647.9,83.9c-9.3-1-18.1-0.2-25.8,5.9c-3,2.3-4.7,0.2-5.8-2.6c7.5-10.8,14.8-21.8,20.8-33.7
	c2.8-5.5,4.1-11.6,6.9-17.8C646.9,52.1,649.4,67.8,647.9,83.9z"/>
<path class="st4" d="M1142.3,1044.3c7.4,0,14.7,0,22.1,0c0,10.1-0.1,20.3,0,30.4c0,2.8-0.7,3.8-3.6,3.6c-5-0.2-10-0.2-14.9,0
	c-2.9,0.1-3.6-0.9-3.6-3.6C1142.4,1064.5,1142.3,1054.4,1142.3,1044.3z"/>
<path class="st4" d="M136.3,1044.3c7,0,14.1,0,21.1,0c0,10.1-0.1,20.3,0,30.4c0,2.8-0.7,3.8-3.6,3.6c-4.6-0.2-9.3-0.2-13.9,0
	c-2.9,0.1-3.6-0.9-3.6-3.6C136.4,1064.5,136.3,1054.4,136.3,1044.3z"/>
<path class="st2" d="M700.3,616.3c24.3-0.1,48.6-0.1,73-0.2c25.5,0,51,0,76.5,0c1.9,0,4-0.7,5.7,0.9c-24.8,0.1-49.5,0.1-74.3,0.1
	c-26.9,0-53.8-0.1-80.7-0.1C700.4,616.8,700.4,616.6,700.3,616.3z"/>
<path class="st9" d="M550.4,1044.3c-0.1,9.6-0.2,19.2-0.3,28.9c-24.1,0-48.2-0.6-72.2,0.3c-16.8,0.6-33.5,0.4-50.2,0.7
	c-0.2-10-0.5-19.9-0.7-29.9C468.1,1044.3,509.2,1044.3,550.4,1044.3z"/>
<path class="st9" d="M596.2,1044.3c4.8,3.3,4.8,3.3-1.6,7.4c2.9,1.1,5.9,2.1,8.8,3.2c1.1,0.4,2.5,0.9,2,2.3
	c-0.6,1.9-2.1,0.9-3.3,0.6c-0.2,0-0.3-0.1-0.4-0.2c-10.9-6.1-21.3-3.7-31.6,2c-1.3,0.7-3.1,2.8-4.3,0.7c-1.4-2.5,1.6-2.8,2.9-3.6
	c2.9-1.6,5.9-2.8,8.9-4.1c-0.8-2-2.7-1.2-3.9-1.7c-2-0.9-6-0.8-2.1-4.5c0.4-0.4-0.1-1-2.1-2.1
	C578.4,1044.3,587.3,1044.3,596.2,1044.3z M593.3,1047.5c-5.9-2.6-12.9-2.4-16.6,0.5C582.3,1049.5,587.8,1051.1,593.3,1047.5z"/>
<path class="st9" d="M407.2,1044.3c-0.6,0.5-1.2,1-1.8,1.5c5,5.8-1.6,4.1-3.5,5.3c-0.6,0.4-1.5,0.4-3.4,0.8c4.4,2,7.9,3.6,11.3,5.3
	c1.2,0.6,2.8,1.1,2,2.8c-0.8,1.8-2.2,0.7-3.4,0.2c-0.9-0.4-1.8-0.8-2.7-1.3c-9.6-5.5-19.3-6.4-29.4-1c-1.2,0.6-3.1,2.6-4.2,0.2
	c-1.1-2.3,1.5-2.5,2.8-3.1c2.6-1.1,5.3-2,8-3c-1.4-2.2-5-0.8-5.6-3.3c-0.6-2.8,3-2.6,4.1-4.4
	C390.1,1044.3,398.7,1044.3,407.2,1044.3z M383.5,1047.5c6.1,3.8,11.7,2.2,18.3,0C395.1,1045.1,389.5,1045.6,383.5,1047.5z"/>
<path class="st10" d="M364.3,333c1.2-10.7,2.3-21.4,3.5-32c0.2-2.1,0.4-4.3,0.5-6.4c1.6,1.3,1.6,3.2,2,4.9c1.9,8.4,3.9,16.8,6.7,25
	c2.2,6.5,6.3,10.8,12.2,13.8c8.5,4.3,17.8,4.5,26.8,4c14.8-0.9,27.8-5.9,36-19.6c4.5-7.5,7.6-15.5,10.4-23.7c1.1-3.3,3.3-5.3,7-5.3
	c3.5,0,6.4,0.9,7.9,4.6c2.2,5.5,4.7,11,7,16.5c4.9,11.7,12.3,20.8,25.1,24.3c9.4,2.6,18.9,4,28.6,3.1c9.8-0.9,19-3.4,24.2-13.1
	c0.2,0.1,0.7,0.4,0.7,0.4c0.5-0.6,0.9-1.3,0.4-2.2l0,0.1c2.5,0.1,3.1-2.2,4.3-3.6c4.1-4.8,7.6-10.2,12.2-14.3
	c8.6-7.6,10.3-17.6,11.4-28c0.3-2.8,0.8-5.5,1.2-8.3c4.8-1,9.3-3.4,14.5-3.2c3,0.2,4.4,1.1,5.2,4c2.5,9.5,1,18.6-4,26.8
	c-8.6,14-21.4,22.9-36,29.6c-3.4,1.6-5,3.2-4.9,7.3c0.3,24.6,0.1,49.2,0.2,73.9c0,2.6-0.4,4.7-2.4,6.7c-9.6,9.7-19.1,19.5-30.8,26.7
	c-2.7,1.6-3.4,4-4,6.9c-1.6,7.5,0.6,14.9,0.3,22.3c-35.3,29.8-78.4,30.4-116.2,1.6c0.3-8.9-1.5-17.5-3.8-26
	c-0.7-2.3-1.8-4.1-4.1-5.3c-8.6-4.4-16.6-9.8-24.3-15.6c-4.4-3.3-7.7-6.6-8.2-13c-1.2-16.3-3.5-32.6-5.4-48.9
	C367,355.7,365.6,344.4,364.3,333z M470.9,379.3c-4.5,0-9-0.1-13.5,0c-4.5,0.1-9,0.5-13.4,0.9c-14.8,1.3-23.9,7.8-27.2,19.5
	c-1.9,6.9,0.1,14.8,5.1,18.1c5.6,3.8,10.8,1.2,15.8-1.8c4.7-2.9,8.8-6.6,12.9-10.2c12.8-11.2,30.6-17.1,47.4-2.9
	c3.1,2.7,6.8,4.8,11,5.6c6.2,1.2,12.8-2.1,15.3-7.7c2.1-4.7,0.3-9.4-5.2-13.7c-3.9-3-8.3-4.9-13-5.9
	C494.5,378.6,482.7,378,470.9,379.3z M421.4,449.7c33,9.3,66,9.9,99,0C487.4,456.5,454.4,456.1,421.4,449.7z M475.1,329.8
	c12,10.9,4.5,18.1-5.9,25.4c8-1.4,14.3-6.9,15-11.9C485.1,337.4,482.3,332.9,475.1,329.8z M418,448.4c-0.3,0.1-0.6,0.2-0.8,0.3
	c0.2,0.1,0.5,0.3,0.8,0.4c0.1,0,0.3-0.1,0.4-0.1C418.2,448.8,418.1,448.6,418,448.4z M523.3,449c0.1-0.1,0.3-0.1,0.4-0.2
	c-0.1-0.1-0.2-0.2-0.3-0.2c-0.1,0-0.3,0.1-0.4,0.2C523,448.8,523.2,448.9,523.3,449z M414.6,447.6c-0.1,0-0.3-0.1-0.4-0.1
	c0,0-0.1,0.2-0.1,0.3c0.1,0,0.3,0.1,0.4,0.1C414.5,447.9,414.5,447.8,414.6,447.6z"/>
<path class="st9" d="M530.3,474.2c0.3-7.4-1.9-14.8-0.3-22.3c0.6-3,1.3-5.3,4-6.9c11.8-7.2,21.2-17,30.8-26.7c2-2,2.4-4.1,2.4-6.7
	c-0.1-24.6,0.1-49.3-0.2-73.9c0-4.1,1.5-5.8,4.9-7.3c14.6-6.7,27.5-15.6,36-29.6c5.1-8.2,6.5-17.3,4-26.8c-0.8-2.9-2.2-3.8-5.2-4
	c-5.2-0.3-9.7,2.2-14.5,3.2c1.4-8.5,3.1-17,4.1-25.5c1.5-13.4,9-23.6,16.6-33.9c1.4-1.9,2.9-3.6,4.3-5.4c4-0.9,6.9,2.1,10.4,2.9
	c10.1,2.2,16.9,8.3,22.8,16.7c18,25.5,36.8,50.5,55.3,75.7c1.7,2.4,2.2,3.9,0.1,6.8c-32.5,42.5-64.8,85.2-97.2,127.8
	c-1.1,1.4-2,3.1-3,4.6c-4.5,5.7-9.4,11.2-13.4,17.3c-8.1,12.7-19.3,21.6-32,29.1c-3.4,2-6.6,6.4-9.9,5.7c-2.9-0.6-4.9-5.4-7.5-8.2
	C539.1,482.2,535.4,477.6,530.3,474.2z"/>
<path class="st9" d="M364.3,333c1.3,11.3,2.7,22.7,4,34c1.9,16.3,4.3,32.5,5.4,48.9c0.5,6.4,3.8,9.8,8.2,13
	c7.7,5.8,15.7,11.2,24.3,15.6c2.3,1.2,3.5,2.9,4.1,5.3c2.4,8.5,4.1,17.1,3.8,26c-5.4,4.5-9.6,10.1-13.3,16c-1.5,2.4-2.6,2.6-5,1
	c-7.8-5.4-16.1-10.2-23.5-15.9c-6.7-5.2-11.1-12.7-16.7-19.1c-3.8-4.4-7.4-9-11.1-13.5c-4.9-8.6-11.5-15.8-17.4-23.6
	c-21.6-28.8-43.5-57.5-65.3-86.2c-5.2-6.9-10.4-13.8-15.7-20.6c-1.7-2.1-1.9-3.6-0.1-6c20.7-28.1,41.2-56.3,61.9-84.4
	c1.2-1.6,2.3-3.4,4.3-4c10.7-3.2,20.6-8.3,31.1-12.1c0.1,24.2,2.4,48.3,6.9,72.1c-4.2-0.8-7.3-3.8-11.1-5.4c-4.8-2.1-8-1.1-9.7,3.9
	c-2.7,7.9-3.3,16.1-1.1,24c4.8,17.1,18.3,24.7,34,29.4C362.9,331.9,363.6,332.4,364.3,333z"/>
<path class="st9" d="M501.2,565c0,3-0.2,6,0,9c0.2,3.1-0.5,4.6-4,4.3c-3.5-0.3-7-0.1-10.5-0.1c-3.7,0-5.5-1.9-5.5-5.6
	c0-0.2,0-0.3,0-0.5c0.3-12-2.6-14.7,12.7-13.8c2.4,0.1,3.9-0.3,3.5-3.2c-0.1-1.3-0.2-2.8,1.8-2.8c2.6-0.1,1.8,1.9,1.8,3.2
	C501.3,558.7,501.2,561.8,501.2,565z M497.5,569.2c-0.1-8.1,0.8-6.9-5.8-7.3c-4.7-0.3-7.3,0.3-6.8,6.2c0.4,4.3,0.2,7.2,6,6.6
	C495.2,574.2,499.3,574.8,497.5,569.2z"/>
<path class="st9" d="M469.6,558.3c9.7,0,9.7,0,9.7,10.9c0,9-0.1,9-11,9c-8.9,0-8.9-0.1-8.9-11.6
	C459.4,558.7,459.9,558.3,469.6,558.3z M469.2,562c-6.1,0-6.2,0-6.1,6.1c0.1,7.3-0.9,5.9,6.3,6.5c5.1,0.4,6.6-1.2,6.2-6.2
	C475.1,561.1,476.5,562.1,469.2,562z"/>
<path class="st9" d="M446.7,578.2c-11.4,0-11.4,0-11.3-11.6c0-7.5,0.8-8.2,8.3-8.3c3.2,0,6.3,0,9.5,0c1.2,0,2.3,0.1,2.3,1.8
	c0,1.6-1,1.9-2.3,1.9c-3.3,0-6.7,0.1-10,0c-2.8-0.2-4.1,0.4-4.1,3.7c0,8.8-0.2,8.8,8.5,8.8c1.5,0,3-0.1,4.5,0
	c1.4,0.1,3.2-0.6,3.4,1.8c0.2,2.6-1.8,1.8-3.1,1.9C450.4,578.3,448.5,578.2,446.7,578.2z"/>
<path class="st9" d="M420.9,577.7c-4-2.3-7.9-4.4-11.7-6.7c-2.6-1.6-2.6-3.9,0-5.5c3.8-2.4,7.7-4.4,11.7-6.7c1.7,4.4-1.8,5-4,6.2
	c-5.5,3.2-5.5,3.1,0,6.4C419.1,572.8,422.7,573.3,420.9,577.7z"/>
<path class="st9" d="M533.8,558.6c4.1,2.4,7.9,4.5,11.6,6.6c3,1.7,3.1,3.9,0.4,5.7c-3.8,2.5-7.9,4.6-12,6.9c-1.6-5,2.7-5.1,4.9-6.9
	c1.2-1,3.7-1,3.4-2.9c-0.1-1-2.2-1.7-3.4-2.5C536.4,563.8,532.1,563.6,533.8,558.6z"/>
<path class="st9" d="M505.4,569.1c0-1.3,0-2.6,0-4c0.1-5.5,1.3-6.8,6.6-6.8c2.1,0,4.3,0,6.4,0c1.4,0,2.2,0.3,2.2,1.9
	c0,1.6-1,1.9-2.3,1.8c-0.2,0-0.3,0-0.5,0c-8.8,0.7-8.6,0.7-8.9,9.3c-0.1,2.2,2.1,6.4-1.7,6.5c-4,0.1-1-4.1-1.9-6.3
	C505.1,570.8,505.4,569.9,505.4,569.1z"/>
<path class="st9" d="M549.3,1091.9c1.5,0.2,4.1,3.7,4-1.3c-0.3-12,7.8-20.6,18.5-24.3c19.6-6.8,38.4-0.9,50.7,15.8
	c4.5,6.2,4.5,6.2,9,0c2.9,6.2,3.2,12.8,2.7,19.4c-0.2,3.2-2.1,5.1-5.7,5.8c-8,1.4-16.2,1-24.3,1.7c-13.7,1.2-27.4,1.9-41,4
	c-2,0.3-4,0.2-6,0.3c-7.3,0.1-10.7-3.6-9.8-11.1C547.8,1098.7,548.7,1095.3,549.3,1091.9z M610.4,1090.9c4.1,0,7.8-1.3,11.7-2.4
	c-4-0.7-7.8,0.4-11.7,1.1c-18.3,2.1-36.7,4.1-55.2,4.1C573.7,1094.9,592.1,1094,610.4,1090.9z"/>
<path class="st9" d="M346.3,1083.1c3.4,6.4,9.9,6.4,15.9,7.4c18.9,3.4,38,4.4,57.2,3.4c0.9,0,1.8-0.2,2.7-0.5
	c-20.8,0.1-41.5-1.9-62.1-4.1c-0.2,0-0.3,0-0.5,0c-2.1,0-4.9-0.2-5.9-1.7c-1.1-1.7,1.3-3.5,2.4-5.1c12.5-17.9,34.5-23.8,54.4-14.5
	c9.1,4.2,14.1,11.4,14.8,21.3c0.2,2.4,0.6,3.5,3.1,2.6c2.5,4.8,2.4,10,1.9,15.1c-0.4,3.9-2.7,6.5-7.4,6.3
	c-8.6-0.5-17.1-1.9-25.7-2.3c-9.6-0.5-19.1-1.8-28.7-1.7c-6,0.1-11.9-0.9-17.9-1.1c-4.3-0.2-6.6-2.4-6.3-7.1
	C344.5,1095.1,343.5,1088.9,346.3,1083.1z"/>
<path class="st9" d="M545.3,110.3c-2.5-0.1-3.9,2.4-7.2,2.8c5.4-15.2,17.5-23.4,29.2-32c-0.4,6.4-0.4,12.6,5.7,17.3
	c-7.1,0-13.8,0.7-20.2,3.1C548.7,103,545.1,105.1,545.3,110.3z"/>
<path class="st9" d="M567.2,81.3c0.4-0.3,0.7-0.6,1.1-0.9C567.9,80.7,567.6,81,567.2,81.3z"/>
<path class="st10" d="M370.8,276.3c2.8-23.1,5.7-46.1,8.5-69.2c1-8.6,4.9-12.5,13.5-13.9c7.8-1.3,15.6-0.6,23.3,0.7
	c1.3,0.2,2.9,0.9,3.8-0.1c1.1-1.4-0.3-2.8-1-4c-2.1-3.6-4.3-7.1-8.4-10.3c10.8-0.6,20.8-0.5,30.8,0.2c15,1.1,29.5,4.6,43.8,8.9
	c0.3,0.4,0.6,0.7,1,0.1c0,0-0.4-0.4-0.6-0.6c-6.7-10.1-16.9-15.2-27.5-19.7c-1.2-0.5-2.5-0.9-4-1.4c10.3-2.5,36.7,5.2,54.4,15.8
	c16.8,10.2,29.7,24.3,40.2,40.9c-1.4-14.3-5-27.6-13.4-39.4l0.3-0.3c8.5,3.9,14.8,10.5,20.5,17.6c10.5,13,15.9,28,17.5,44.7
	c1,10.1-0.1,19.8-2.3,29.5c-2.4-0.3-4.8-0.7-7.1-1c0.4-1.6,0.7-3.3,1.4-4.8c0.8-1.8,0.3-2.6-1.4-3.5c-19.8-10.5-39.6-21.1-59.4-31.6
	c-2.4-1.3-3.7-0.7-4.4,1.9c-1.2,4.3-2.4,8.6-3.8,12.9c-0.8,2.7,0,3.9,2.7,4.7c3.5,1.1,6.9,2.5,10.3,3.8c13.3,5,26.7,10.1,40,15.2
	c-1.8,0-3.6,0-5.5-0.1c-21.7-0.8-43.2-0.8-63.8,7.3c-6.8,2.7-13.5,2.6-20.4,0.2c-16.7-5.7-33.8-7.8-51.4-7.9
	C395.7,272.8,383.3,275.2,370.8,276.3z M458.4,247.1c-1-4.7-2.3-9.4-3-14.1c-0.6-4.3-2.1-5.1-6.1-3.3c-20.6,9.3-41.3,18.4-62,27.5
	c-7.2,3.2-7.1,3.3-4.9,10.7c0.9,2.9,2,3.6,4.9,2.6c5.8-2,11.8-3.5,17.7-5.2c16.4-4.7,32.9-9.5,49.3-14.3
	C456.3,250.5,459.1,250.5,458.4,247.1z"/>
<path class="st11" d="M564.1,274.8c2.4,0.3,4.8,0.7,7.1,1c1.8,1.1,5-0.9,5.6,1.8c0.9,3.8,2,8.7-0.6,11.6c-6.9,7.6-7.1,17.2-9.4,26.2
	c-1,4-2.4,7.8-3.6,11.8c0,0,0-0.1,0-0.1c-1.2,0.1-1,1-1.1,1.8c-5.2,9.7-14.4,12.2-24.2,13.1c-9.7,0.9-19.2-0.5-28.6-3.1
	c-12.8-3.5-20.2-12.6-25.1-24.3c-2.3-5.5-4.8-10.9-7-16.5c-1.5-3.7-4.4-4.6-7.9-4.6c-3.6,0-5.8,2-7,5.3c-2.8,8.2-5.8,16.2-10.4,23.7
	c-8.3,13.7-21.2,18.7-36,19.6c-9.1,0.6-18.4,0.3-26.8-4c-5.8-3-9.9-7.3-12.2-13.8c-2.8-8.2-4.8-16.6-6.7-25c-0.4-1.7-0.4-3.6-2-4.9
	c-3.4-3.2-5.7-11.8-3.9-16c1.2-2.8,4.6-0.5,6.4-2.3c12.5-1.2,24.9-3.5,37.7-3.4c17.6,0.1,34.8,2.2,51.4,7.9
	c6.9,2.4,13.6,2.5,20.4-0.2c20.6-8.1,42.2-8.1,63.8-7.3c1.8,0.1,3.6,0,5.5,0.1C554.4,273.8,559.3,274.3,564.1,274.8z M527.7,337.8
	c4.4,0.8,9.8-0.1,15-1c5.7-0.9,10.4-3.8,13.1-9.5c4.2-8.9,6.4-18.1,6.4-27.9c-0.1-11.3-3.4-16-14.5-17.9
	c-16.9-2.9-33.7-2.7-50.4,1.7c-5.6,1.5-8.8,5.4-8.9,11.1c-0.3,11.9,3.4,22.6,10.8,31.9C506.1,335.1,516.3,337,527.7,337.8z
	 M414.3,280c-7.3-0.1-14.6-0.1-21.8,1.5c-9.5,2.1-13.2,6.6-13.5,16.3c-0.3,7.9,1,15.5,3.3,23c3.2,10.2,9.3,16.4,20.7,16.8
	c5.5,0.2,10.9,0.4,16.4-0.3c11-1.5,20.2-5.8,26-16c3.6-6.3,5.8-13.1,7-20c2-11.2-1.5-16-12.4-18.8C431.6,280.3,423,279.8,414.3,280z
	"/>
<path class="st3" d="M362.2,331.3c-15.7-4.8-29.2-12.4-34-29.4c-2.2-7.9-1.7-16.1,1.1-24c1.7-5,4.9-5.9,9.7-3.9
	c3.8,1.6,6.9,4.6,11.1,5.4c2.6,15.8,6.6,31.3,11.1,46.6C361.7,327.7,362.6,329.4,362.2,331.3z"/>
<path class="st9" d="M471.5,100.7c0.4-0.3,0.7-0.5,1-0.7c0.1,0,0.5,0.3,0.5,0.4c0,0.4-0.1,1-0.7,0.8
	C472.1,101.2,471.9,100.9,471.5,100.7z"/>
<path class="st10" d="M535.2,184.3c-0.2-0.2-0.4-0.4-0.6-0.5c0.5-0.6,0.7-0.2,0.9,0.3C535.5,184.1,535.2,184.3,535.2,184.3z"/>
<path class="st8" d="M593.3,1047.5c-5.5,3.6-11,2-16.6,0.5C580.4,1045.1,587.4,1044.9,593.3,1047.5z"/>
<path class="st8" d="M383.5,1047.5c6-2,11.7-2.4,18.3,0C395.2,1049.7,389.5,1051.4,383.5,1047.5z"/>
<path class="st11" d="M470.9,379.3c11.8-1.3,23.6-0.7,35.2,1.8c4.8,1,9.1,2.9,13,5.9c5.5,4.3,7.3,9,5.2,13.7
	c-2.6,5.6-9.2,8.9-15.3,7.7c-4.2-0.8-7.9-2.9-11-5.6c-16.7-14.2-34.6-8.3-47.4,2.9c-4.1,3.6-8.2,7.4-12.9,10.2
	c-4.9,3-10.1,5.6-15.8,1.8c-5-3.3-7-11.2-5.1-18.1c3.2-11.7,12.3-18.2,27.2-19.5c4.5-0.4,9-0.7,13.4-0.9
	C461.9,379.2,466.4,379.3,470.9,379.3z"/>
<path class="st0" d="M421.4,449.7c33,6.4,66,6.7,99,0C487.4,459.6,454.4,459,421.4,449.7z"/>
<path class="st0" d="M475.1,329.8c7.2,3.1,9.9,7.6,9.1,13.5c-0.7,5-7,10.5-15,11.9C479.7,347.9,487.1,340.7,475.1,329.8z"/>
<path class="st5" d="M562.2,329c0.1-0.7-0.1-1.7,1.1-1.8c0.5,0.8,0.2,1.5-0.4,2.2C562.9,329.4,562.5,329.1,562.2,329z"/>
<path class="st0" d="M418,448.4c0.1,0.2,0.2,0.4,0.4,0.6c-0.1,0-0.3,0.2-0.4,0.1c-0.3-0.1-0.5-0.2-0.8-0.4
	C417.4,448.6,417.7,448.5,418,448.4z"/>
<path class="st0" d="M523.3,449c-0.1-0.1-0.2-0.2-0.3-0.3c0.1-0.1,0.3-0.2,0.4-0.2c0.1,0,0.2,0.2,0.3,0.2
	C523.5,448.8,523.4,448.9,523.3,449z"/>
<path class="st0" d="M414.6,447.6c0,0.1-0.1,0.3-0.1,0.3c-0.1,0-0.3-0.1-0.4-0.1c0-0.1,0.1-0.3,0.1-0.3
	C414.3,447.5,414.4,447.6,414.6,447.6z"/>
<path class="st1" d="M497.5,569.2c1.7,5.6-2.4,4.9-6.7,5.4c-5.8,0.6-5.7-2.2-6-6.6c-0.5-5.8,2.1-6.5,6.8-6.2
	C498.3,562.3,497.4,561.2,497.5,569.2z"/>
<path class="st1" d="M469.2,562c7.3,0.1,5.9-0.9,6.5,6.3c0.4,5.1-1.1,6.6-6.2,6.2c-7.3-0.6-6.3,0.8-6.3-6.5
	C463,562,463.1,562,469.2,562z"/>
<path class="st8" d="M610.4,1090.9c-18.3,3.1-36.7,3.9-55.2,2.8c18.5,0,36.8-2,55.2-4.1C610.4,1090.1,610.4,1090.5,610.4,1090.9z"/>
<path class="st0" d="M610.4,1090.9c0-0.4,0-0.9,0-1.3c3.9-0.7,7.7-1.8,11.7-1.1C618.2,1089.6,614.4,1090.9,610.4,1090.9z"/>
<path class="st5" d="M458.4,247.1c0.7,3.4-2.1,3.4-4,3.9c-16.4,4.8-32.9,9.5-49.3,14.3c-5.9,1.7-11.9,3.2-17.7,5.2
	c-2.9,1-4.1,0.4-4.9-2.6c-2.2-7.5-2.4-7.5,4.9-10.7c20.7-9.2,41.4-18.3,62-27.5c4-1.8,5.5-1,6.1,3.3
	C456.1,237.8,457.4,242.4,458.4,247.1z"/>
<path class="st5" d="M564.1,274.8c-4.9-0.5-9.7-1-14.5-1.5c-13.3-5.1-26.7-10.1-40-15.2c-3.4-1.3-6.8-2.7-10.3-3.8
	c-2.6-0.8-3.5-2.1-2.7-4.7c1.3-4.3,2.6-8.6,3.8-12.9c0.7-2.5,2-3.1,4.4-1.9c19.8,10.6,39.6,21.1,59.4,31.6c1.6,0.9,2.1,1.7,1.4,3.5
	C564.9,271.6,564.6,273.2,564.1,274.8z"/>
<path class="st5" d="M485.4,188.1c0.2,0.2,0.6,0.5,0.6,0.6c-0.4,0.6-0.7,0.2-1-0.1C485.1,188.4,485.3,188.3,485.4,188.1z"/>
<path class="st12" d="M527.7,337.8c-11.4-0.9-21.5-2.7-28.5-11.5c-7.4-9.3-11.1-20-10.8-31.9c0.1-5.7,3.4-9.6,8.9-11.1
	c16.7-4.5,33.5-4.6,50.4-1.7c11.1,1.9,14.4,6.6,14.5,17.9c0.1,9.8-2.2,19-6.4,27.9c-2.7,5.7-7.4,8.6-13.1,9.5
	C537.4,337.7,532.1,338.7,527.7,337.8z M554.5,320.3c3.1-5.7,1.7-12.2-3.5-15.8c-5.2-3.6-12-3-16.4,1.5c-4.3,4.4-4.6,11.6-1,16.4
	c3.4,4.5,11.6,6.9,15.9,3C552,324.5,553.7,322.9,554.5,320.3z"/>
<path class="st12" d="M414.3,280c8.7-0.2,17.3,0.2,25.7,2.4c11,2.8,14.4,7.6,12.4,18.8c-1.3,7-3.4,13.7-7,20
	c-5.8,10.2-15,14.5-26,16c-5.4,0.7-10.9,0.5-16.4,0.3c-11.4-0.4-17.5-6.6-20.7-16.8c-2.4-7.5-3.6-15.1-3.3-23
	c0.3-9.6,4-14.1,13.5-16.3C399.7,279.9,407,279.9,414.3,280z M437.2,323.2c0.9-1.4,2.7-2,3.2-3.7c3.5-6.1,2.4-12.6-2.9-16.4
	c-5.2-3.8-12.4-3.2-16.8,1.5c-4.4,4.8-4.6,11.9-0.4,16.8C424.5,326.5,431.2,327.2,437.2,323.2z"/>
<path class="st13" d="M549.5,325.4c-4.3,4-12.6,1.5-15.9-3c-3.6-4.9-3.3-12,1-16.4c4.4-4.5,11.3-5.1,16.4-1.5
	c5.1,3.6,6.6,10.1,3.5,15.8c0.4-4.2-1.3-7.1-5.6-7.9c-3.3-0.6-5.7,1.2-7,4.2C540.1,320.5,543.4,326.6,549.5,325.4z"/>
<path class="st9" d="M549.5,325.4c-6.2,1.2-9.4-4.9-7.7-8.8c1.4-3,3.7-4.8,7-4.2c4.3,0.7,6,3.7,5.6,7.9
	C553.7,322.9,552,324.5,549.5,325.4z"/>
<path class="st13" d="M437.2,323.2c-6,4-12.7,3.3-16.9-1.7c-4.2-5-4-12,0.4-16.8c4.3-4.7,11.6-5.4,16.8-1.5
	c5.3,3.8,6.4,10.3,2.9,16.4c0.1-1,0.4-2,0.3-3c-0.4-4.1-2.6-6.4-6.9-6.2c-4,0.2-6.1,2.5-6.1,6.4c0,4.1,2.4,6.4,6.6,6.6
	C435.2,323.3,436.2,323.2,437.2,323.2z"/>
<path class="st9" d="M437.2,323.2c-1,0-2,0.1-3,0.1c-4.2-0.2-6.5-2.5-6.6-6.6c0-3.9,2.2-6.2,6.1-6.4c4.2-0.2,6.4,2.2,6.9,6.2
	c0.1,1-0.2,2-0.3,3C439.9,321.2,438.1,321.8,437.2,323.2z"/>
</svg>
