<?xml version="1.0" encoding="utf-8"?>
<!-- Generator: Adobe Illustrator 19.1.1, SVG Export Plug-In . SVG Version: 6.00 Build 0)  -->
<svg version="1.1" id="Layer_1" xmlns="http://www.w3.org/2000/svg" xmlns:xlink="http://www.w3.org/1999/xlink" x="0px" y="0px"
	 viewBox="0 0 536 556" style="enable-background:new 0 0 536 556;" xml:space="preserve">
<style type="text/css">
	.st0{fill:#449AD5;}
	.st1{fill:#AC3D3E;}
	.st2{fill:#FFFFFF;}
	.st3{fill:#00A05B;}
	.st4{fill:#241196;}
	.st5{fill:#FFFFFF;stroke:#AC3D3E;stroke-width:10;stroke-miterlimit:10;}
</style>
<image style="display:none;overflow:visible;" width="1992" height="2026" xlink:href="C:\Users\emu\Desktop\IMG_20190224_152304.png"  transform="matrix(0.2684 0 0 0.2684 -200.2915 7.1463)">
</image>
<g>
	<path class="st0" d="M269.5,425.5c-105.9,0-192-91.5-192-204c0-112.5,86.1-204,192-204s192,91.5,192,204
		C461.5,334,375.4,425.5,269.5,425.5z M269.5,26.5c-100.9,0-183,87.5-183,195s82.1,195,183,195c100.9,0,183-87.5,183-195
		S370.4,26.5,269.5,26.5z"/>
</g>
<g>
	<path class="st1" d="M445.7,153h-86.2c15.2,18.8,24.3,42.7,24.3,68.7c0,60.4-49,109.3-109.3,109.3C214,331,165,282,165,221.7
		c0-26,9.1-49.9,24.3-68.7H93.3C86,174.4,82,197.4,82,221.5C82,331.7,165.9,421,269.5,421S457,331.7,457,221.5
		C457,197.4,453,174.4,445.7,153z"/>
</g>
<g>
	<polygon class="st2" points="303,306.7 275.7,331 251,306.7 251,168.7 303,168.7 	"/>
	<path class="st1" d="M275.6,333.7L249,307.5V166.7h56v140.9L275.6,333.7z M253,305.8l22.7,22.4l25.3-22.5V170.7h-48V305.8z"/>
</g>
<g>
	<path class="st1" d="M308.9,156.2c-0.2-0.8-0.4-1.5-0.6-2.1c-0.1-0.4-0.3-0.9-0.3-1.1h0c-1-7.8-14-13.5-31-13.5
		c-16.5,0-29.6,5.6-31,13.4c-0.5,2.8-1.9,12.3,1.3,16c1,1.1,2.3,1.7,3.8,1.6c3.2-0.1,8.1-0.1,14.3,0c3.5,0,7.4,0,11.6,0
		c2.5,0,6,0.1,9.8,0.2c5.3,0.2,8.9,0.2,11.4,0.2c5.2,0,5.7-0.3,6.3-1.1c1.5-1.8,2.5-3.5,3.2-5c0.6-2.1,0.8-4.2,1.1-6.3V156.2z
		 M301.8,166.9c-2.1,0.3-9.7,0-14.9-0.1c-3.8-0.1-7.4-0.2-9.9-0.2c-4.2,0-8.1,0-11.6,0c-2.9,0-5.6,0-7.9,0c-2.6,0-4.8,0-6.5,0.1
		c-0.3,0-0.4-0.1-0.6-0.3c-1.4-1.7-1.3-7.8-0.4-12.7c0.9-4.8,11.5-10.1,27-10.1c15.4,0,26.4,5.2,27,10c0.1,0.6,0.3,1.2,0.5,1.8
		C305.2,157.6,306.3,161.2,301.8,166.9z"/>
</g>
<g>
	<path class="st3" d="M275.5,208.7c-7,0-12.7-5.7-12.7-12.7s5.7-12.7,12.7-12.7s12.7,5.7,12.7,12.7S282.5,208.7,275.5,208.7z
		 M275.5,187.3c-4.8,0-8.7,3.9-8.7,8.7s3.9,8.7,8.7,8.7s8.7-3.9,8.7-8.7S280.3,187.3,275.5,187.3z"/>
</g>
<g>
	<circle class="st1" cx="275.5" cy="230" r="12.5"/>
</g>
<g>
	<path class="st4" d="M275.5,276.7c-7,0-12.7-5.7-12.7-12.7s5.7-12.7,12.7-12.7s12.7,5.7,12.7,12.7S282.5,276.7,275.5,276.7z
		 M275.5,255.3c-4.8,0-8.7,3.9-8.7,8.7s3.9,8.7,8.7,8.7s8.7-3.9,8.7-8.7S280.3,255.3,275.5,255.3z"/>
</g>
<g>
	<polygon class="st3" points="252.7,287 301,287 301,305.8 275.6,328.7 252.8,305.9 	"/>
</g>
<g>
	<g>
		<path class="st3" d="M362.1,429.5l-1.5-3.7c82.7-33.6,136.1-111.6,136.1-198.7c0-49.4-17.6-97.6-49.7-135.8l3.1-2.6
			c32.6,38.9,50.6,88.1,50.6,138.4c0,44.1-13.4,86.6-38.8,123C437.1,385.5,402.6,413,362.1,429.5z"/>
	</g>
	<g>
		<path class="st3" d="M425.8,416.8c-14.4,0-25.3-8.3-25.8-8.7l-1.2-0.9l1.8-4.5c6.2-15.8,8.1-20.6,23.4-35.5l5.5-5.3l-2.2,7.3
			c-2.3,7.5-1.9,13.2,1,16.8c5.7,7.2,21.1,6.3,31.2,5.6l4.3-0.3l-2.3,3.4c-8.5,12.6-18.6,19.9-30.1,21.7
			C429.6,416.6,427.7,416.8,425.8,416.8z M403.7,405.7c3.6,2.4,14.5,8.7,27.2,6.6c9.3-1.5,17.7-7.1,25-16.6
			c-11.1,0.6-24.4,0.5-30.7-7.4c-2.7-3.4-3.8-8-3.1-13.7c-10.4,10.7-12.4,15.6-17.7,29.4L403.7,405.7z"/>
	</g>
	<g>
		<path class="st3" d="M452.2,378.5c-7.5,0-13.1-2.2-13.4-2.4l-1.4-0.6l0.4-4.3c1.3-14.2,1.7-18.5,10.6-34.1l3.8-6.7l-0.1,7.7
			c-0.1,6.4,1.5,10.8,4.5,13c6.1,4.4,18.1,0.1,26.1-2.7l4.1-1.4l-1.3,3.9c-3.9,12.2-10.4,20.4-19.3,24.6
			C461.4,377.8,456.5,378.5,452.2,378.5z M441.7,372.9c3.6,1.1,13.5,3.4,22.9-1c6.9-3.2,12.1-9.4,15.8-18.3c-8.7,3-19.1,5.8-26,0.9
			c-2.9-2-4.8-5.3-5.6-9.6c-5.4,10.3-5.8,14.5-7,26.7L441.7,372.9z"/>
	</g>
	<g>
		<path class="st3" d="M473.2,342.6c-4.9,0-8.3-0.9-8.6-0.9l-1.4-0.4L463,337c-0.5-14.3-0.7-18.6,6.2-35.1l2.9-7.1l0.9,7.6
			c0.8,6.4,2.8,10.5,6.1,12.3c6.6,3.6,18-2.2,25.5-6l3.8-2l-0.8,4c-2.4,12.6-7.8,21.6-16,26.8C485.3,341.6,478.4,342.6,473.2,342.6z
			 M467,338.1c3.7,0.6,13.8,1.6,22.6-3.9c6.4-4.1,10.9-10.8,13.3-20.1c-8.2,4.1-18.3,8.2-25.6,4.2c-3.1-1.7-5.4-4.6-6.8-8.8
			c-4.1,10.9-3.9,15.1-3.5,27.4L467,338.1z"/>
	</g>
	<g>
		<path class="st3" d="M483.8,303C483.8,303,483.8,303,483.8,303l-1.5,0.2l-1.2-4c-4-13.7-5.2-17.8-2.6-35.5l1.1-7.6l2.7,7.2
			c2.3,6,5.3,9.5,9,10.4c7.3,1.8,16.9-6.6,23.2-12.1l3.2-2.8l0.3,4.1c0.8,12.8-2.2,22.6-8.9,29.8C499.2,303,484.9,303,483.8,303z
			 M481.6,270.7c-1.3,11.6-0.1,15.6,3.4,27.4l0.3,1.2c3.7-0.3,13.8-1.8,20.9-9.4c5.2-5.5,7.9-13.2,7.9-22.8
			c-7,6-15.7,12.4-23.8,10.4C486.9,276.7,484,274.4,481.6,270.7z"/>
	</g>
	<g>
		<path class="st3" d="M495,262l-0.7-1.5c-1.4-3.1-2.7-5.8-3.8-8.1c-4.7-9.6-7.8-15.9-7.7-31.2l0-7.7l3.7,6.7
			c3.1,5.6,6.6,8.7,10.3,9.1c7.5,0.8,15.8-8.9,21.3-15.2l2.8-3.3l0.8,4c4.2,20.6-2.9,32.2-9.6,38.4c-7.2,6.7-15.4,8.4-15.8,8.5
			L495,262z M487,227.9c0.7,9.7,3.3,14.9,7.1,22.7c1,2,2.1,4.2,3.2,6.7c5.8-1.7,25.2-9.7,21.4-37.6c-6.1,6.9-13.8,14.5-22.2,13.6
			C493.1,232.9,489.9,231.1,487,227.9z"/>
	</g>
	<g>
		<path class="st3" d="M500.2,217.5l-1.2-1.1c-2.5-2.3-4.7-4.3-6.7-6c-8-7-13.3-11.7-19.1-25.8l-2.9-7.1l6,4.8
			c5.1,4,9.4,5.5,13.1,4.4c7.2-2.2,11.2-14.3,13.8-22.3l1.3-4.1l2.3,3.4c11.8,17.3,9.8,30.8,6,39.1c-4.1,8.9-11,13.7-11.2,13.9
			L500.2,217.5z M479.7,189.1c4.4,8.7,8.8,12.5,15.3,18.2c1.7,1.5,3.5,3.1,5.5,4.9c4.6-3.8,19.5-18.7,5.1-43
			c-3,8.7-7.2,18.7-15.2,21.1C487.2,191.5,483.6,191,479.7,189.1z"/>
	</g>
	<g>
		<path class="st3" d="M490,174.9l-1.3-1c-2.7-2.1-5.1-3.8-7.2-5.4c-8.6-6.2-14.3-10.4-21.5-23.9l-3.6-6.8l6.4,4.2
			c5.4,3.5,9.9,4.6,13.4,3.1c7-2.8,9.8-15.3,11.6-23.5l0.9-4.2l2.6,3.1c13.4,16.1,12.7,29.8,9.7,38.3c-3.2,9.3-9.6,14.7-9.9,14.9
			L490,174.9z M467,148.6c5.2,8.2,9.9,11.6,16.9,16.7c1.8,1.3,3.8,2.7,6,4.4c4.3-4.2,17.6-20.5,1.1-43.3
			c-2.1,8.9-5.4,19.3-13.1,22.4C474.7,150.2,471,150.1,467,148.6z"/>
	</g>
	<g>
		<path class="st3" d="M473.2,132.1l-1.5-0.6c-3.1-1.3-5.9-2.4-8.3-3.4c-9.9-3.9-16.4-6.5-26.7-17.8l-5.1-5.7l7.3,2.5
			c6.1,2.1,10.7,2,13.8-0.3c6.1-4.5,5.7-17.2,5.5-25.6l-0.1-4.3l3.3,2.4c17,12.3,19.6,25.7,18.8,34.8c-0.8,9.8-5.7,16.6-5.9,16.9
			L473.2,132.1z M444.4,112.3c7.1,6.7,12.5,8.8,20.5,12c2.1,0.8,4.4,1.7,6.9,2.8c3.1-5.2,12-24.2-9.6-42.2c0.1,9.2-0.4,20-7.2,25
			C452.2,111.9,448.6,112.7,444.4,112.3z"/>
	</g>
	<g>
		<path class="st3" d="M446.1,92.7c-5.1,0-11.6-4.2-16.5-11.3c-6.2-8.9-3.1-21.3-3-21.9l0.4-1.7l1.7,0.2c0.5,0.1,13.3,1.5,19.5,10.3
			l0,0c3,4.2,4.9,8.8,5.4,13c0.6,4.6-0.5,8.2-3.2,10.1C449.2,92.2,447.7,92.7,446.1,92.7z M430.1,62.3c-0.5,3.5-1.2,11.2,2.7,16.8
			c5.4,7.8,12.4,11,15.3,9c1.4-1,2-3.2,1.6-6.2c-0.5-3.5-2.2-7.5-4.8-11.2l0,0C441,65.1,433.5,63,430.1,62.3z"/>
	</g>
</g>
<g>
	<g>
		<path class="st3" d="M175.4,428.5c-40.5-16.5-75-43.9-99.8-79.4c-25.4-36.3-38.8-78.9-38.8-123c0-50.3,18-99.4,50.6-138.4l3.1,2.6
			c-32,38.2-49.7,86.4-49.7,135.8c0,87.1,53.4,165.1,136.1,198.7L175.4,428.5z"/>
	</g>
	<g>
		<path class="st3" d="M111.6,415.8c-1.8,0-3.8-0.1-5.7-0.4c-11.5-1.8-21.6-9.1-30.1-21.7l-2.3-3.4l4.3,0.3
			c10.1,0.6,25.5,1.6,31.2-5.6c2.9-3.6,3.2-9.3,1-16.8l-2.2-7.3l5.5,5.3c15.4,14.9,17.2,19.7,23.4,35.5l1.8,4.5l-1.2,0.9
			C136.9,407.4,126.1,415.8,111.6,415.8z M81.6,394.7c7.3,9.6,15.7,15.1,25,16.6c12.7,2,23.7-4.3,27.2-6.6l-0.7-1.7
			c-5.4-13.7-7.3-18.6-17.7-29.4c0.7,5.7-0.4,10.3-3.1,13.7C106,395.3,92.6,395.3,81.6,394.7z"/>
	</g>
	<g>
		<path class="st3" d="M85.3,377.5c-4.3,0-9.2-0.7-14-3c-8.9-4.2-15.4-12.4-19.3-24.6l-1.3-3.9l4.1,1.4c7.9,2.8,19.9,7.1,26.1,2.7
			c3.1-2.2,4.6-6.6,4.5-13l-0.1-7.7l3.8,6.7c8.9,15.6,9.3,19.9,10.6,34.1l0.4,4.3l-1.4,0.6C98.4,375.3,92.7,377.5,85.3,377.5z
			 M57.2,352.6c3.6,8.9,8.9,15.1,15.8,18.3c9.4,4.4,19.3,2.1,22.9,1l-0.1-1.2c-1.1-12.2-1.5-16.4-7-26.7c-0.9,4.3-2.8,7.5-5.6,9.6
			C76.3,358.4,65.9,355.6,57.2,352.6z"/>
	</g>
	<g>
		<path class="st3" d="M64.3,341.6c-5.2,0-12.1-1-18.5-5.1c-8.3-5.3-13.7-14.3-16-26.8l-0.8-4l3.8,2c7.5,3.8,18.9,9.6,25.5,6
			c3.3-1.8,5.4-5.9,6.1-12.3l0.9-7.6l2.9,7.1c6.9,16.6,6.7,20.9,6.2,35.1l-0.1,4.3l-1.4,0.4C72.7,340.7,69.2,341.6,64.3,341.6z
			 M34.6,313c2.4,9.3,6.9,16.1,13.3,20.1c8.8,5.6,18.9,4.6,22.6,3.9l0-1.3c0.4-12.3,0.6-16.5-3.5-27.4c-1.4,4.2-3.7,7.1-6.8,8.8
			C52.9,321.2,42.8,317.1,34.6,313z"/>
	</g>
	<g>
		<path class="st3" d="M53.7,302c-1,0-15.4,0-25.3-10.5c-6.7-7.1-9.7-17.1-8.9-29.9l0.3-4l3.2,2.9c6.3,5.6,15.9,14,23.2,12.1
			c3.7-0.9,6.7-4.4,9-10.4l2.7-7.2l1.1,7.6c2.6,17.8,1.4,21.9-2.6,35.6l-1.2,3.9L53.7,302C53.7,302,53.7,302,53.7,302z M23.4,266.2
			c0.1,9.6,2.7,17.3,7.9,22.8c7.1,7.6,17.2,9.1,20.9,9.4l0.3-1.2c3.4-11.8,4.6-15.9,3.4-27.4c-2.4,3.7-5.3,6-8.8,6.8
			C39,278.6,30.3,272.1,23.4,266.2z"/>
	</g>
	<g>
		<path class="st3" d="M42.5,261l-1.6-0.3c-0.3-0.1-8.5-1.8-15.8-8.5c-6.7-6.2-13.8-17.8-9.6-38.4l0.8-4l2.8,3.3
			c5.5,6.4,13.8,16,21.3,15.2c3.7-0.4,7.2-3.4,10.3-9.1l3.7-6.7l0,7.7c0.1,15.3-3,21.6-7.7,31.2c-1.2,2.4-2.5,5.1-3.8,8.1L42.5,261z
			 M18.8,218.7c-1.8,13.1,1.2,23.3,9.1,30.5c4.7,4.3,9.8,6.3,12.3,7.1c1.1-2.5,2.2-4.7,3.2-6.7c3.8-7.8,6.3-13,7.1-22.7
			c-2.9,3.2-6,5-9.5,5.4C32.7,233.2,24.9,225.6,18.8,218.7z"/>
	</g>
	<g>
		<path class="st3" d="M37.3,216.5l-1.3-0.9c-0.3-0.2-7.2-5-11.2-13.9c-3.8-8.3-5.8-21.8,6-39.1l2.3-3.4l1.3,4.1
			c2.6,8,6.6,20.1,13.8,22.3c3.6,1.1,8-0.4,13.1-4.4l6-4.8l-2.9,7.1c-5.8,14.1-11.1,18.8-19.1,25.8c-2,1.7-4.2,3.7-6.7,6L37.3,216.5
			z M31.8,168.3c-6.7,11.4-7.9,22-3.5,31.7c2.6,5.8,6.6,9.6,8.6,11.3c2-1.9,3.9-3.5,5.5-4.9c6.5-5.7,10.9-9.5,15.3-18.2
			c-3.9,1.9-7.5,2.3-10.8,1.3C39,187,34.8,177,31.8,168.3z"/>
	</g>
	<g>
		<path class="st3" d="M47.5,173.9l-1.2-1c-0.3-0.2-6.7-5.6-9.9-14.9c-3-8.6-3.7-22.2,9.7-38.3l2.6-3.1l0.9,4.2
			c1.8,8.2,4.6,20.6,11.6,23.5c3.5,1.4,8,0.4,13.4-3.1l6.4-4.2l-3.6,6.8c-7.1,13.5-12.8,17.6-21.5,23.9c-2.1,1.5-4.6,3.3-7.2,5.4
			L47.5,173.9z M46.5,125.5c-16.5,22.8-3.2,39,1.1,43.3c2.2-1.7,4.2-3.1,6-4.4c7-5.1,11.7-8.5,16.9-16.7c-4,1.5-7.7,1.6-10.9,0.3
			C51.9,144.7,48.6,134.4,46.5,125.5z"/>
	</g>
	<g>
		<path class="st3" d="M64.3,131.1l-0.9-1.3c-0.2-0.3-5.1-7.1-5.9-16.9c-0.8-9.1,1.8-22.4,18.8-34.8l3.3-2.4L79.4,80
			c-0.2,8.4-0.6,21.2,5.5,25.6c3,2.2,7.7,2.3,13.8,0.3l7.3-2.5l-5.1,5.7C90.5,120.5,84,123.1,74.1,127c-2.5,1-5.2,2.1-8.3,3.4
			L64.3,131.1z M75.3,83.9c-21.6,18-12.7,37-9.6,42.2c2.5-1.1,4.8-2,6.9-2.8c8-3.2,13.4-5.3,20.5-12c-4.3,0.5-7.8-0.3-10.6-2.4
			C75.8,103.9,75.2,93.1,75.3,83.9z"/>
	</g>
	<g>
		<path class="st3" d="M91.4,91.7c-1.6,0-3.1-0.4-4.3-1.3c-5.2-3.7-4.3-13.8,2.2-23l0,0c6.2-8.9,19-10.3,19.5-10.3l1.7-0.2l0.4,1.7
			c0.1,0.5,3.2,13-3,21.9C103,87.4,96.5,91.7,91.4,91.7z M92.6,69.6c-5.4,7.8-6.1,15.4-3.2,17.4c2.9,2,9.8-1.2,15.3-9
			c3.9-5.6,3.3-13.3,2.7-16.8C104,62,96.5,64.1,92.6,69.6L92.6,69.6z"/>
	</g>
</g>
<g>
	<path class="st0" d="M167,123.5l-0.8-0.9c-0.1-0.1-0.2-0.2-0.4-0.3c-0.2-0.1-0.4-0.2-0.7-0.4c-0.6-0.3-1.3-0.5-2.1-0.4
		c-0.4,0-0.8,0.1-1.3,0.2c-0.4,0.1-0.9,0.3-1.4,0.5l-1,0.4c-0.6,0.2-1.1,0.4-1.4,0.6c-0.3-0.2-0.4-0.6-0.5-1.1
		c-0.1-0.6,0-1.3,0.3-1.9c0.5-1,1.9-1.7,4-1.9c2.8-0.2,3.9,0,4.3,0.2l17.3,8.9l5-2.1l-28-14.5l3.2-6.2l-5.5,1.7l-0.6,1l-0.5,1
		l-1,0.9l-0.7,0.1l-0.7-0.3c-0.4-0.2-0.9-0.3-1.5-0.2l-1.7,0.4l-2.1,0.8l7.3,3.8l5.4,1.9l-1.5,0.1l-4.2,0.4
		c-1.5,0.3-2.6,0.5-3.3,0.9c-0.8,0.4-1.2,0.8-1.5,1.3l-0.4,1.4c-0.2,1.7-0.2,3.2,0.1,4.4c0.2,0.9,0.7,1.9,1.4,3c-0.2,0-0.5,0-0.8,0
		l-1.8,0.2l-1.9,0.6l-0.1,0c-1.3,0.7-2.2,1.7-2.8,3l-3.4,6.5l5.4-1.6l1.8-3.5c0.2-0.3,0.6-0.7,1.1-1.1l0.8-0.5l2.3-0.3
		c0,0.3,0,0.5,0.1,0.8l0.4,2.1l0.7,1.8l0.7,1.3c0.3,0.5,0.8,0.9,1.5,1.3l1.4,0.5l0.1,0c0.2,0,0.4,0,0.6,0c0.2,0,0.4,0,0.6,0
		c0.3,0,0.6-0.1,1-0.1l1.1-0.4l0.7-0.5l0.6-0.8l0.4-1.3l0.2-1.7c0.1-0.9-0.1-1.7-0.5-2.6l0.3,0c1.9-0.5,3.3-1.4,4-2.8
		c0.4-0.7,0.6-1.7,0.6-2.9c0-0.4-0.1-0.7-0.3-0.9C167.4,124,167.3,123.7,167,123.5z"/>
	<path class="st0" d="M192.7,137.9l-1.1,0.3l-1.2,0.5l-3.1,0.9c-0.8,0.2-1.6,0.5-2.3,0.7c-0.4,0.2-0.8,0.3-1.1,0.5l0-8l-6.9-1
		l2.3,3.5l0,11.6l7.7-3.6c0.9-0.4,1.9-0.8,2.9-1.2l3.1-1.1l2.1-0.7l4-0.6l-3.5-1.6C194.8,137.6,193.8,137.6,192.7,137.9z"/>
	<path class="st0" d="M169.7,105.2c1.5,1.3,3.4,2,5.8,2c2.3-0.1,4.1-0.8,5.2-2.2c0.5-0.6,0.9-1.3,1.1-2.2c0.2-0.8,0.2-1.6,0.2-2.3
		l0,0c-0.1-0.5-0.2-1-0.4-1.5c-0.2-0.5-0.3-0.9-0.6-1.2c-0.2-0.4-0.5-0.8-0.7-1.1c-0.3-0.3-0.6-0.7-1-1c-0.8-0.6-1.6-1.1-2.5-1.4
		c-0.9-0.3-1.9-0.4-2.9-0.4c-2,0.1-3.7,0.8-4.9,2.3c-1,1.1-1.5,2.6-1.5,4.3c0,1,0.1,1.9,0.5,2.7C168.4,103.9,169,104.6,169.7,105.2z
		 M172.3,101.3c0-0.6,0.3-1.3,1-2.1c0.2-0.3,0.5-0.5,0.8-0.8c0.3-0.2,0.6-0.3,0.9-0.4c0.3-0.1,0.6,0,0.8,0c0,0,0,0,0,0
		c0.2,0,0.4-0.1,0.5,0c0.2,0.2,0.3,0.3,0.4,0.5c0.1,0.2,0.2,0.4,0.3,0.7c0.1,0.3,0,0.6,0.1,0.9c0,0.4-0.1,0.8-0.1,1.3v0
		c0,0.8-0.1,1.5-0.3,2.1c-0.2,0.5-0.3,0.9-0.6,1.2c-0.4,0.5-1,0.8-2.1-0.2C172.9,103.6,172.4,102.5,172.3,101.3z"/>
	<path class="st0" d="M196.2,108.2l-6.1,0c-1.5,0-2.5,0.1-3,0.1l-3.5,0.3l-6.9,1.1l6.3,5.3l0.3-0.1c0.8-0.3,1.7-0.5,2.7-0.8
		c1-0.3,2.2-0.5,3.4-0.8l3.8-0.8l6.3-1.1l6.1-0.6l-3-2.6L196.2,108.2z"/>
	<path class="st0" d="M205.6,67.5l-5.4-1.3l-3,2.2c-0.2,0-0.4,0.1-0.5,0.1c-0.1,0-0.1,0-0.1,0l-1.1-1l-1.4-1.6l-3.2,0.2l17.9,23.6
		c0,0,0,0,0,0c-0.6-0.2-1.2-0.3-1.9-0.5c-1.6-0.3-3.2-0.4-4.6-0.5l-2.3,0.1l-1.1,0.2l0.2-0.4l0.7-1.8c0.5-1.6,0.7-3.1,0.4-4.4
		c-0.2-1.3-0.7-2.4-1.4-3.4c-0.3-0.4-0.6-0.7-0.9-1c-0.3-0.3-0.7-0.5-1.1-0.7c-0.7-0.3-1.4-0.5-1.9-0.7c-0.6-0.2-1.1-0.3-1.5-0.4
		l-5.3-0.3l-0.5,3.2l-0.7,3.4c-0.1,0.2-0.2,0.4-0.6,0.9c-0.2-0.2-0.3-0.3-0.5-0.4c-0.3-0.2-0.6-0.4-0.9-0.5
		c-0.9-0.2-1.9,0.1-2.9,0.8c-0.9,0.7-1.4,1.6-1.4,2.8c0,0.3,0,0.6,0,0.8c0,0.3,0.1,0.5,0.2,0.7l0.9,1.2c0.4,0.5,0.8,0.9,1.4,1.1
		c0.5,0.2,1.1,0.4,1.6,0.4c0.6,0,1.1-0.1,1.7-0.3c0.6-0.2,1.1-0.5,1.6-0.9c0.6-0.5,1.3-1.2,2-2.2l1.5-2.3l0.8-1.8l0.6-3.2
		c0.5,0,0.8,0.1,1.1,0.3c0.3,0.2,0.7,0.5,1.1,1c0.4,0.5,0.5,1.3,0.4,2.4c-0.1,0.8-0.4,1.6-0.7,2.4c-0.4,0.8-0.8,1.6-1.4,2.4
		l-1.5,1.7l-1.6,1.4l-3.2,2l9.1,2.3l0.2-0.1c1.4-0.8,2.8-1.4,4.4-1.9s3.1-0.8,4.7-1c1.2-0.1,2.3,0,3.3,0.2l1.9,0.5l1.2,0.5l1.8,0.9
		l1.1,0.7l2,0.9l2.5,0.4l-19-25L205.6,67.5z"/>
	<path class="st0" d="M251.4,49l-3.7,0.6l-1-0.8l-0.3-0.5l-0.4-0.9l-0.6-1.7l-2.7-1.5l0.5,1.3c0.1,0.3,0.3,0.8,0.3,1.2l0.2,1.3
		l0.9,3.6l0.8,2.5c-0.8-1.1-1.6-1.9-2.3-2.3c-0.4-0.3-0.9-0.5-1.4-0.7c-0.5-0.2-1.1-0.2-1.6-0.2l-1.6,0l-0.9,0.2l-2.4,0.6l-0.6-0.3
		l-32.4,12.7l5.3,2.3l21.6-8.5l2.1,5.4l-2.6-1.7c-1-0.4-2.2-0.4-3.5,0.1c-0.4,0.3-0.8,0.7-1.2,1.2c-0.4,0.5-0.6,1-0.9,1.6
		c-0.2,0.5-0.4,1-0.4,1.4l-0.6-0.4l-2.1-0.7c-1.6-0.2-3.1,0-4.5,0.5c-0.8,0.3-1.4,0.8-2,1.4c-0.6,0.6-1,1.3-1.4,2.1
		c-0.4,0.8-0.6,1.7-0.7,2.6c-0.1,1,0,1.9,0.2,3l0.6,2c0.6,1.5,1.5,2.8,2.6,3.8c1.4,1,2.8,1.6,4.2,1.8c0.6,0.1,1.3,0.1,2.3,0
		c0.9-0.1,1.8-0.3,2.6-0.6c1.1-0.4,2-1.1,2.6-1.9c0.7-0.8,1-1.8,1-3.1l-0.1-0.6l-0.1-0.2c-0.2-0.4-0.4-0.8-0.7-1.1
		c-0.2-0.3-0.6-0.7-1-1.3c-1.4-1.3-2.8-1.7-4.3-1.1c-0.9,0.3-1.6,1-2,2c-0.5,1-0.6,2-0.2,2.9c0.2,0.5,0.5,0.9,0.9,1.4
		c-0.6,0-1.2-0.1-1.7-0.2c-0.9-0.4-1.5-1-1.8-1.9l-0.3-1.2c-0.1-1.3,0.1-2.4,0.6-3.4c0.6-0.9,1.4-1.6,2.3-2l1.2-0.3
		c1.5-0.2,2.6-0.1,3.3,0.2c0.6,0.2,1.3,0.7,2.2,1.5l1.4,1.4l1.6-1.5l-0.9-1.6l-0.4-1.1l0-0.9c0.1-0.5,0.3-1.1,0.7-1.2
		c0.6-0.2,1.3-0.3,2-0.2l0.5,0.1c0.5,0.1,0.9,0.4,1.4,0.9c0.4,0.3,0.7,0.7,0.8,1l6.2,15.8l5.2,2l-11.6-29.4l5.1-2l1,0.7l0.9-0.2
		c0.9-0.2,1.7,0,2.6,0.3c0.9,0.4,1.6,0.9,2.1,1.4c0.4,0.4,0.7,0.9,1,1.7c0.1,0.1,0.2,0.4,0.3,1l4,22.6l4.5,3.3l-5.7-32l7.3-1.3
		L251.4,49z"/>
	<path class="st0" d="M284.3,48l-4.1,0l0-0.3c0-1.6-0.4-3-1.2-4.3c-0.7-1.1-1.6-1.9-2.7-2.6c-1.2-0.9-3-1.3-5.2-1.4l-5.4,0.1
		l-4.2,0.3l-0.8-0.1l-1.8-0.6c-1.2-0.6-1.4-0.9-1.4-0.8l-0.2-1.2c0-0.9,0.4-1.6,1.2-2.1l1-0.6l-1.5-0.3l-0.1,0l-0.5,0l-0.9,0.1
		l-0.5,0.2l-0.2,0.1c-0.4,0.4-0.7,0.9-0.8,1.4c-0.1,0.2-0.2,0.5-0.3,0.8c-0.1,0.3-0.1,0.7-0.1,1.1c0,0.4,0.1,0.8,0.2,1.3
		c0.1,0.4,0.3,0.9,0.5,1.3c0.2,0.4,0.4,0.8,0.7,1.2c0.3,0.4,0.6,0.7,0.8,0.9c1,1,2.2,1.6,3.5,2c1.3,0.4,2.7,0.6,4,0.6l0.9,0l0.1,0
		c0,0,0.1,0,0.3,0c0.2,0,0.5,0,0.8,0l1.4-0.2l1.9,0l2.5,0c0.5,0,1,0,1.6,0.1c0.5,0.1,1.1,0.2,1.6,0.5c1.1,0.4,1.4,0.7,1.4,0.8
		l-0.2,0.4c-0.5,0.7-1,1.1-1.4,1.1l-1.5,0.1l-0.5,0.1l-21.1-0.2l3.9,4.1l9.4,0.1l0.9,0.8c0.5,0.5,0.6,0.7,0.7,0.8
		c-0.1,0.1-0.3,0.1-0.8,0.3c-0.8,0.3-1.5,0.6-2,0.8c-0.6,0.3-0.9,0.5-1.2,0.7l-1.1,1.3l-0.8,1.1c-0.8,1.3-1.1,2.3-0.9,3.1
		c0.2,1,0.6,1.8,1.4,2.2c0.4,0.2,0.9,0.5,1.3,0.6c0.4,0.1,0.8,0.3,1.2,0.3c0,0,0,0,0.1,0c1.3,0,2.5-0.6,3.6-1.4l1.5-1.6
		c0.7-0.8,1.1-1.8,1.2-2.9c0.1,0,0.2-0.1,0.3-0.1c0.2,0,0.4-0.1,0.6-0.1c0.4,0,1,0.2,1.7,0.5c0.7,0.3,1.1,0.8,1.5,1.6
		c0.2,0.4,0.3,0.7,0.4,1.1c0.1,0.4,0.1,0.8,0.1,1.1c0,0.5-0.1,1-0.3,1.3c-0.7,0.7-1.2,1.2-1.7,1.6c-0.4,0.4-0.8,0.6-1,0.8l-2.8,1.1
		c-0.3,0.1-0.7,0.2-1.1,0.3c-0.5,0.1-1.1,0.1-1.7,0.1l-2.2-0.2l-2.2-0.5c-0.8-0.2-1.5-0.5-2.2-0.8c-0.7-0.3-1.3-0.6-1.9-1l-1.4-0.8
		l4.4,9.3l0.2,0.1c1.4,0.4,2.7,0.8,3.7,1.1c1,0.3,1.9,0.6,2.6,0.9c0.7,0.3,1.5,0.6,2.4,1.1c0.9,0.5,2,1.1,3.3,1.8
		c2.1,1.3,4.1,2.6,5.9,4c1.8,1.4,3.4,3,4.9,4.6l1.3,1.5l-1.4-6.2l-4.7-4.4c-0.7-0.7-1.7-1.5-2.9-2.4c-1.2-0.9-2.6-1.8-4.1-2.7
		l-0.5-0.5c1.1-0.4,2.1-0.8,3-1.3c1.1-0.6,2.1-1.4,2.8-2.1c0.8-0.8,1.4-1.6,1.8-2.5c0.4-0.9,0.6-1.8,0.6-2.6l0.1-0.7
		c0-1.9-0.6-3.8-1.9-5.6c-1.2-1.9-2.8-3.2-4.6-3.7l-1.1-0.3l-1.2-0.5l-0.6-0.6l-0.2-0.6l18.1,0.2L284.3,48z"/>
	<path class="st0" d="M355,83.7l-0.7-5.6l-3.6-2.8l1-2.4l0.5-2.2c0.2-0.7,0.3-1.4,0.4-2.1c0.3-2.3,0.3-4.2-0.2-5.7l-0.9-3.1
		l-0.6-1.3c-0.2-0.4-0.4-0.8-0.7-1.1l-2.7-3.4c-0.4-0.6-0.7-1-1-1.2c-0.3-0.3-0.6-0.5-1-0.8l-0.8-0.6l-1.6-1
		c-2.8-1.6-4.8-2.4-6.3-2.6l-0.1,0l-2.4,0.2c-1,0-1.9,0.6-2.7,1.7c-0.5,0.7-0.8,1.4-0.9,2.2c-0.1,0.8,0,1.6,0.3,2.3
		c0.3,0.8,0.6,1.5,0.9,2.1c0.3,0.7,0.7,1.2,1.1,1.6c0.3,0.4,0.8,0.9,1.3,1.3c0.5,0.4,1.2,1,1.9,1.5l1.3,1l2.3,2.1
		c0.9,1.3,0.6,2.1,0.4,2.4c-0.3,0.3-0.6,0.7-0.9,0.7h0l-35.4-16.3l2,5.3l10.6,4.8l-1.3,0.5c-0.9,0.4-1.6,0.8-2.2,1.2
		c-0.6,0.4-1,0.8-1.3,1.1c-0.6,0.5-1.1,1.3-1.5,2.2c-0.6,1.3-0.8,2.8-0.7,4.4c0.2,0.9,0.4,1.7,0.6,2.4c0.2,0.7,0.5,1.3,0.8,1.8
		c0.4,0.5,0.8,0.9,1.3,1.2c0.4,0.3,0.9,0.6,1.3,0.8l0.8,0.4l1.6,0.4l2.6,0.2l0.6,0.1c0.5,0.3,0.5,0.6,0.4,0.9l0,0.1l0,0.1
		c0,0.5,0,0.9-0.2,1.2c-0.4,0.9-1.4,1.4-2.9,1.5c-0.8,0-1.6,0-2.3-0.1c-0.7-0.1-1.4-0.4-2-0.6l-1.2-0.7c-0.3-0.2-0.6-0.4-0.9-0.8
		c-0.3-0.3-0.6-0.8-1-1.4c-0.3-0.6-0.8-1.5-1.2-2.6c-0.7-1.7-1-3.5-0.8-5.3l0.6-3.5c0.1-0.4,0.3-1.1,0.7-2l0.5-1.1
		c0.4-0.8,0.5-1.4,0.5-2l-0.2-0.8l-1.1-2.2l-0.7,1l-2.3,5.4c-0.4,1.1-0.7,2.1-0.9,3c-0.2,1-0.4,1.8-0.4,2.6l-0.2,2.8
		c0,1.7,0.2,3.3,0.4,4.5c0.2,1.1,0.5,2.1,0.9,3c0.4,0.9,0.8,1.7,1.4,2.4c1.2,1.5,2.6,2.7,4.2,3.4c0.5,0.2,1.1,0.4,1.8,0.5
		c0.7,0.1,1.3,0.2,1.9,0.2c0.7,0,1.4-0.1,1.9-0.2c0.6-0.1,1.1-0.2,1.5-0.4c1.1-0.4,2.2-1.3,3.3-2.7c0.4-0.3,0.7-0.7,1-1.4
		c0.4-0.9,0.7-2.1,0.8-3.9c0.1-0.8,0.1-1.6,0-2.2c0-0.7-0.1-1.3-0.3-1.8l-0.3-1.4c-0.2-0.6-0.5-0.9-0.8-1.1
		c-0.2-0.2-0.5-0.5-1.2-0.5l-3.9,0.1c-0.9,0.1-1.2,0-1.5-0.1l-0.9-0.2c-0.6-0.3-0.9-0.6-1.1-0.9c-0.1-0.3-0.1-0.8,0.1-1.3l0.3-0.5
		c1.1-1.2,2.5-2.2,4-3c1.5-0.7,2.1-0.8,2.2-0.7l0.6,2.7c0.2,0.7,0.5,1.4,1,2.2c0.5,0.7,1,1.4,1.7,2c0.6,0.6,1.4,1.2,2.2,1.8
		c0.8,0.5,1.6,1,2.4,1.4l1.5,0.6l0,0c-0.3,0.3-0.6,0.6-0.9,0.9c-0.5,0.5-0.9,1.1-1.4,1.7c-1.3,1.7-2.3,3.2-2.9,4.5l-0.7,2.1
		l-0.7,2.7l-1.6,7.6l0.1,0.1c0.1,0.2,0.3,0.6,1.2,1.4c0.1,0.1,0.3,0.3,0.6,0.4c0.2,0.1,0.5,0.3,0.8,0.4l0.7,0.3l0-0.8
		c0-1.8,0.1-3.4,0.4-4.8c0.2-1.4,0.6-2.6,1.1-3.6l0.6-1.3l1.3-2c0.7-1.6,2.1-3.1,4.2-4.6c1.7-1.2,3-1.9,4-2.3l0.5-0.2l-2.5-6.9
		l-3.3-0.3c-0.9,0-1.2-0.1-1.3-0.2l-1.8-0.7l-1.9-1.1l-1.3-1.3c-0.7-1.1-0.8-2-0.4-2.7l1.8-0.1l16,7.3l0,1.6l3.8,2.9l-16.6,22
		l-0.1,0.2l0.8,5.5l19.1-25.3L355,83.7z M343.2,67.5l0.7-1.3L344,64c0-1.1-0.3-2-0.9-2.8l-1.8-2c-0.8-1-2.1-2.2-3.7-3.4l-2.8-2.4
		l-1-1.4c-0.2-0.3-0.3-0.5-0.2-0.6l0.3-0.2l0.2,0l1.7,0.2c0.4,0.1,0.8,0.2,1.1,0.3l0.1,0c0.5,0.1,0.9,0.2,1.2,0.4
		c0.3,0.2,0.7,0.4,1.1,0.7l1.2,0.9l1.2,0.8l2.2,2l1.9,2.1c0.6,0.9,1.1,1.6,1.5,2.3c0.4,0.6,0.8,1.2,1,1.7c0.6,1.3,0.9,2.8,0.9,4.4
		c0.1,0.5,0,0.9-0.1,1.2l-0.2,1.4c-0.1,0.4-0.1,0.8-0.2,1.2c-0.1,0.4-0.2,0.7-0.3,1l-0.6,1.6l-5.6-4.3l0,0L343.2,67.5z M340.9,69.8
		l0.1,0.1l0.2-0.2l0,1.1L340.9,69.8z"/>
	<path class="st0" d="M349.6,113.7l-0.9,2.8L348,118l-0.9,4.3l23.7-22l4.3,4.6l0.3-5.6l-20.1-21.7l-0.3,5.6l13.1,14.1l-0.9,0.8
		l-2.4-1.3l-2.5-1.1l-5.5-2.1l-4.3-1.3l-4.8-1.1l-1.6,7.3l0.2,0.2c0.4,0.4,0.8,0.9,1.1,1.4c0.3,0.5,0.6,1,0.9,1.5l1.2,4.1
		c0.2,0.9,0.4,1.7,0.5,2.4c0.1,0.7,0.1,1.2,0.1,1.7c0,0.5-0.1,1-0.2,1.6C350,112.2,349.8,112.9,349.6,113.7z M353.3,103.8
		c-0.1-0.7-0.2-1.4-0.3-2.1c-0.1-0.7-0.3-1.5-0.5-2.2c-0.1-0.4-0.2-0.8-0.3-1.1l1.7,0.4l3.1,0.9c1.2,0.4,2.4,0.8,3.5,1.3
		c0.9,0.4,1.7,0.8,2.5,1.2l-10,9.2c0.1-0.3,0.1-0.5,0.1-0.8c0.1-0.7,0.2-1.4,0.2-2l0.1-2.8C353.4,105.1,353.3,104.4,353.3,103.8z"/>
	<path class="st0" d="M377.6,101l-1.6,5.5l9.8,17.9l-11.8,6.5c0.3-0.6,0.8-1.4,1.3-2.4c1-1.8,1.5-3.5,1.7-5c0.2-1.1,0.2-2.1,0-2.8
		c-0.1-0.8-0.2-1.3-0.4-1.7l-0.6-1.1c-0.5-0.9-1.2-1.8-2-2.4c-0.8-0.7-1.6-1.1-2.5-1.4c-0.9-0.3-1.9-0.4-2.9-0.3c-1,0.1-2,0.4-3,0.9
		l-1.1,0.8c-1.2,1.2-2,2.1-2.3,3c-0.2,1,0,2.1,0.4,3.1l0.6,1.5c1,1.7,2.3,2.6,3.9,2.5c0.6,0,0.9-0.1,1.2-0.2c0.1,0,0.3-0.1,0.4-0.1
		c0.2-0.1,0.4-0.2,0.7-0.4c1-0.5,1.8-1.6,2.6-3.2c0.5,1.2,0.6,2.7,0.2,4.7l-0.7,2.5c-0.2,0.7-0.6,1.4-0.9,1.9
		c-1.3,1.8-2.9,3.7-4.6,5.4c-0.9,0.9-1.7,1.7-2.5,2.3c-0.8,0.6-1.5,1.2-2.2,1.5l-1,0.4l-1.4,3.2l28.5-15.7l2.9,5.3l1.6-5.6
		L377.6,101z"/>
</g>
<g>
	<g>
		<path class="st2" d="M156.8,307.7l-2-3.6l0.4-1l0.3-0.5l0.7-0.6l1.7-1.3l0.7-4.8l-2,1.8c-0.3,0.2-0.6,0.5-1.1,0.7l-1.3,0.7
			l-3.4,2.2l-0.5,0.4c0.2-0.5,0.4-1.1,0.5-1.5c0.1-0.5,0.2-1.1,0.2-1.8c0-0.7-0.2-1.3-0.5-2l-0.6-1.5l-0.5-0.9l0.2-0.3l0.6-0.2
			c0.6-0.2,1.1-0.6,1.5-1.2l0.9-1.6l1.3-3.3l-7.2,2.5l-0.1-0.2l-0.1,0.3l-1.9,0.7l-3.8,2l2.5-3.4c0.9-1.5,1.5-2.6,1.8-3.5
			c0.3-1,0.3-1.7,0.1-2.3l-0.9-1.6l-0.1-0.1c-1.2-1.6-2.5-2.7-3.7-3.4c-0.8-0.5-1.7-0.8-2.9-1.1c0,0,0.1-0.1,0.1-0.1l1.1-1.6
			l1.1-2.2l0.1-0.2c0.3-1.7,0.3-3.3-0.3-4.8l-0.8-2.3l0.7-0.9l-2.7-19.9l1.5-32.7l-5.2,4.9l-1.3,0.9l-1.3,2.5l-0.8,2.2l0,0.1
			c-0.4,1.6-0.8,2.8-1.3,3.7l-1.1,1.7l-2-2.9l-2.6-3.4l-3.3-3.8l-6.9,5.2l0,0.5c-0.1,2.5-0.5,4.3-1,5.6c-0.3,0.6-0.7,1.3-1.2,2.1
			c-0.6,0.8-1.3,1.6-2.2,2.6c-1.5,1.6-2.9,2.7-4.3,3.4c-1.5,0.8-2.8,1.4-3.9,1.8l-0.2,0.1l-3.3,3.2l35,1.7l-0.3,6.8l0.9-0.9l0.6,4.7
			c-0.8-0.5-1.6-0.9-2.3-1.3c-1.3-0.7-2.7-1.2-4-1.7c-3.5-1.1-4.7-1.1-5.3-1l-2.6,0.1l-1.8,0.2c-1.3,0.2-2.5,0.4-3.7,0.8
			c-1.2,0.4-2.4,0.8-3.6,1.4c-3.1,1.6-5.5,3.8-7.1,6.4c-0.5,0.8-0.9,1.8-1,2.9c-0.1,1-0.1,2.1,0,3.1c0.1,0.8,0.4,1.7,0.8,2.6
			l0.1,0.1c0.5,0.7,1,1.3,1.5,1.8c0.5,0.5,1.1,0.9,1.6,1.1c0.6,0.3,1.1,0.4,1.7,0.5c0.2,0,0.5,0,0.7,0c0.3,0,0.6,0,0.9-0.1
			c0.5-0.1,1-0.2,1.5-0.4c0.4-0.2,0.8-0.5,1.2-0.8c0.4-0.3,0.7-0.6,0.9-1c0.3-0.4,0.5-0.8,0.6-1.2l0.2-1c0.2-0.5,0.2-1,0.1-1.6
			l-0.8-1.8l-0.1-0.1c-0.9-1.4-2.3-2.2-3.8-2.2l-0.1,0l-1,0.1l-0.2,0.1c-0.5,0.2-0.9,0.4-1.2,0.6c0.5-1,0.9-1.8,1.2-2.3
			c0.2-0.3,0.5-0.6,0.8-0.8c0.3-0.3,0.7-0.5,1.1-0.8c0.4-0.2,0.8-0.5,1.2-0.6c0.4-0.2,0.8-0.3,1.1-0.4l2.4-0.5l2.3-0.2l3,0l3.9,0.4
			c1.3,0.3,2.6,0.8,3.6,1.4c1.1,0.6,2.1,1.4,3,2.3c0.7,0.7,1.7,2.1,2.9,4.1l0.6,1.1l1.5,4.1c0.1,0.2,0.2,0.7,0,1.6l-0.2,0.9
			l-1.1,1.5c-0.1-0.1-0.2-0.2-0.4-0.3l-1.9-1.2l-2-0.9l-1.6-0.5l-0.1,0c-0.7-0.1-1.5-0.1-2.3,0.2l-1.6,0.8l-0.2,0.2
			c-0.3,0.4-0.6,0.7-0.9,0.9c-0.2,0.3-0.5,0.6-0.6,0.9l-0.5,1.4l-0.1,1.3l0.2,1l0.7,1.4l1.3,1.6c0.6,0.7,1.3,1.2,2.2,1.6
			c-1,2-1.3,3.9-0.7,5.6c0.3,0.9,0.9,1.9,1.9,2.8l0.1,0.1c0.4,0.3,0.7,0.5,1.1,0.6c0.3,0.1,0.7,0.1,1.1,0.1l1.4,0
			c0.2,0,0.4,0,0.6-0.1c0.2,0,0.5-0.1,0.9-0.3c0.8-0.3,1.5-0.8,2.1-1.5c0.3-0.3,0.6-0.8,0.9-1.3c0.3-0.5,0.5-1,0.7-1.6l0.4-1.2
			c0.2-0.5,0.4-0.9,0.5-1.3c0.2,0,0.4,0.1,0.6,0.3c0.5,0.3,0.9,0.8,1.1,1.5c0.4,1.1-0.1,2.5-1.4,4.3c-2.1,2.7-2.9,3.1-3.1,3.2
			l-20.2,7.1l-2.4,6.8l32.8-11.5l1.7,4.8c-0.1,0.6-0.3,1.2-0.5,1.7c-0.2,0.4-0.6,0.9-1.2,1.4l-0.1,0.1c0,0-0.2,0.2-0.8,0.6
			l-21.9,12.3l-2.1,7.2l31.3-17.6l1.1,1.9l-0.1,1.2l2.9,3.6l0.6,1.1l0.1-0.2l9,11.4l-0.4,0.3l-5-3.1l-5.7-2.9
			c-0.8-0.3-1.5-0.7-2.3-1l-2.4-0.9l-5.5-1.9l-2.3,8.7l0.3,0.4c1.1,1.4,1.9,3,2.3,4.7l0.7,3.4c0.2,1.3,0.2,2.7,0,4.1
			c-0.1,0.9-0.2,1.6-0.4,2.3c-0.1,0.6-0.3,1.2-0.5,1.6l-2.4,5.8l-0.4,4.4l27.3-21.5l4.2,5.3l0.7-7.7l-15.5-19.6L156.8,307.7z
			 M114.2,234.6l1.8-2.3l1-1.5c0.4-0.5,0.7-1.1,0.9-1.7c0.1-0.1,0.1-0.2,0.2-0.4l1.5,1.5c1.2,1.3,1.5,1.7,1.5,1.8l0.1,0.1
			c0.2,0.3,0.5,0.7,0.7,1l3.1,3.5l0.7-0.4c0.4-0.2,0.7-0.5,1.1-0.8c0.3-0.3,0.7-0.6,1-0.9l1.6-1.3l1.9-2l0.7-0.9l-0.4,8.5l-21.4-1
			l1.3-1L114.2,234.6z M148.2,329.3c0-0.3,0-0.6,0-0.8c0-0.2,0-0.4-0.1-0.6c0-0.2-0.1-0.4-0.1-0.7l-0.3-1l1.3,0.4l3.2,1.2l3.6,1.7
			l1.4,0.8l1,0.7l-10.6,8.3c0.1-0.2,0.1-0.4,0.2-0.7l0.6-4.2l0.1-2.7L148.2,329.3z"/>
	</g>
	<g>
		<path class="st2" d="M141.6,337.7c0.2-0.5,0.4-1.1,0.4-1.7c0-0.6,0-1.1-0.2-1.7c-0.2-0.6-0.4-1.1-0.8-1.5
			c-0.9-1.2-2.2-1.7-3.7-1.6c-0.4,0-0.8,0.1-1.1,0.2c-0.4,0.1-0.8,0.3-1.1,0.6c-0.5,0.4-1,0.9-1.2,1.5c-0.3,0.6-0.4,1.2-0.4,1.8
			c0,0.6,0,1.2,0.2,1.7c0.2,0.6,0.4,1.1,0.8,1.5c0.8,1,1.9,1.5,3.1,1.5c0.2,0,0.5,0,0.7-0.1l1.2-0.3c0.1,0,0.3-0.1,0.5-0.2
			c0.2-0.1,0.4-0.2,0.6-0.4C141,338.8,141.3,338.3,141.6,337.7z"/>
	</g>
	<g>
		<path class="st2" d="M230.3,393.5c-0.3-0.5-0.8-0.9-1.3-1.3c-0.5-0.4-1.1-0.6-1.7-0.7c-0.5-0.1-0.9-0.1-1.5-0.1
			c-0.5,0-1.1,0.2-1.6,0.4c-0.5,0.2-1,0.6-1.4,1.1c-0.4,0.5-0.7,1.1-0.9,1.8c-0.1,0.6-0.2,1.2,0,1.9c0.1,0.6,0.4,1.1,0.7,1.7
			c0.3,0.5,0.7,0.9,1.2,1.3c0.5,0.4,1.1,0.7,1.7,0.8c0.3,0.1,0.7,0.1,1,0.1c1.1,0,2.1-0.4,3-1.3l0.1-0.1c0.7-0.8,1.1-1.5,1.3-2.2
			c0.1-0.6,0.1-1.2,0-1.8C230.9,394.5,230.6,394,230.3,393.5z"/>
	</g>
	<g>
		<path class="st2" d="M375,341.3c1-0.2,1.9-0.3,2.9-0.2l0.1,0c0,0,0,0,0,0c1.1,0,2.1,0.3,3.2,1c0.1,0.1,0.3,0.2,0.4,0.3
			c-0.8,0.2-1.5,0.5-2.1,1l-1.7,1.9l-0.2,1.8c0,0.3,0,0.7,0,1c0,0.3,0.1,0.6,0.3,0.9l0.7,1.3l1.1,1l1.4,0.5l0.2,0.1
			c1.9,0.3,3.5-0.1,4.7-1.1c0.7-0.6,1.2-1.2,1.6-2c0.4-0.8,0.6-1.6,0.7-2.5c0.1-0.9-0.1-1.7-0.3-2.6c-0.3-0.9-0.7-1.7-1.4-2.5
			c-2.8-3.4-6.5-5.2-11.1-5.2c-3.4-0.1-6.1,0.6-8,2l-0.2-0.3l14.4-11.8l-7.5-0.7l-27.1,22.2l-0.3-0.1l-2.8,1.4l-0.1-0.1
			c-0.2-0.3-0.4-0.7-0.7-1.1c-0.3-0.4-0.6-0.8-1.1-1.3l-0.1-0.1c-0.9-0.7-1.9-1.2-2.9-1.6c-1-0.4-2-0.6-2.9-0.6
			c-0.6-0.1-1.3-0.1-2,0c-0.1,0-0.1,0-0.2,0c-0.5-0.2-1.1-0.3-1.6-0.3c-0.5-0.1-1.1-0.1-1.6-0.2l-3.3-0.2c-1.8-0.1-3.4,0-4.8,0.2
			c-1.4,0.2-2.7,0.5-4,0.9c-1.8,0.6-3.2,1.4-4.2,2.4l-0.3-0.7l-1.5,1.6c-0.6,0.5-0.7,0.9-0.7,1.3c0,0.2,0,0.3-0.1,0.4
			c-0.6,0.7-1,1.2-1.3,1.7l-0.1,0.1c-0.2,0.4-0.4,1.1-0.7,2l-0.8,3.2l-0.1,1.4c-0.1,0.6,0,1.3,0.3,2c0.3,0.9,0.8,1.5,1.4,1.8
			l1.7,0.9l-5.9,2.1l-24.1,4.7l-0.5-0.5l-17.7,0.5l-0.2-0.2l-4.1-0.4l-0.6-0.9l-0.2-0.5l-0.1-0.9l-0.2-2.1l-3.6-3.3l0.3,2.7
			c0,0.4,0,0.8,0,1.3l-0.1,1.5l-0.1,4.1l0,0.6c-0.3-0.5-0.6-0.9-1-1.3c-0.4-0.4-0.8-0.8-1.3-1.1c-0.6-0.4-1.2-0.6-1.9-0.7l-1.6-0.4
			l-1.2-0.1l-1.3,0l-22.9-5.5l-0.3-0.8l-3.9-1.6l-0.3-1.1l0-0.6l0.1-0.9l0.5-2.1l-2.4-4.2l-0.5,2.7c-0.1,0.4-0.2,0.8-0.4,1.2
			l-0.6,1.4l-1.3,3.9l-0.2,0.6c-0.2-0.6-0.3-1.1-0.6-1.5c-0.2-0.5-0.5-1-0.9-1.5c-0.4-0.5-1-0.9-1.6-1.2l-1.4-0.8l-1.2-0.5l-2-0.6
			l-29.4-18.4l1.7,7.3l1.3,0.8l-2.7,5.5c-0.7,1.7-1.3,3.1-1.7,4.3c-0.5,1.2-0.8,2.1-0.9,2.8l-1,5.2l-0.2,5c0,1.3,0,2.2,0.1,2.8
			c0.6,3.7,2.4,6.5,5.3,8.3c1.4,0.9,2.8,1.6,4.2,2.1c1.4,0.5,2.8,0.9,4.3,0.9c0.1,0,0.1,0,0.2,0c2.7,0,4.9-0.8,6.8-2.3
			c1.7-1.5,3.1-3,4-4.5c1-1.6,1.7-3.4,2-5.5c0.1-0.7,0.1-1.5,0.1-2.2c0-0.7-0.1-1.4-0.1-2l-0.4-2.1c-0.1-0.6-0.4-1.2-0.9-1.9
			l-0.4-0.6l-1.9,0.5l-1.1,0.4c-0.7,0.3-1.4,0.6-2.2,0.8c-0.8,0.2-1.6,0.3-2.5,0.3c-1.1,0-1.9-0.1-2.4-0.2l5.6-9l16.4,10.2
			c0.3,0.6,0.5,1.1,0.7,1.7c0.1,0.5,0.1,1.1-0.1,1.9l0,0.2c0,0,0,0.3-0.3,0.9l-9.5,23.3l2.8,6.9l13.6-33.3l1.8,0.7l0.6,0.9
			c0.2,0.4,0.4,0.7,0.5,1c0.2,0.3,0.4,0.6,0.6,0.9c0.6,0.6,1.3,1.2,2.1,1.7c0.8,0.5,1.8,1,2.8,1.4c1,0.4,1.7,0.7,2.4,1.1
			c0.6,0.3,1,0.7,1.2,1c0.1,0.2,0.2,0.4,0.3,0.5l-3,1.3l-3.8,1.9l-4.5,2.5l3.7,7.8l0.5,0.1c1.1,0.3,2.1,0.6,3,0.9
			c0.8,0.3,1.6,0.7,2.3,1.2c0.7,0.5,1.3,1.1,2,1.7c0.6,0.7,1.3,1.5,2,2.5c0.6,0.9,1.1,1.7,1.5,2.5c0.4,0.8,0.7,1.5,0.9,2.3
			c0.3,0.6,0.5,1.3,0.6,2.1c0.2,0.8,0.3,1.6,0.4,2.3l0,0.2l2.4,4l8.3-34.4l5.1,1.2c0.7,0.6,1.3,1.2,1.7,1.9c0.3,0.4,0.4,1,0.5,1.8
			l0,0.2c0,0,0.1,0.3,0,1l-2.2,25.1l4.8,5.8l3.1-35.8l2.5,0.2l0.4,0.3l2.6-0.1l3.4,0.3l-0.3-0.4l2.7-0.1c-0.6,0.7-1.1,1.5-1.5,2.2
			c-0.8,1.3-1.5,2.5-2.1,3.8c-1.5,3.4-1.6,4.6-1.6,5.1l-0.1,2.6l0,1.8c0,1.3,0.2,2.5,0.4,3.8c0.2,1.2,0.6,2.5,1,3.7
			c1.3,3.3,3.1,5.9,5.6,7.8c0.8,0.6,1.7,1,2.8,1.3c0.9,0.2,1.9,0.3,2.8,0.3c0.1,0,0.2,0,0.3,0c0.8,0,1.7-0.2,2.7-0.5l0.1,0
			c0.8-0.4,1.4-0.8,2-1.3c0.5-0.5,1-1,1.3-1.5c0.3-0.5,0.5-1.1,0.7-1.6c0.1-0.5,0.2-1.1,0.2-1.6c0-0.5-0.1-1-0.3-1.5
			c-0.2-0.5-0.4-0.9-0.6-1.3c-0.3-0.4-0.6-0.7-0.9-1c-0.4-0.3-0.7-0.5-1.1-0.7l-1-0.3c-0.4-0.2-1-0.3-1.6-0.3l-1.9,0.6l-0.1,0.1
			c-1.5,0.8-2.4,2-2.6,3.6l0,0.1l0,1l0,0.2c0.1,0.5,0.3,0.9,0.5,1.3c-0.9-0.6-1.6-1.1-2.1-1.5c-0.3-0.3-0.5-0.6-0.7-0.9
			c-0.2-0.4-0.5-0.8-0.6-1.2c-0.2-0.4-0.4-0.9-0.5-1.3c-0.1-0.4-0.2-0.8-0.3-1.1l-0.3-2.5l0-2.3l0.4-3l0.8-3.9
			c0.4-1.3,1-2.5,1.7-3.5c0.7-1,1.6-1.9,2.6-2.7c0.8-0.6,2.3-1.4,4.4-2.4l3-1.3l18.8-3.7l0.1,0.5l-2.4,1.3l-2.5,1.7l-5.3,3.9
			l-3.8,3.3l-4.2,4.2l6.5,6.1l0.5-0.1c0.6-0.1,1.3-0.2,2-0.2c0.6,0,1.3,0,1.9,0.1l2.3,0.6l2.3,0.7c1,0.3,1.8,0.6,2.5,0.9
			c0.7,0.3,1.2,0.6,1.6,0.8c0.4,0.3,0.9,0.6,1.4,1c0.5,0.4,1.1,0.9,1.6,1.5l2.1,2.4l1,1.5l4.6,4.2l-6.9-35.4l7-1.4l9.6,27.8l6.7,2.6
			l-11.5-33.3l1.7-0.6l0.9,0.4l3.1-1.5l8.9,17.7l1.2,1.8l0.1,0.2c0.5,0.5,1,0.9,1.5,1.3c0.6,0.4,1.2,0.7,1.9,1.1
			c1.1,0.5,2,0.8,2.6,0.9c0.3,0,0.6,0,0.8,0c0.8,0,1.4-0.1,1.9-0.4l0.5-0.3l1.6-1.1c1-0.7,1.8-1.6,2.3-2.6c0.7-1,1.3-2.1,1.9-3.4
			c0.6-1.2,1.1-2.6,1.6-4.2c0.3-0.9,0.5-1.8,0.6-2.6c0.1-0.9,0.1-1.7,0.1-2.6c-0.1-0.8-0.3-1.7-0.5-2.6c-0.3-0.9-0.6-1.7-1.1-2.7
			l-1.3-2l-1.5-1.3l-0.1-0.1c-1.8-1-3.6-1.4-5.2-0.9c-0.1,0-0.3,0.1-0.5,0.1s-0.5,0.2-0.7,0.3c-1.1,0.5-1.9,1.3-2.5,2.3
			c-0.6,1-0.8,2.3-0.5,3.8l0.4,1.2l0,0.1c0.7,1.3,1.7,2.1,3.1,2.4c1.2,0.2,2.4,0,3.5-0.5c0.1,0.9,0.1,1.8-0.1,2.7
			c-0.3,1.3-0.6,2.4-1,3.4c-0.3,1-0.7,1.8-1.1,2.4c-0.4,0.6-0.7,1.1-1.1,1.5c-0.4,0.4-0.7,0.6-1,0.8c-0.5,0.2-0.9,0.3-1.2,0.3
			c-0.4-0.2-0.7-0.5-0.8-0.8l-9.5-18.9l15.3-7.7l1.7,0.1l3.1-2.5l2.3-1.2l-0.6-0.3l10.8-8.8l0.5,0.6c-1.4,2.2-2.5,4.1-3.3,5.6
			c-0.9,1.7-1.8,3.9-2.7,6.4c-0.5,1.5-1,2.9-1.3,4.1c-0.4,1.2-0.7,2.4-0.9,3.4l-0.3,1l8.6,1.6l0.3-0.2c0.8-0.5,1.5-0.9,2.1-1.2
			c0.6-0.3,1-0.5,1.4-0.6l2.3-0.7l2-0.4c1.3-0.3,3.2-0.2,5.5,0.3c1.2,0.2,2.1,0.4,2.9,0.7c0.7,0.2,1.3,0.5,1.8,0.7l2.8,1.7l4.3,0.4
			l-17.6-21.5C372.7,342.1,373.8,341.5,375,341.3z M186.8,355.8l-3,5.1l0,0.2c-0.2,1.8-0.3,3.1-0.2,3.9l0,0.1
			c0.2,0.6,0.4,1.2,0.8,1.7c0.4,0.5,0.8,1,1.4,1.3c1.2,0.7,2.6,1.1,4.3,1.1c0.5,0,1.2,0,1.9-0.1c0.6-0.1,1.3-0.2,2.1-0.3
			c1.1-0.2,2-0.4,2.7-0.6c0,0.3,0,0.6,0,0.8c-0.2,0.8-0.3,1.2-0.4,1.4l-0.4,0.7c-0.5,0.4-0.9,0.8-1.4,1.2c-0.5,0.4-1,0.7-1.6,0.9
			c-0.5,0.2-1.1,0.4-1.7,0.5c-0.7,0.1-1.4,0.1-2.2,0c-0.7-0.1-1.5-0.2-2.2-0.5c-0.8-0.3-1.5-0.6-2.2-1c-0.8-0.5-1.5-1.1-2-1.7
			c-1.3-1.6-2.1-2.9-2.3-3.9l-0.4-3c-0.1-0.7-0.1-1.6-0.1-2.5c0.1-0.9,0.2-2,0.4-3.3l0.3-2.2c0.1-0.4,0.2-0.8,0.3-1.1
			c0.1-0.4,0.2-0.8,0.3-1.1c0.3-1.1,0.6-2.1,1-3c0.4-0.9,0.8-1.7,1.2-2.4l0.3-0.5l-1.5-2.6l8.3,5.2L186.8,355.8z M374,355.9
			c-0.8-0.2-1.6-0.3-2.4-0.3c-0.5,0-0.9,0-1.4,0c-0.3,0-0.5,0-0.8,0l-2,0.1l-0.6,0.1c-0.2,0-0.4,0.1-0.6,0.1c-0.6,0-1.2,0.2-1.8,0.3
			c-0.1,0-0.2,0.1-0.4,0.1l1-3.3l1.6-3.8c0.3-0.8,0.8-1.7,1.3-2.6l8,9.7C375.2,356.2,374.6,356.1,374,355.9z M305.9,389.7l-2.7-1.7
			c-0.8-0.4-1.5-0.8-2.2-1.1c-0.7-0.3-1.4-0.6-2.2-0.9c-0.8-0.3-1.6-0.6-2.4-0.8c-0.2,0-0.3-0.1-0.5-0.1l3.5-3.1
			c1.1-0.9,2.1-1.7,3.3-2.5c0.7-0.5,1.4-0.9,2.1-1.3l2.5,12.6C306.9,390.4,306.4,390,305.9,389.7z M324,348.5l-3.6,2.1l-1.3,0.4
			c0.5-0.5,1.1-0.9,1.7-1.2c1-0.6,2-1.1,2.9-1.4l1.2-0.3L324,348.5z M315.9,357.9l0.6-2.1c0.4,0.2,0.7,0.3,1,0.3
			c1.5,0.5,3.1,0.5,4.7,0.2c1.6-0.3,3-0.8,4.4-1.5l0.9-0.4l0.3-0.2c0.1-0.1,0.1-0.1,0.3-0.2c0.2-0.1,0.4-0.2,0.7-0.4l1.5-1l1.8-0.9
			l2.5-1.3c1.2-0.6,2.3-0.9,3.3-0.9c0.5,0.1,0.7,0.2,0.8,0.3c0.2,0.2,0.4,0.5,0.6,0.8l0.1,0.3l-16.1,8.1l-0.4-0.2l-5.6,1.9l-1.5-1.5
			C315.8,358.9,315.8,358.5,315.9,357.9z M234.5,388.2c-0.6-0.8-1.2-1.5-1.7-2.1c-0.6-0.6-1.1-1.2-1.7-1.5l-1.2-0.9l-0.6-0.4l2-1.3
			l2.2-1.3l2.9-1.5l2.1-1.3l-2.1-4.1l-1.7-2.7c-0.2-0.5-0.5-0.9-0.7-1.3l7.9,1.9l-5,20.7l-0.5-1L234.5,388.2z M315,367.1l0.3-0.1
			l0.1,0.4L315,367.1z"/>
	</g>
	<g>
		<path class="st2" d="M416.4,242.6l29.2,1.7l4.9-5.2l-35.1-2l0-0.5l1.4-1.9l-0.1-1l1.1-0.4c1.3-0.5,2.3-0.8,3.2-1.2
			c0.9-0.4,1.6-0.7,2.2-1l7.5-4.3l1.2-0.8l1.6-1.2l3.7-3.1l2.5-2.7l1.1-1.4c0.3-0.5,0.6-1,0.8-1.6c0.2-0.6,0.5-1.2,0.7-2
			c0.5-1.9,0.7-3.7,0.5-5.4c-0.3-2.4-0.5-3.2-0.7-3.5l-0.9-1.7l-1.7-2.6l-0.1-0.1c-1.6-1.7-3.2-2.9-5-3.6c-2-0.8-4.3-1.1-6.6-0.8
			c-1.4,0.2-2.8,0.6-4.3,1.3l-2,1.1l-2.5,1.9l-0.1,0.1c-1.2,1.1-2.1,2.4-2.8,3.7c-0.7,1.3-1.1,2.8-1.3,4.4l0,1.7l0.1,1.6
			c0.1,1.2,0.5,2.3,1.1,3.4c0.6,1.1,1.3,2,2.2,2.7l1.6,1.1l0.1,0.1c1.2,0.6,2.5,0.9,3.9,0.7l1.3-0.3l0.1,0c1.6-0.6,2.7-1.2,3.5-2
			c0.6-0.7,1.1-1.5,1.4-2.3c0.3-0.8,0.4-1.7,0.3-2.7l-0.2-1.1l-0.4-1.3l0-0.1c-0.5-1.3-1.4-2.3-2.5-2.8c-1.1-0.5-2.2-0.7-3.5-0.6
			c-1.1,0.1-2.1,0.5-3,1.1c0-0.2-0.1-0.4-0.1-0.6c0-0.3,0-0.5,0-0.7c0-0.2,0-0.3,0.1-0.4l1-1.9c0.5-0.6,1-1.1,1.6-1.5
			c0.9-0.5,1.2-0.6,1.3-0.6l0.3-0.1c0.1,0,0.2-0.1,0.2-0.1c0.1,0,0.2,0,0.3-0.1l0.7-0.1c0.4,0,0.7-0.1,1.1,0c0.4,0,0.7,0.1,1.1,0.2
			l1.6,0.7c0.4,0.2,0.7,0.3,1,0.5c0.2,0.1,0.4,0.2,0.6,0.4c0.7,0.6,1.4,1.3,1.8,1.8c0.5,0.6,0.8,1.1,1,1.5l0.7,1.7l0.4,2l0,1.9
			l-0.4,2.1l-1.2,2.2c-0.2,0.3-0.4,0.7-0.7,1.1c-0.3,0.4-0.7,0.8-1.2,1.3l-2.2,2.2l-3.7,2.9l-5.3,3.5l-3.7,2.2l-0.6,2.4l-5-39.2
			l-4.6,6.4l1.3,10.3l-1.9,0.6l-1.5,1.3c-1,0.9-1.8,1.8-2.5,2.6c-0.7,0.8-1.3,1.5-1.7,2.2c-0.3,0.4-0.7,0.9-0.9,1.3
			c-0.3,0.5-0.5,0.9-0.8,1.4l-1.4,2.9c-0.7,1.6-1.3,3.1-1.6,4.5c-0.3,1.4-0.6,2.7-0.6,4c-0.1,1.9,0.1,3.6,0.6,5
			c0.5,1.2,0.9,2.2,1.4,3.1c0.4,0.9,0.8,1.6,1.2,2.1l0.1,0.1c0.3,0.4,0.8,0.8,1.6,1.4l2.7,2l1.3,0.6c0.5,0.3,1.2,0.4,2,0.5
			c1,0.1,1.7-0.2,2.2-0.6l1.5-1.3l-0.4,6.6l-0.3,1.3l-2.3,0l-1.9,0.8c-1.2,0.6-2.3,1.2-3.2,1.7s-1.7,1-2.3,1.5
			c-0.5,0.3-0.9,0.6-1.3,1c-0.4,0.4-0.8,0.7-1.2,1.1l-2.3,2.3c-1.2,1.3-2.2,2.6-2.9,3.7c-0.8,1.2-1.4,2.4-1.9,3.6
			c-0.7,1.8-1,3.4-0.9,4.9c0.1,1.3,0.2,2.4,0.3,3.3c0.1,1,0.3,1.8,0.5,2.4l0,0.1c0.2,0.4,0.5,1,1.1,1.8l1.9,2.7l1,1
			c0.4,0.4,1,0.8,1.7,1.1c0.9,0.4,1.7,0.4,2.3,0.1l1.8-0.8l-2.6,6.7l-17.4,29.5l6.4-1.8l0.9-0.5l1.6-0.1l0.3-0.1
			c0.4-0.1,0.7-0.3,0.9-0.4c0.3-0.2,0.7-0.4,1-0.7c0.3-0.3,0.7-0.7,1.1-1.2c0.3-0.5,0.7-1.1,1.2-1.9c0.1-0.1,0.2-0.4,0.4-0.6
			c0.1-0.2,0.3-0.4,0.8-0.9l1.3-0.9c0.5-0.2,1-0.3,1.5-0.3c0.5,0,1,0,1.6,0.1l0.1,0l0.1,0c0.1,0,0.1,0,0.2,0
			c0.2,0.1,0.3,0.1,0.5,0.2l1.6,0.6l2.5,6.3c0.1,0.3,0.1,0.7,0,1c-0.1,0.1-0.2,0.2-0.4,0.3c-0.1,0.1-0.2,0.1-0.3,0.1l-1.9,0.1
			c-0.5,0-0.9-0.1-1.1-0.1c-0.3-0.1-0.4-0.1-0.5-0.1l-2-1.2l1.3,6l2.1,0.1l1.5,0l3-0.2l0.1,0c0.7-0.1,1.2-0.3,1.7-0.4
			c0.5-0.2,1-0.4,1.2-0.8l0.8-0.6l0.1-0.1c0.1-0.1,0.2-0.2,0.3-0.3c0.1-0.1,0.3-0.3,0.4-0.6l0.4-0.8l0.6-1.3
			c0.3-0.7,0.2-1.8-0.5-3.5l-3.2-7.4c-0.2-0.5-0.4-0.9-0.5-1.2c-0.1-0.3-0.1-0.6-0.1-0.8c0-0.2,0-0.4,0.1-0.6
			c0.1-0.2,0.2-0.4,0.3-0.7c0.2-0.4,0.6-0.7,1.2-0.8l2.4-0.2l1.5,0.2l12.4,7.4l7.8-1.6l-30.5-18l3.9-6.7l27.1,10.6l6.3-3.4
			L407,279.5l0.5-1.4l0.8-0.5l1.5-0.3l1.6-1l0.8-0.7c0.5-0.3,1.1-1,2.4-3.4l2.3-3.8c1.2-1,2.2-1.6,3.2-1.8c0.6-0.1,1.2-0.2,1.8-0.1
			c-0.1,0.4-0.3,0.8-0.4,1.4l-0.2,1.6l0.1,2c0,0.9,0.3,1.7,0.8,2.5l1.5,1.6l0.1,0.1c0.8,0.7,1.7,1.1,2.6,1.3l1.7,0.1l1.7-0.1
			l1.5-0.8c0.7-0.3,1.2-1,1.8-1.8c0.5-0.8,0.8-1.7,1-2.6l0.2-2.2l-0.5-2.1l-1-2.1l-0.1-0.2l0.3-0.3c0.4-0.4,0.9-0.9,1.5-1.5
			c0.6-0.5,1.3-1.1,2.2-1.7l0.2-0.1c0.1-0.1,0.6-0.5,1.9-0.7l0.1,0c0.5-0.2,0.9-0.3,1.5-0.4c0.5-0.1,1-0.2,1.5-0.3l3.3-0.3l3.9-2.6
			l-34.2-7.5L416.4,242.6z M426.8,261.6l-0.1,0c-0.6-0.1-1.5-0.2-2.6-0.1l-2.5,0c-0.6,0-1.1,0.1-1.7,0.3c-0.5,0.1-1.1,0.3-1.6,0.5
			c-0.6,0.2-1.1,0.4-1.5,0.6c-0.5,0.2-0.9,0.4-1.3,0.7l-1.8,1.3l-2.4,1.9l2.6-11.7l18.5,4l-2.3,1.2l-0.2,0.1
			c-0.6,0.5-0.8,0.5-0.9,0.5l-0.3,0l-1.2,0.9L426.8,261.6z M400.7,302.7l-0.4,0.9l-0.1,0.2c-0.2,0.6-0.2,1.4,0,2.6
			c-0.3-0.1-0.6-0.2-0.9-0.3c-0.6-0.2-1.2-0.3-2-0.5c-0.5-0.1-0.9-0.1-1.3-0.1c-0.3,0-0.5,0-0.7,0c-0.4,0-0.8,0.1-1.1,0.2l5.5-9.4
			l6.2,3.6l-2,0.4c-0.4,0.1-0.8,0.2-1,0.3c-0.3,0.1-0.6,0.3-0.9,0.4c-0.3,0.2-0.5,0.4-0.7,0.7C401.2,302,401,302.3,400.7,302.7z
			 M411.1,231.8l-0.8,0.6l-0.3,5.9l-2,0.8c-0.2-0.1-0.6-0.3-1.2-0.6l-2.2-1.6l-1.6-1.6l-0.1-0.1c-0.1-0.1-0.3-0.4-0.8-1.4
			c-0.5-0.9-0.8-1.8-0.9-2.9c-0.2-1.2-0.2-2.3-0.2-3.2l0.3-2.6c0.2-0.9,0.6-2.3,1.4-4.2c0.3-0.9,0.7-1.7,1.1-2.4
			c0.4-0.7,0.8-1.3,1.3-1.7l3.4-4.2L411.1,231.8z M404.3,273.3l-0.6,0.2l-2.1,5.5l-2.1,0.1c-0.2-0.2-0.5-0.5-0.9-0.9l-1.6-2.2
			l-1.1-2l-0.1-0.1c0-0.1-0.2-0.5-0.4-1.6c-0.2-1-0.2-2,0-3c0.2-1.2,0.5-2.2,0.8-3.1l1.1-2.4c0.4-0.8,1.3-2,2.6-3.6
			c0.6-0.8,1.2-1.4,1.8-1.9c0.6-0.5,1.2-0.9,1.8-1.3l4.8-3.1L404.3,273.3z"/>
	</g>
</g>
<rect x="87.3" y="430.3" class="st5" width="349.3" height="113.3"/>
<g>
	<g>
		<g>
			<g>
				<path class="st3" d="M120,460.7h65.3l1.4,0.2c0.7,0.7,1.7,2.3,3.1,4.9h-10.3v59.4l-3.1-1.8c-0.2-0.2-0.3-0.3-0.4-0.4
					c-0.2-0.1-0.3-0.6-0.3-1.4c-0.6-3.2-2.3-6.2-5.1-9.2c-4.7-4.9-10.8-8.5-18.3-10.9c-1.5-0.5-3-0.9-4.6-1.3
					c-0.2,0-1.8-0.3-4.8-0.8c-1.8,0-3-0.2-3.7-0.6c-0.1-0.1-0.5-0.4-1-0.8l-3.4-3l-1.2-1.1l-0.1-0.1c-0.1-0.2-0.2-0.3-0.1-0.5
					c0-0.3,1.7-1.6,5.1-4c0.2-0.2,0.3-0.3,0.4-0.3l9.9-7.3c3.1-2.2,5.2-3.7,6.1-4.5c-3.7-1.3-5.6-2-5.7-2h-0.1l-0.1-0.1
					c-0.2,0-0.4-0.1-0.7-0.2c-0.7-0.2-1.7-0.4-3.1-0.7l-8.4-1.9c-4.1-1.1-7-2.5-8.7-4.3l-0.1-0.1l-0.1-0.1c0-0.1-0.1-0.1-0.2-0.2
					l-1-1.6l-0.1-0.1c-0.1-0.1-0.2-0.2-0.3-0.3c-0.3-0.2-1-0.3-2.2-0.2c-0.6,0-1,0-1.2-0.2c-0.3-0.1-0.7-0.6-1-1.4
					C121.7,463.7,121,462.5,120,460.7z M172.1,465.9h-25.3l16.3,14.3l0.9,1.3c-1.3,1.1-4.7,3.6-10.4,7.8c-2.2,1.6-4.1,3.1-5.5,4.3
					c1.4,0.5,3.4,1.4,6.1,2.9c5.9,3.2,11.1,7,15.5,11.4c1.2,1.2,1.9,1.9,2.3,2.2V465.9z M161.7,480.2c0,0.1,0,0.1,0.1,0.1
					c0,0,0.1-0.1,0.1-0.1H161.7z M162,480.3c0,0.1,0,0.1,0.1,0.1c0,0,0.1-0.1,0.1-0.1H162z"/>
			</g>
			<g>
				<path class="st3" d="M181.4,528.8l-6.3-3.7c-0.3-0.2-0.5-0.4-0.6-0.6c-0.6-0.7-0.7-1.6-0.8-2.6c-0.5-2.7-2.1-5.4-4.5-8.1
					c-4.5-4.6-10.3-8.1-17.4-10.3c-1.4-0.5-2.9-0.9-4.3-1.2c-0.3-0.1-1.6-0.3-3.9-0.6l-0.8-0.1c-2.2,0-3.6-0.3-4.6-0.9l-0.2-0.1
					l-1-0.8l-5-4.5c-0.4-0.6-0.6-1.2-0.5-1.9c0-1.1,0.5-1.7,5.9-5.4l0.3-0.3l9.9-7.3c1.2-0.9,2.3-1.6,3.1-2.3
					c-0.9-0.3-1.5-0.6-1.9-0.7h-0.3l-0.3-0.2c-0.1,0-0.2-0.1-0.4-0.1c-0.7-0.2-1.7-0.4-2.9-0.7l-8.4-1.9c-4.5-1.2-7.6-2.7-9.6-4.7
					l-0.5-0.5l-0.9-1.5c-0.2,0-0.5,0-1,0c-1,0.1-1.7,0-2.2-0.3c-0.9-0.4-1.5-1.3-2-2.2c-0.5-0.8-1.2-2-2.2-3.7l-1.6-3l69,0l2.1,0.3
					l0.5,0.5c0.5,0.5,1.4,1.7,3.4,5.4l1.6,2.9h-11.7V528.8z M174.1,513.6c1.6,2.2,2.7,4.4,3.3,6.7v-56.3h8.9
					c-0.3-0.5-0.5-0.8-0.7-1.1l-0.5-0.1h-61.7c0.1,0.2,0.3,0.4,0.4,0.5l0.1,0.3c0.1,0.2,0.2,0.3,0.2,0.4c0,0,0.1,0,0.1,0
					c1.6-0.1,2.7,0,3.4,0.5c0.2,0.1,0.4,0.3,0.6,0.5l0.1,0.1l0.2,0.3l0.8,1.4c0,0,0.1,0.1,0.1,0.1l0.1,0.1c1.4,1.5,4,2.7,7.7,3.7
					l8.3,1.9c1.3,0.3,2.4,0.5,3.1,0.7l0.1,0c0.1,0,0.2,0.1,0.3,0.1l0.5,0l0.3,0.2c0.4,0.1,1.4,0.5,4.2,1.5l-12.8-11.2h32.6V513.6z
					 M152.1,493c1,0.5,2,1,3.2,1.7c5.6,3,10.6,6.6,14.9,10.7v-37.5h-17.9l12.6,11.2l2,2.8l-1.4,1.2c-1.3,1.1-4.7,3.7-10.5,7.9
					C153.9,491.6,152.9,492.4,152.1,493z M140.4,497.3c0.2,0.1,0.8,0.3,2.5,0.3l0.3,0l0.9,0.1c2.4,0.4,3.7,0.6,3.9,0.6l0.1,0
					c1.6,0.4,3.2,0.8,4.7,1.3c2.8,0.9,5.5,2,8,3.3c-2.4-1.7-4.9-3.3-7.6-4.8c-2.6-1.4-4.5-2.3-5.8-2.7l-3.4-1.1l2.8-2.3
					c1.5-1.2,3.4-2.7,5.6-4.4c3.4-2.5,6-4.4,7.9-5.8c-0.3-0.3-0.7-0.8-0.7-1.6v-0.4l-2.2-2l-1.2,1.1c-1,0.9-3,2.4-6.2,4.7l-10.3,7.6
					c-1.7,1.2-2.8,2-3.5,2.5L140.4,497.3z"/>
			</g>
		</g>
		<g>
			<path class="st3" d="M186.8,460.7h31.4c1.4,0,2.8,0.1,4.1,0.1c0.7,0.9,1.8,2.6,3.1,5h-4.2c-1.7,0-3.2,0.3-4.4,0.8
				c0.1,0-0.2,0.1-1,0.5c-6.4,3.1-11.3,7.5-14.7,13.1c-1.7,2.8-2.8,5.7-3.3,8.8c-0.7,5.2-0.3,10.6,1.2,16.2c0.5,1.8,1,3.3,1.6,4.6
				c0.8,1.7,1.8,3,2.9,3.9c1-2.2,3.1-3.6,6.2-4.2c2.9-0.6,5.6-0.3,8,0.8c2.8,1.3,4.3,3.3,4.7,6c0.3,2.3-0.4,4.4-2.2,6.1
				c-2.3,2.3-5.6,3.2-9.9,2.8c-2.4-0.2-4.7-0.9-6.7-1.9c-5.8-3.2-9.4-9.7-10.8-19.6c-0.3-2.1-0.5-4.2-0.5-6.4c-0.7-11,2-20.1,8-27.5
				l3.1-3.8h-12.3l-1.2-0.2C189,464.5,187.9,462.9,186.8,460.7z"/>
			<path class="st3" d="M212.2,527.3c-0.7,0-1.4,0-2.1-0.1c-2.7-0.3-5.2-1-7.4-2.2c-6.4-3.5-10.4-10.6-11.9-21.1
				c-0.3-2.1-0.5-4.4-0.5-6.6c-0.7-11.3,2.2-21.1,8.5-28.8l0.4-0.5l-8.4,0l-2-0.3l-0.5-0.6c-1-1.3-2.1-3-3.3-5.2l-1.6-2.9h34.8
				l5.1,0.1l0.6,0.7c0.8,1,1.9,2.8,3.3,5.3l1.6,3h-7.5c-1.5,0-2.7,0.2-3.6,0.6c-0.3,0.2-0.7,0.4-1,0.5c-6,2.9-10.7,7.1-13.8,12.3
				c-1.6,2.6-2.6,5.3-3.1,8.1c-0.7,4.9-0.3,10,1.1,15.3c0.4,1.6,1,3.1,1.5,4.2c0.3,0.6,0.6,1.1,0.9,1.6c1.4-1.5,3.4-2.5,6-3
				c3.3-0.7,6.4-0.3,9.2,1c3.4,1.5,5.4,4.1,5.8,7.5c0.4,2.9-0.5,5.6-2.8,7.8C219.3,526.1,216.1,527.3,212.2,527.3z M191.3,463.9
				h16.3l-5.7,7c-5.7,7-8.2,15.8-7.6,26.1c0,2.2,0.2,4.3,0.5,6.2c1.3,9.3,4.6,15.4,9.8,18.2c1.7,0.9,3.7,1.5,5.9,1.7
				c3.7,0.4,6.4-0.4,8.3-2.2c1.3-1.3,1.8-2.7,1.6-4.4c-0.3-2.1-1.4-3.5-3.5-4.5c-2-1-4.2-1.2-6.7-0.7c-2.5,0.5-4.1,1.5-4.8,3.1
				l-1.1,2.3l-2-1.5c-1.4-1.1-2.6-2.7-3.5-4.6c-0.7-1.4-1.2-3-1.7-4.9c-1.6-5.8-2-11.5-1.2-17c0.6-3.3,1.8-6.5,3.6-9.5
				c3.5-5.9,8.8-10.6,15.5-13.8c0.5-0.2,0.8-0.4,0.9-0.4l0.7,1.3l-0.5-1.4c1.5-0.6,3.2-1,5.2-1h0.7c-0.2-0.4-0.5-0.8-0.7-1.1
				l-3.1-0.1l-27.9,0c0.3,0.4,0.5,0.8,0.7,1.1L191.3,463.9z"/>
		</g>
		<g>
			<path class="st3" d="M287.9,454.9c3.9,3.2,6.3,5.1,7.2,5.7c0.4,0.1,2.3,0.1,5.5,0.2c0.7,0,1.2,0.1,1.7,0.1
				c0.4,0.5,1.3,1.8,2.6,4.2c0.2,0.3,0.4,0.6,0.6,0.9h-10.3v59.4l-5.1-2.9c-1.1-0.6-1.8-1-2.1-1.4c-0.2-0.5-0.2-1.5-0.1-3v-37.6
				c0-1.7-0.2-2.8-0.5-3.2c-0.2-0.3-0.5-0.6-0.9-1l-3.1-2.5c-3.1-2.5-5.5-4.1-7.4-4.9c-1.1-0.5-2.2-0.9-3.2-1c-3.1-0.2-5.8,0.8-8,3
				c-0.9,0.9-1.5,1.8-1.9,2.8c3.5,0.1,7.1,1.8,10.6,5c1,0.8,1.8,1.7,2.4,2.6c1.6,2,2.4,3.7,2.4,5.2c0.1,2.5-1.5,4.3-4.8,5.6
				c-1.5,0.6-3,0.9-4.7,1c-4.2,0.2-7.9-0.9-10.9-3.2c-1.2-0.9-2.1-2-2.9-3.2c-1.7,2.1-3.3,3.5-4.8,4.3c-3.3,1.8-6.8,2.4-10.7,1.8
				c-3.6-0.5-6-1.8-7.3-4c-0.9-1.8-0.6-3.9,0.9-6.4c2.3-3.2,5.1-5.6,8.5-7.2c2-1,3.8-1.6,5.5-1.6c-0.6-0.9-1.1-1.5-1.5-1.8
				c-2.2-2.1-6-3.2-11.4-3.2c-0.7,0-2.1,0.1-4,0.2c-0.1,0-0.2,0-0.3,0h-3.7l-4.1-8.1c7.7,0,13.4,0.5,17.2,1.6c3,0.8,5.5,2,7.6,3.6
				c1.3,1,2.8,2.7,4.6,5.1c1.3-3.1,3.4-5.6,6.4-7.4c0.5-0.3,1-0.6,1.6-0.8c3.5-1.7,6.9-2.3,10.2-1.9c1.7,0.1,4,1,7.1,2.7
				c3.3,1.9,6.9,4.4,10.8,7.6V454.9z"/>
			<path class="st3" d="M297.3,528.7l-8-4.6c-1.5-0.7-2.3-1.4-2.8-2.1l-0.2-0.2l-0.1-0.3c-0.3-0.8-0.3-1.9-0.2-3.7v-37.5
				c0-1.4-0.1-2-0.2-2.2l0-0.1l0,0c0,0-0.1-0.1-0.4-0.4l-3.1-2.5c-2.9-2.4-5.3-3.9-6.9-4.7c-1-0.4-1.8-0.7-2.6-0.8
				c-2.5-0.2-4.5,0.6-6.3,2.4c2.9,0.8,5.8,2.5,8.6,5c1,0.9,1.9,1.9,2.7,2.9c1.9,2.3,2.8,4.4,2.8,6.4c0.1,2.3-0.9,5.4-6,7.4
				c-1.7,0.6-3.4,1-5.3,1.1c-4.7,0.2-8.8-1-12.2-3.6c-0.6-0.5-1.2-1-1.8-1.6c-1.3,1.3-2.5,2.3-3.8,2.9c-3.6,1.9-7.6,2.6-11.9,2.1
				c-4.2-0.6-7.1-2.2-8.8-4.9l-0.1-0.1c-1.3-2.4-0.9-5.2,1-8.3l0.1-0.1c2.5-3.5,5.6-6.1,9.4-7.9c0.8-0.4,1.6-0.8,2.4-1
				c-1.9-1.2-4.9-1.8-9-1.8c-0.7,0-2,0.1-3.9,0.2l-5.3,0l-6.1-12.1h3.3c7.9,0,13.7,0.5,17.8,1.6c3.2,0.9,6,2.2,8.3,3.9
				c0.9,0.7,1.9,1.7,3,3c1.4-2.2,3.3-4,5.7-5.4c0.6-0.3,1.1-0.7,1.7-0.9c3.8-1.8,7.6-2.5,11.3-2.1c1.9,0.2,4.5,1.1,7.8,2.9
				c2.5,1.4,5.1,3.2,7.9,5.3v-16.4l3.3,2.7c4,3.2,5.8,4.7,6.6,5.3c0.6,0,1.9,0.1,4.9,0.2c0.7,0,1.3,0.1,1.8,0.1l0.8,0.1l0.5,0.6
				c0.3,0.4,0.9,1.2,2.8,4.4c0.2,0.3,0.4,0.6,0.6,0.9l1.9,3.1h-11.9V528.7z M289.9,520c0.2,0.1,0.5,0.3,1.1,0.6l0.1,0.1l2.1,1.2v-58
				h8.7c-0.3-0.5-0.5-0.9-0.7-1.1c-0.2,0-0.5,0-0.7,0c-4.4-0.1-5.4-0.2-5.8-0.2l-0.4-0.1l-0.4-0.3c-0.6-0.4-2-1.5-4-3.1v16.2
				l-3.2-2.6c-3.9-3.1-7.4-5.6-10.6-7.4c-3.5-1.8-5.3-2.3-6.3-2.4c-2.9-0.3-6,0.2-9.1,1.8c-0.5,0.2-0.9,0.5-1.4,0.7
				c-2.7,1.6-4.5,3.7-5.6,6.4l-1.3,3.3l-2.1-2.8c-1.7-2.2-3.1-3.8-4.2-4.7c-1.8-1.4-4.2-2.5-6.9-3.2c-3.1-0.8-7.6-1.3-13.4-1.5
				l2.1,4.1h2.8c1.8-0.1,3.2-0.1,3.9-0.2c6.1,0,10.2,1.1,12.8,3.6c0.6,0.5,1.2,1.2,1.9,2.3l1.8,2.9l-3.4,0.1c-1.4,0.1-3,0.5-4.6,1.4
				c-3.2,1.5-5.8,3.6-7.8,6.5c-1.6,2.6-1.1,3.8-0.8,4.3c1,1.6,2.9,2.6,5.8,3c3.5,0.5,6.6-0.1,9.5-1.6c1.3-0.7,2.7-2,4.2-3.8l1.8-2.2
				l1.5,2.4c0.6,1,1.4,1.9,2.4,2.6c2.7,2,5.8,2.9,9.6,2.8c1.4-0.1,2.8-0.4,4.1-0.9c3.6-1.4,3.5-3,3.5-3.6c0-0.8-0.3-2-2-4
				c-0.6-0.8-1.3-1.6-2.2-2.3c-3.2-2.9-6.4-4.4-9.4-4.5l-2.8-0.1l1-2.6c0.5-1.3,1.3-2.5,2.3-3.5c2.6-2.6,5.8-3.8,9.5-3.6l0.1,0
				c1.2,0.2,2.5,0.6,3.8,1.2c2,0.9,4.5,2.6,7.8,5.2l3.1,2.5c0.6,0.5,1.1,1,1.4,1.5c0.5,0.8,0.8,2.1,0.8,4.3l0,37.7
				C289.9,519.1,289.9,519.7,289.9,520z"/>
		</g>
		<g>
			<path class="st3" d="M302.6,460.7h28.6l2.4,0.2c0.7,0.7,1.6,2.2,2.9,4.6c0.1,0.1,0.2,0.2,0.2,0.3h-16.4v59.4
				c-4.2-2.5-6.5-3.9-7-4.2c-0.2-1.5-0.3-4.9-0.2-10.2c0-1.7,0-3.1-0.1-4.2v-40.8c-3.7,0-5.9,0-6.5-0.1c-0.3,0-0.5-0.1-0.7-0.1
				C304.7,464.5,303.7,462.9,302.6,460.7z"/>
			<path class="st3" d="M322.2,528.8l-3-1.8c-6.3-3.7-6.9-4.1-7.2-4.3l-0.7-0.5l-0.1-0.9c-0.2-1.6-0.3-5.1-0.2-10.5
				c0-1.6,0-3-0.1-4.1l0-38.9c-3.4,0-4.3-0.1-4.8-0.1c-0.3,0-0.6-0.1-0.8-0.1l-0.8-0.1l-0.5-0.6c-1-1.3-2.1-3-3.3-5.2l-1.6-2.9
				l32.1,0l3.2,0.3l0.5,0.6c0.5,0.5,1.3,1.6,3.1,4.9c0.1,0.2,0.3,0.4,0.4,0.6l1.1,2.8h-17.4V528.8z M315,519.9
				c0.6,0.4,1.5,0.9,3.2,1.9v-57.9h15c-0.3-0.4-0.5-0.8-0.7-1l-1.5-0.1h-25c0.2,0.4,0.5,0.7,0.7,1.1c0.4,0,1.9,0.1,6.1,0.1h2v42.8
				c0,1.1,0.1,2.5,0.1,4.2C314.9,515.9,314.9,518.6,315,519.9z"/>
		</g>
		<g>
			<path class="st3" d="M333.7,460.7h60.9l1.3,0.2c0.7,0.7,1.6,2.2,2.9,4.6c0.1,0.1,0.2,0.2,0.2,0.3h-10.2v59.4l-3.1-1.8
				c-0.2-0.2-0.3-0.3-0.4-0.4c-0.3-0.2-0.4-0.8-0.4-1.7v-0.1v-0.1c0-0.1-0.1-0.2-0.1-0.3c-0.9-4-3.5-8-8-12
				c-7.2-6.2-16.4-10.6-27.8-13.3l-2.5-0.5c-1.1,0-2-0.5-2.7-1.5c0.5,0.7,0.4,0.6-0.3-0.3c-0.2-0.2-0.3-0.4-0.4-0.5
				c-2.2-2.4-3.5-4.1-4.1-5.2l8.9-4.8c9.6-4.7,19-8.3,28.3-10.9l4.5-1.3h0.1l0.1-0.1l0.1-0.1c0.3-0.2,0.4-0.6,0.4-1.4v-3.4h-43.3
				l-1.2-0.1C336.4,465.2,335.4,463.5,333.7,460.7z M381.4,477.9c-8.4,2.3-18.3,6.1-29.8,11.6v0.1c10.3,3.3,19,8.5,26.2,15.7
				c1.2,1.2,2.4,2.5,3.5,3.7h0.1V477.9z M362.5,511.4c2.7,0,4.9,0.9,6.6,2.7c1.1,1.2,1.7,2.6,1.6,4.1c-0.1,2.1-1.3,3.8-3.6,4.9
				c0,0,0,0.1-0.1,0.1c-1.3,0.7-2.8,1-4.4,0.9c-2.7-0.1-4.8-1.1-6.3-3c-0.8-1-1.2-2.1-1.2-3.4c0-2.2,1-4,3.1-5.3h0.1
				C359.6,511.8,361,511.4,362.5,511.4z"/>
			<path class="st3" d="M390.8,528.8l-6.3-3.7c-0.2-0.2-0.5-0.4-0.6-0.6c-0.7-0.8-0.9-1.9-0.9-2.8c0-0.1,0-0.2-0.1-0.3
				c-0.8-3.5-3.3-7.2-7.3-10.8c-6.9-5.9-15.9-10.3-26.9-12.9l-2.3-0.5c-1.5-0.1-2.7-0.7-3.7-1.8c0,0-0.1-0.1-0.1-0.1l0,0
				c0,0,0-0.1-0.1-0.1c-0.2-0.2-0.3-0.4-0.4-0.5l-0.4-0.4c-2.3-2.5-3.7-4.3-4.3-5.6l-0.9-1.7l10.7-5.8c9.7-4.8,19.4-8.5,28.7-11
				l3.6-1v-1.2l-41.4,0l-2.1-0.2l-0.5-0.7c-0.3-0.4-1-1.4-3.3-5.2l-1.8-3l64.8,0l2,0.3l0.5,0.5c0.5,0.5,1.3,1.6,3.1,4.9
				c0.1,0.2,0.3,0.4,0.3,0.6l1.2,2.8h-11.3V528.8z M381.6,511c2.7,3.1,4.5,6.3,5.2,9.5v-56.6h8.8c-0.3-0.5-0.5-0.8-0.7-1.1l-0.4-0.1
				h-57.2c0.3,0.5,0.5,0.9,0.7,1.1l0.2,0h45.2v5.4c0,0.5,0,2.1-1.2,3l-0.5,0.4l-0.5,0.1l-4.4,1.2c-9.2,2.5-18.6,6.1-28,10.7
				l-6.9,3.7c0.6,0.8,1.5,1.8,2.7,3.1l0.5,0.6c0.1,0.1,0.2,0.3,0.3,0.4l0,0c0,0,0,0,0,0l0,0c0.4,0.5,0.7,0.6,1.1,0.6l0.4,0l2.5,0.5
				c9.3,2.2,17.3,5.6,23.9,10.1c-6.4-5.5-13.9-9.7-22.4-12.4l-1.4-0.4v-2.8l1.1-0.5c11.5-5.5,21.7-9.4,30.2-11.7l2.5-0.7V511H381.6z
				 M356.7,489.3c8.6,3.4,16.2,8.2,22.5,14.5c0.1,0.1,0.1,0.1,0.2,0.2v-23.5C372.8,482.5,365.2,485.4,356.7,489.3z M362.9,526.2
				c-0.1,0-0.2,0-0.3,0c-3.4-0.1-6-1.4-7.8-3.8c-1-1.3-1.6-2.9-1.6-4.6c0-2.9,1.4-5.3,4.1-7l0.6-0.3c1.4-0.8,3-1.2,4.6-1.2
				c0.1,0,0.1,0,0.2,0c3.2,0,5.9,1.1,7.9,3.3c1.5,1.6,2.2,3.5,2.1,5.5c-0.1,1.8-0.8,4.2-3.6,6v0.8l-1.6,0
				C366.1,525.8,364.6,526.2,362.9,526.2z M359,514.5c-1.2,0.9-1.7,1.9-1.7,3.3c0,0.8,0.2,1.5,0.8,2.1c1.1,1.4,2.6,2.2,4.7,2.2
				c1.1,0,2.1-0.2,3.1-0.5l0.5-0.2c2.2-1.1,2.5-2.4,2.5-3.2c0-1-0.3-1.9-1.1-2.7c-1.3-1.4-2.9-2.1-5.1-2h0c-1.1,0-2.1,0.3-3,0.8
				L359,514.5z"/>
		</g>
	</g>
	<g>
		
			<ellipse transform="matrix(0.9928 0.1202 -0.1202 0.9928 61.8479 -38.7054)" class="st3" cx="351.9" cy="493.5" rx="5.9" ry="2.9"/>
		<path class="st3" d="M352.9,498.4c-0.5,0-1.1,0-1.6-0.1c-1.9-0.2-3.6-0.8-4.9-1.6c-1.7-1.1-2.5-2.6-2.4-4.1
			c0.2-1.5,1.4-2.8,3.3-3.5c1.4-0.5,3.3-0.7,5.1-0.4c1.9,0.2,3.6,0.8,4.9,1.6c1.7,1.1,2.5,2.6,2.4,4.1c-0.2,1.5-1.4,2.8-3.3,3.5
			C355.4,498.3,354.2,498.4,352.9,498.4z M348.2,493.1c0.5,0.4,1.6,1.1,3.6,1.3c1.9,0.2,3.2-0.1,3.8-0.4c-0.5-0.4-1.6-1.1-3.6-1.3
			C350,492.4,348.8,492.8,348.2,493.1z"/>
	</g>
</g>
</svg>
