<?xml version="1.0" encoding="utf-8"?>
<!-- Generator: Adobe Illustrator 23.0.5, SVG Export Plug-In . SVG Version: 6.00 Build 0)  -->
<svg version="1.1" id="Layer_1" xmlns="http://www.w3.org/2000/svg" xmlns:xlink="http://www.w3.org/1999/xlink" x="0px" y="0px"
	 viewBox="0 0 536.9 304.5" style="enable-background:new 0 0 536.9 304.5;" xml:space="preserve">
<style type="text/css">
	.st0{fill:#AFB2BD;}
	.st1{fill:#F93B48;}
	.st2{fill:#349087;}
	.st3{fill:#183B52;}
	.st4{fill:#53AB87;}
	.st5{fill:#47B1F6;}
	.st6{fill:#2C3341;}
	.st7{fill:#F2C2B2;}
	.st8{fill:#8C9492;}
	.st9{fill:#CACBD2;}
	.st10{fill:#FBF7F7;}
	.st11{fill:#FDD61E;}
	.st12{fill:#D2353E;}
	.st13{fill:#FDE104;}
	.st14{fill:#FAB705;}
	.st15{fill:none;stroke:#349087;stroke-miterlimit:10;}
</style>
<g>
	<path class="st0" d="M119,134.9c0-7,0.1-13.9-0.1-20.9c-1.1-40.5,24.4-72.2,56.9-86.3c33.1-14.4,66-13.4,98,3.4
		c18.3,9.6,32.4,23.6,42.8,41.5c1.2,2,2.6,4,2.4,6.5c-15.6,0.4-31.1-0.8-46.7,1.8c-19.7,3.2-39,7.4-56.7,16.5
		c-13.1,6.8-25.7,14.7-23.9,32.7c-8.6,3.5-12.4,11.7-9.2,20c0.8,2,0.4,3.9,0.3,5.8c-0.3,8.2,1.3,16.4,2.4,24.3
		c0.7,4.6,3.6,9.4,4,14.6c-0.2,0.1-0.3,0.3-0.5,0.5c-8.3,0-16.6-0.1-24.9-0.1c-0.9-5.5-4.6-3.3-6.8-1.8c-2.4,1.6-4.6,2-7.2,1.6
		c0.6-2.5,5.3-1.2,4.6-4.3c-1.3-6.2,2.8-11.8,1.5-17.9c-0.3-1.5-0.5-3.4,1.7-5.9c0,7.6,0,14,0,20.5c0,1.7-0.5,3.8,2.4,3.9
		c2.6,0.1,5.3-0.5,5.3-3.3c0-6.5,4-12.6,2.2-18.9c-1.5-5.3-1.9-10.8-3.6-16.1c-2.8-8.4-9.3-14.8-17.9-15.8c-0.5-0.9-1.3-1-2.2-1.1
		c0-0.8-0.1-1.6-0.1-2.4c1.6-1.8,2-4,2-6.3c0.3-2.1,2.7-3.7,1.6-6.2c0-0.7,0-1.3,0.1-2c0.5-3.8-2.2-5.4-4.9-6.6
		c-3.6-1.6-7.3-0.9-10,2.2c-2.2,2.4-2.2,5,0.1,7.5c-0.2,1.4-0.5,2.8-0.7,4.2c1.8,2.1,0.5,5.3,2.9,7.1c-0.3,1.1-0.6,2.2-1,3.3
		c-0.7,0.1-1.4,0.3-2.1,0.4C127.4,137.6,123.5,134.4,119,134.9z"/>
	<path class="st1" d="M191.7,130c-1.8-18,10.8-25.9,23.9-32.7c17.7-9.2,37-13.3,56.7-16.5c15.6-2.5,31.1-1.4,46.7-1.8
		c4,2.3,8.6,2.5,12.8,3.8c13.1,3.8,19.3,13.2,22.4,25.5c-0.2,1.2-0.4,2.5-0.5,3.7c-1.5,0.8-1.9,2.2-1.9,3.7c0,2.1-1.6,3-3.2,3.1
		c-9.3,0.5-18.5,0.8-26.9-4.5c-3.3-2.1-6.6-4.2-9.8-6.3c-0.5-6.5-3.7-9-11.9-9.1c-1.8-1.2-3.8-0.7-5.8-0.8c-2-0.1-3.6-0.1-5.1-2
		c-2.8-3.4-3.9-2.9-5.4,1.3c-0.2,0.7-1.2,1.1-1.8,1.6c-8.1,0.1-16,1.8-23.8,3.9c-4.4,0.4-8.7,1.2-12.3,4c-9.9,1.3-13.8,5-14.2,13
		c-0.4-1.3-0.8-2.7-1.3-4.4c-0.8,2.7,0.3,5.4-1.8,7.4c-8.5,8.1-17.9,14.6-29.3,18.2c-3.2,1-5.9,1.8-6.3-3c0,1,0,1.9,0,2.9
		c-1.8-2.9-0.4-6.2-1.3-9.2C191.6,131.3,191.6,130.6,191.7,130z"/>
	<path class="st2" d="M461,172.6c5.6-2.8,11-6,17.4-6.9c5.1-0.7,9.7-0.3,12.9,4.2c2.8,3.9,2.3,10.3-1,15c-4.5,6.2-10.9,10-17.3,13.9
		c-1,0.6-2.2,0.8-2.3,2.2c-5.9,1.3-8.2,6.3-9.4,11c-2.5,9.7-8.9,13.6-17.9,15c-1.9,0.3-4.1,0.4-4.4,3.1l0,0c-0.9-0.2-1.6,0.2-2,1
		c-2.3,1.4-4.1,3.3-5.6,5.4c-3.8,5.5-8.5,9.3-15.7,8.6c-2.2-0.2-4.3,0.2-5.8,2.1c-1.3-0.2-2.7-0.3-4-0.5c0.7-0.7,1.1-1.6,1.1-2.6
		c0.3-0.3,0.7-0.7,1-1c0.8-0.4,1-1.2,1-2c0.3-0.3,0.7-0.7,1-1c0.3-0.3,0.7-0.7,1-1c0.8-0.5,1-1.2,1-2c0.3-0.3,0.7-0.7,1-1
		c0.3-0.3,0.7-0.7,1-1c0.7-0.5,1-1.2,1-2c0.3-0.3,0.7-0.7,1-1c3-2.6,5.4-6,10.2-6.3c-3.1-4-7.4-1.4-10.1-3.8
		c-0.4-7.5-3.1-14.5-4.1-21.9c6.8-7.7,15.8-10.8,25.6-12.4c4-0.6,7.5-2.4,10.7-4.8c0.3-0.3,0.6-0.6,0.8-0.9l-0.1,0.1
		C453.6,179.8,457.6,176.6,461,172.6z M455.9,191c-0.3,0.3-0.7,0.7-1,1c-0.8,0-1.5,0.2-2,1c-0.3,0.3-0.7,0.7-1,1
		c-0.1,0.1-0.3,0.1-0.4,0.2c-0.1,0-0.1,0.2-0.1,0.3c0.1-0.1,0.3-0.3,0.4-0.4c0.3-0.3,0.7-0.7,1-1c0.8,0,1.6-0.2,2-1
		C455.2,191.7,455.5,191.3,455.9,191c0.3-0.4,0.6-0.7,1-1c0.8,0,1.6-0.2,2-1c0.1-0.1,0.2-0.1,0.3-0.2c0.1,0,0.1-0.2,0.1-0.2
		c-0.1,0.2-0.3,0.3-0.4,0.5c-0.8,0-1.6,0.2-2,1C456.6,190.4,456.2,190.7,455.9,191z"/>
	<path class="st2" d="M54.9,195.1c-4-2.7-7.9-5.6-10.8-9.5c-3.7-4.8-4.5-11.3-1.7-15.4c3.4-5.1,8.4-5.2,13.8-4.3
		c7.4,1.3,13.8,4.7,19.4,9.6c1.6,1.4,3.1,3,5.3,3.7c1,2.1,2.7,3.1,4.9,3.6c4.5,4.4,10.7,4.6,16.2,6.3c5,1.5,10.5,1.7,14.1,6.2
		c-0.1,0.5-0.1,1-0.2,1.6c-2.5,1.5-5.7,2.4-6.1,6.1c-2.8,1.4-1.8,4-1.9,6.2c-0.1,9.3,0,18.6-0.1,27.9c0,1.7,0.8,3.7-1,5.1
		c-3.8-3.2-5.4-8.6-10.1-11c-0.4-0.8-1.1-1.2-2-1l0,0c-1.4-4.2-5.5-3.2-8.4-3.9c-6.8-1.6-11.4-5-13.1-12c-1.3-5.3-4.3-9.8-8.8-12.9
		C61.4,199,58.1,197.1,54.9,195.1z M83.9,196c0-0.1-0.1-0.3-0.1-0.4c0-0.1-0.2-0.1-0.2-0.1C83.6,195.7,83.8,195.9,83.9,196
		c0.4,0.3,0.7,0.6,1,1c0.4,0.8,1.2,1,2,1c0.3,0.3,0.7,0.7,1,1c0.3,0.3,0.7,0.7,1,1c0.3,0.3,0.7,0.7,1,1c0.3,0.3,0.7,0.7,1,1
		c0.3,0.3,0.7,0.7,1,1c0,0.1,0.1,0.2,0.1,0.3c0,0.1,0.2,0.1,0.2,0.1c-0.1-0.1-0.3-0.3-0.4-0.4c-0.3-0.3-0.7-0.7-1-1
		c-0.3-0.3-0.7-0.7-1-1c-0.3-0.3-0.7-0.7-1-1c-0.3-0.3-0.7-0.7-1-1c-0.3-0.3-0.7-0.7-1-1c-0.4-0.8-1.2-1-2-1
		C84.5,196.7,84.2,196.4,83.9,196z M73.9,188c-0.3-0.3-0.7-0.7-1-1c-0.4-0.8-1.2-1-2-1c-0.3-0.3-0.7-0.7-1-1c-0.4-0.8-1.2-1-2-1
		c-0.3-0.3-0.7-0.7-1-1c-0.4-0.4-0.6-1.3-1.3-0.4c0.4,0.1,0.9,0.2,1.3,0.3c0.3,0.3,0.7,0.7,1,1c0.4,0.8,1.2,1,2,1
		c0.3,0.3,0.7,0.7,1,1c0.4,0.8,1.2,1,2,1C73.2,187.3,73.6,187.7,73.9,188c0.4,0.3,0.7,0.6,1,1c0.4,0.8,1.2,1,2,1
		c0,0.1,0.1,0.3,0.1,0.4c0,0.1,0.2,0.1,0.3,0.1c-0.1-0.1-0.3-0.3-0.4-0.4c-0.4-0.8-1.2-1-2-1C74.5,188.7,74.2,188.4,73.9,188z"/>
	<path class="st0" d="M398.8,138.3c10.3-1.6,20.5-1.5,30.3,2.7c9,3.9,16.8,9.3,22.8,17.2c-0.5,0.6-1,1.4-1.6,1.8
		c-14.9,10.6-27.3,23.7-38.9,37.6c-1.3-5-2.6-10-3.8-15c-1-4.1-3.1-7.5-7-9.1c-6.1-2.4-12.4-4.4-18.6-6.5c-1.5-4.5-2.5-9-2.3-13.8
		c0.2-3.6,3.2-6.5,2.5-10.2c2.1,0.1,4.4-0.3,6.4,0.3C396.3,145.6,396.2,145.7,398.8,138.3z"/>
	<path class="st2" d="M491.8,285.9c-8.6,0-17.2,0-25.9,0c-1.6-1.3-3.5-0.8-5.3-0.8c-20.2-0.1-40.5-0.2-60.7-0.2
		c0.4-2.6,0.7-5.2,1.1-7.8c2.1-0.1,4.3-0.4,6.4-0.2c3.9,0.5,4.8-1.3,4.5-4.8c-0.3-3.6-0.2-7.2-0.3-10.8c0.7-7.5,6.4-12.8,13.3-11
		c4,1,7.3,0.7,10.9-0.4l0.2,0.3c-5.8,2.6-3.7,6.3-1.4,10.2c1.8-2.2,3.4-4.4,5.3-6.4c3.5-3.6,7.8-5,12.6-3.5c4,1.3,5.4,4.6,5.3,8.6
		c-1.1,2.2-3.2,4-3.3,7.3c5.3-1.1,10.3-1.3,15.3-0.6c6,0.7,11.7,2.4,16.8,5.8c2.6,1.8,5,3.9,5.6,7.3
		C492.1,281.2,491.9,283.6,491.8,285.9z"/>
	<path class="st3" d="M273.6,285.5c-0.7,0-1.4,0-2.2,0c0.1-1.3,0.5-2.6-0.2-3.8c-0.2-3.2-0.3-6.5-0.5-9.7c0-0.6,0.1-1.3,0.1-1.9
		c0-3.3,0-6.7,0-10c0-1,0-2,0.1-3.1c0-1.3,0-2.6,0-3.9c0-1-0.1-2-0.1-3c0.8-8.3-0.2-16.6-0.7-24.9c-2.4,8.5-4.3,17-5.3,25.7
		c-1.2,0.8-0.6,2-0.7,3c-0.2,3.1-1.5,6-1.1,9.1c-1.1,1.5-1.2,3.1-0.9,4.8c-0.6,2.7-1,5.5-1.8,8.2c-1.3,4.3-0.5,7.3,4.5,8
		c0,0.4-0.1,0.9-0.1,1.3c-1.8,0-3.6,0-5.5,0c-0.5,0-1,0-1.5,0c-1.4-0.4-3.4,1.2-4.2-1.2c-0.1-6.4-0.3-12.7-0.4-19.1
		c0.7-1.1,0.3-2.1-0.1-3.1c1.1-1.3,0.6-2.8,0.4-4.2c0.1-0.5,0.1-1.1,0.2-1.6c0.1-2.8,0.6-5.6-0.3-8.3c0.3-1,1.1-2-0.3-2.9
		c0.7-16,1.4-31.9,2.1-47.9c9.8,3.6,19.5,3.9,28.8-1.7c1.3,2.3,0.8,4.8,0.7,7.3c-0.7,14.7-1.2,29.5-2.6,44.1c-2,9.9-3.2,19.9-4,29.9
		c-2.4,4.5,0.1,6.3,4,7.2c0,0.5,0,1-0.1,1.5c-1.9,0-3.9,0-5.8,0C275.3,285,274.5,285.1,273.6,285.5z"/>
	<path class="st2" d="M151.6,285.9c-34.7,0.1-69.5,0.2-104.2,0.3c-1.8,0-3.6-0.2-5.4-0.3c-0.1-2.7-0.2-5.3-0.3-8
		c0.7-2.5,2.7-4,4.3-5.9c10.4-6.1,21.5-8.3,33.9-5.5c-1.6-2.9-2.9-5.1-4.2-7.4c0-4,1.3-7.3,5.3-8.6c4.8-1.6,9.2-0.3,12.6,3.4
		c1.9,2.1,3.7,4.3,5.4,6.5c3.1-4.1,4-7.7-1.4-10.2l0.2-0.3c3.2,1.3,7,0.6,9.8,3.1c0.1,6.3,0.4,12.5,0.1,18.8
		c-0.3,5.5,1.9,9.5,6.4,12.3c1.4,1.8,3.4,0.9,5,0.9c10.9,0.2,21.7,0.2,32.6,0.2C151.8,285.4,151.7,285.7,151.6,285.9z"/>
	<path class="st4" d="M435.8,249.9c-3.6,1-6.9,1.4-10.9,0.4c-6.9-1.8-12.6,3.5-13.3,11c-2.1-0.6-1.5-2.3-1.5-3.7
		c-0.1-3.5-0.2-7-0.3-10.5c1.5-1.9,3.6-2.2,5.8-2.1c7.2,0.7,11.8-3.1,15.7-8.6c1.5-2.1,3.3-4.1,5.6-5.4c0.8-0.1,1.6-0.2,2-1l0,0
		c3.2,0,6.4,0.1,9.5,0.1c0.6,1,1.5,1,2.5,0.9c7.3,2.9,14.7,2.8,22,0c5.9-0.6,11.9-1.5,17.8,0.2c3.4,0.9,7.1,1.6,7.2,6.2
		c0.1,3.6-3.5,7.2-8,7.6c-3.8,0.4-7.6,0.2-11.5,0.2c-3,0-6,0.1-8.6,1.9c-3.2,0.8-4.3,3.7-6,5.9c-1.7,2.3-2.9,5.1-6,6.1
		c0.1-4-1.3-7.3-5.3-8.6c-4.8-1.5-9.1-0.1-12.6,3.5c-1.9,2-3.5,4.2-5.3,6.4c-2.4-3.9-4.5-7.6,1.4-10.2c3.5-0.2,6.5-1.6,9.8-3.8
		C440.8,246.9,440.3,247,435.8,249.9z M447.7,245.5c11.7-3.6,23.4-6.6,35.3-9.1C470.5,237,458.9,240.6,447.7,245.5z"/>
	<path class="st4" d="M97.7,250.2c5.4,2.5,4.5,6,1.4,10.2c-1.8-2.1-3.5-4.4-5.4-6.5c-3.5-3.7-7.8-5-12.6-3.4c-4,1.3-5.3,4.6-5.3,8.6
		c-3.3-1.3-4.8-4.4-6.5-7.1c-3.1-4.8-7.5-7-13.3-7c-4.9,0-9.9-0.1-14.8-0.2c-0.6-0.5-1.2-1.1-1.9-1.6c-5.4-4.4-4.8-8.3,2-12
		c7.8-1.4,15.4-1.2,23.1,0.8c6.3,1.7,12.5,1.3,18.5-1.1c0.7,0,1.3-0.1,2-0.1c3.2-1.8,6.8-0.1,10.1-0.9c0,0,0,0,0,0
		c0.4,0.9,1.2,0.9,2,1c4.7,2.5,6.2,7.8,10.1,11c1.8,3.5,0.9,7.3,0.8,11c-2.8-2.5-6.6-1.8-9.8-3.1c-14.8-7.6-30.6-11.8-47.1-13.7
		c1,1,2.2,1.6,3.5,1.7c10.5,1.1,20.3,4.6,30.2,7.9C89,247.2,92.9,250,97.7,250.2z"/>
	<path class="st5" d="M382.1,143c0.7,3.8-2.3,6.6-2.5,10.2c-0.2,4.8,0.8,9.3,2.3,13.8c-3,2.4-7.1,2-10.3,4c-2.4,0.3-4.1-1.1-5.6-2.6
		c-2.7-2.6-5.3-5.4-8-8c-1.8-1.7-2.3-3.6-2.4-6.1c-0.1-7.7,2-15.1,2.3-22.7c5.4,5.1,5.4,5.1,7.9,0.7c1.2-1.2,1.9-3.2,4.1-0.8
		c2.1,2.3,3.1-0.1,3.7-1.6c0.5-1.5,0.3-3.2,0.5-4.8c0,0,0.4-0.2,0.4-0.2l0.4,0c1,0.3,2.1,0.7,3.1,1C378.1,132,380,137.6,382.1,143z"
		/>
	<path class="st5" d="M119,134.9c4.5-0.5,8.4,2.7,12.9,2.2c-0.6,19.2-1.2,38.5-1.9,57.7c0,0-0.3,0.2-0.3,0.2
		c-2.6-0.1-5.2-0.1-7.8-0.2c0-11.8,0.1-23.6,0.1-35.4c0-1.6,0.1-3.3,0.7-4.9c1.9-5.2,1-6.6-4.7-7.6c-3.6-3.2-8.4-3.7-12.5-5.6
		c-3-1.4-4.4-3-3.9-6.4c0.9-6.7,1.9-13.4,4.5-19.7c1.7,0.1,3.1,0.8,4.4,1.8c-0.1,0.7-0.2,1.5-0.3,2.2c-0.2,0.1-0.2,0.3-0.1,0.5
		c-0.1,1.8-0.3,3.6-0.3,5.4C109.7,134.1,109.8,134.2,119,134.9z"/>
	<path class="st4" d="M116.1,195.2c-3.7-4.4-9.2-4.7-14.1-6.2c-5.6-1.7-11.7-1.9-16.2-6.3c-0.8-1.9-1.7-3.9-2.5-5.8
		c0,0-0.2-0.3-0.2-0.3c-0.3-0.6-0.6-1.1-1-1.7c-3.3-5.7-8.3-9.9-12.7-14.6c-1.6-1.7-4.4-3.5-2.2-6.2c1.9-2.5,4.6-1.1,6.8,0
		c8.8,4.4,16.4,10.6,23.5,17.3c0.8,0.7,1.2,1.5,2.4,1.3c1.2,1.4,2.3,2.8,3.5,4.1c5.6,5.9,11.8,11.3,16.6,18
		C118.7,195,117.4,195.1,116.1,195.2z"/>
	<path class="st4" d="M411.4,197.6c11.6-13.9,24-27,38.9-37.6c0.6-0.5,1.1-1.2,1.6-1.8c2.8-1.4,5.5-2.8,8.3-4.1c2.1-1,4.5-2.1,6.3,0
		c2.1,2.5-0.3,4.2-1.8,5.8c-2,2.3-4.2,4.6-6.3,6.9c-5.1,3.9-8.3,9-9.6,15.3c0,0,0.1-0.1,0.1-0.1c-0.3,0.3-0.6,0.6-0.8,0.9
		c-3.2,2.4-6.7,4.2-10.7,4.8c-9.8,1.6-18.8,4.6-25.6,12.4C411.7,199.2,411.5,198.4,411.4,197.6z"/>
	<path class="st0" d="M41.2,244.8c4.9,0.1,9.9,0.2,14.8,0.2c5.7-0.1,10.2,2.1,13.3,7c1.8,2.7,3.2,5.8,6.5,7.1
		c1.3,2.2,2.5,4.5,4.2,7.4c-12.4-2.7-23.5-0.6-33.9,5.5C43.7,263.1,41,254.2,41.2,244.8z"/>
	<path class="st0" d="M94.9,230c-3.3,0.8-6.8-0.9-10.1,0.9c-0.4-0.8-1.1-0.9-1.9-0.9l0,0c-0.9-2.1-3-2.4-4.8-3.1
		c-11-4.1-22.4-7-34-9c1.5-6.7,4.8-12.5,8.5-18.1c1-1.5,2.4-2.8,2.4-4.7c3.2,2,6.5,3.9,9.7,6.1c4.6,3.2,7.5,7.6,8.8,12.9
		c1.8,7,6.4,10.4,13.1,12C89.4,226.8,93.5,225.8,94.9,230z"/>
	<path class="st0" d="M120,194.9c-4.8-6.7-11-12.1-16.6-18c-1.2-1.3-2.3-2.7-3.5-4.1c10.1-5.8,14.5-15.6,18.1-25.9
		c5.6,1,6.5,2.4,4.7,7.6c-0.6,1.6-0.7,3.2-0.7,4.9c-0.1,11.8-0.1,23.6-0.1,35.4C121.2,194.9,120.6,194.9,120,194.9z"/>
	<path class="st6" d="M365.8,132.4c-2.5,4.3-2.5,4.3-7.9-0.7c-1.6-1.8-3.2-3.7-6.1-2.8c-0.7-5.8,1.8-11.2,1.9-16.9
		c0.2-1.2,0.4-2.5,0.5-3.7c1.6-3.8,2.6-7.8,7.9-8.4c9.6-1,13,1.9,11.6,11.3c-0.7,4.8,1.4,9.2,0.9,13.8c0,0-0.4,0-0.4,0
		s-0.4,0.2-0.4,0.2c-0.6-0.2-1.1-0.4-1.7-0.5c-2.6-1.5-3.8-2.8-1.3-5.9c2.2-2.7,1.4-6.8,0.6-10.1c-0.7-2.9-3.4-0.7-5.1-0.9
		c-1.5-0.1-1.5-1.6-2.5-2.1c-1,1.3-0.5,4.2-2.1,4.3c-8.4,0.5-2.1,2.9-0.8,4.8c0.6,0.9,0.7,2.2,0.9,3.3c0.7,3.1,1.3,6.1,2,9.2
		C364.7,129,365.2,130.7,365.8,132.4z"/>
	<path class="st7" d="M382.1,143c-2.2-5.5-4-11-4.2-17c5,0.9,7.4,5.9,11.9,7.8c2.2,1,3.2,0.7,3.6-1.2c1.1-5.5,4.6-10.6,0.9-16.7
		c-1.6-2.6,2.4-5.3,1.9-8.5c-0.1-0.5,1.2-1,2.1-0.6c2,0.8,3.3,2.1,3.5,4.4c0.4,5.8-0.5,11.5-1.3,17.3c-0.5,3.3-1.1,6.5-1.6,9.8
		c-2.6,7.4-2.5,7.3-10.3,5C386.5,142.7,384.3,143.1,382.1,143z"/>
	<path class="st0" d="M448.4,230.1c-3.2,0-6.4-0.1-9.5-0.1c0.3-2.6,2.5-2.8,4.4-3.1c9-1.3,15.5-5.3,17.9-15c1.2-4.7,3.5-9.7,9.4-11
		c2.5,6.8,2.5,13.8,2,20.9C464.1,223.5,456.2,226.6,448.4,230.1z"/>
	<path class="st0" d="M82.9,231c-6,2.4-12.2,2.8-18.5,1.1c-7.6-2-15.3-2.3-23.1-0.8c0.3-3.9,0.8-7.7,2.4-11.4
		c3.6,0.6,7.1,1.2,10.7,1.9c9.8,1.7,18.9,5.7,28.4,8.3l0,0C82.9,230.4,82.9,230.7,82.9,231z"/>
	<path class="st0" d="M253,265.2c0.1,6.4,0.3,12.7,0.4,19.1c0,0,0-0.2,0-0.2c-5.3,0.2-10.7-0.9-15.9,0.8c4.8-4.8,7.2-10.5,6.4-17.4
		c-0.3-2.4,0.1-4.9,0.1-7.4c2.8-1,4.5,1.7,7,2l0,0C250.6,263.7,251.8,264.4,253,265.2z"/>
	<path class="st3" d="M401,277.1c-0.4,2.6-0.7,5.2-1.1,7.8c-0.7,0.2-1.5,0.4-2.2,0.6c-4.9,0.1-9.8,0.2-14.7,0.2
		c-1.3-1-2.8-0.6-4.2-0.8c-0.4-2.6-0.8-5.2-1.2-7.8C385.4,277.1,393.2,277.1,401,277.1z"/>
	<path class="st3" d="M290.7,285.6c-0.6,0-1.1,0-1.7,0c-0.4-0.4-0.9-0.5-1.4-0.1c-0.6,0-1.2,0-1.8,0c-0.3-0.8-0.6-1.7-0.9-2.5
		c-0.1-1.9-0.2-3.9-0.3-5.8c7.8-0.3,15.5-0.4,23.3,0.1c0,0.9-0.1,1.9-0.1,2.8c-0.3,4.4-2.7,5.5-6.8,5.2
		C297.6,284.9,294.1,284.5,290.7,285.6z"/>
	<path class="st0" d="M457.9,259.1c3-1,4.2-3.8,6-6.1c1.7-2.3,2.9-5.1,6-5.9c-0.1,4.7-1.3,9.2-2.6,13.6c-0.8,2.9,0,4.3,2.6,5.1
		c-5-0.7-10-0.6-15.3,0.6C454.8,263.1,456.8,261.3,457.9,259.1z"/>
	<path class="st8" d="M290.7,285.6c3.4-1.1,6.9-0.7,10.3-0.4c4.1,0.3,6.5-0.8,6.8-5.2c-0.1,2.7,0.6,4.2,3.9,4.1
		c7.9-0.3,15.9-0.1,23.8,0c1.9,0,3.1-0.7,4.2-2c-0.1,2.4,1.2,3,3.4,3c11.9-0.1,23.7-0.1,35.6-0.1c1.4,0.2,2.9-0.1,4.2,0.8
		c-30.3,0.1-60.5,0.1-90.8,0.2C291.7,286,291.2,285.7,290.7,285.6z"/>
	<path class="st0" d="M472.9,230.9c-7.3,2.9-14.7,2.9-22,0c6.9-3.6,14.4-5.5,21.7-7.8C472.7,225.7,472.8,228.3,472.9,230.9z"/>
	<path class="st7" d="M110.5,117c-1.3-1-2.7-1.7-4.4-1.8c-0.4-4.4,1.9-7.8,3.9-11.4c1.1-1.9,3.1-2.1,4.8-1.4c1.9,0.8,0.6,2.9,1,4.1
		C117.5,112,113.7,114.3,110.5,117z"/>
	<path class="st0" d="M448.9,182.1c1.3-6.3,4.5-11.4,9.6-15.3c1.1,1.8,2.7,3.4,2.5,5.7C457.6,176.6,453.6,179.8,448.9,182.1z"/>
	<path class="st8" d="M397.7,285.5c0.7-0.2,1.5-0.4,2.2-0.6c20.2,0.1,40.5,0.1,60.7,0.2c1.8,0,3.7-0.5,5.3,0.8
		C443.1,285.9,420.4,286.5,397.7,285.5z"/>
	<path class="st9" d="M82.8,230c-9.5-2.5-18.6-6.6-28.4-8.3c-3.6-0.6-7.1-1.2-10.7-1.9c0.1-0.7,0.2-1.3,0.4-2c11.6,2,22.9,4.8,34,9
		C79.9,227.6,81.9,227.9,82.8,230z"/>
	<path class="st9" d="M472.6,223.1c-7.3,2.3-14.9,4.2-21.7,7.8c-1,0.1-1.9,0.1-2.5-0.9c7.8-3.5,15.8-6.6,24.2-8.2
		C472.6,222.3,472.6,222.7,472.6,223.1z"/>
	<path class="st0" d="M83.2,177c0.8,1.9,1.7,3.9,2.5,5.8c-2.2-0.4-3.9-1.4-4.9-3.6C81.6,178.5,82.4,177.7,83.2,177z"/>
	<path class="st8" d="M264.6,285.5c0-0.4,0.1-0.9,0.1-1.3c2.2-0.7,5.5,1.2,6.5-2.5c0.7,1.2,0.3,2.5,0.2,3.8
		C269.2,286.3,266.9,286.2,264.6,285.5z"/>
	<path class="st8" d="M285,282.9c0.3,0.8,0.6,1.7,0.9,2.5c-1.3,0.8-2.6,0.8-3.9,0c0-0.5,0-1,0.1-1.5
		C283.1,283.9,284.3,284.2,285,282.9z"/>
	<path class="st8" d="M273.6,285.5c0.8-0.4,1.6-0.4,2.5,0C275.3,286.2,274.5,286.2,273.6,285.5z"/>
	<path class="st0" d="M82.1,175c0.3,0.6,0.6,1.1,1,1.7C82.2,176.4,82,175.8,82.1,175z"/>
	<path class="st8" d="M287.7,285.5c0.5-0.4,0.9-0.3,1.4,0.1C288.5,286,288.1,285.9,287.7,285.5z"/>
	<path class="st8" d="M257.6,285.5c0.5,0,1,0,1.5,0C258.6,286,258.1,286.1,257.6,285.5z"/>
	<path class="st7" d="M110.2,119.7c-0.1-0.2-0.1-0.4,0.1-0.5c0,0,0.2,0.3,0.2,0.3L110.2,119.7z"/>
	<path class="st5" d="M146.1,137c8.6,0.9,15.1,7.3,17.9,15.8c1.7,5.3,2.1,10.8,3.6,16.1c1.8,6.3-2.2,12.5-2.2,18.9
		c0,2.8-2.7,3.3-5.3,3.3c-2.9-0.1-2.4-2.1-2.4-3.9c0-6.4,0-12.8,0-20.5c-2.3,2.5-2.1,4.4-1.7,5.9c1.3,6.1-2.8,11.7-1.5,17.9
		c0.6,3.1-4,1.8-4.6,4.3c-3,0-6,0-9,0c-1.8-3.7-1.8-7.7-1.9-11.7C138.8,167.4,141.5,152.1,146.1,137z"/>
	<path class="st10" d="M146.1,137c-4.6,15-7.3,30.4-7.1,46.2c0,3.9,0.1,8,1.9,11.7c-3.6,0-7.3,0-10.9,0c0.6-19.2,1.2-38.5,1.9-57.7
		c0.7-0.1,1.4-0.3,2.1-0.4c0.4,2.1-1.4,5,1.6,6.1c3.4,1.2,5.6-1.1,7.4-3.6c0.6-0.9,0.7-2.1,1-3.2C144.9,136,145.7,136.2,146.1,137z"
		/>
	<path class="st10" d="M191.7,130c0,0.6,0,1.2,0,1.8c-5.4,2.8-8.4,7.1-8.6,13.3c0,1.6,0.2,3.6,1.7,4.3c1.5,0.7,1.8-1.5,2.9-2.1
		c1.6-0.8,3.2-1.6,4.8-2.3c0.1,0.4,0.2,0.7,0.3,1.1c-1.2,0.8-2.6,1.5-3.7,2.4c-1,0.8-2.4,1.7-1.8,3.2c0.6,1.4,2.1,1.3,3.4,1.5
		c2.2,0.3,4.1-0.9,6.2-1.3l0.1,0.1c-1.8,4.2-5.6,3.6-8.5,2.7c-3.7-1.1-3.9,1-4.4,3.3c-0.5,2.1,0.4,3.9,1.1,5.8
		c0.8,2,1.8,2.6,3.4,0.5c1.7-2.3,4.1-3.9,6.8-4.8c2.2-0.8,4.5-0.6,5.9,1.4c1.4,1.9,0.8,4.1-0.7,5.9c-2.8,3.2-5.9,5.3-10.4,3.9
		c-1.3-0.4-2.6-0.9-3.4,0.8c-1.7,3.8-1,7.4,1,10.9c2.2,4,4.1-0.8,6.2-0.2c-1.4,3.2-0.6,4.6,3,3.8c1-0.2,1.9-0.5,2.8-0.9
		c2-0.7,4.1-1.6,3-4.2c-1-2.7-3.2-1.6-5-0.8c-1.3,0.6-2.2,2-3.9,2c0.4-3.4,3.4-3.8,5.8-4.6c2.4-0.9,4.1,0.5,5.2,2.6
		c1.1,2.2,0.3,3.8-1.5,5.2c-2.1,1.6-4.5,2.9-6.9,2.6c-6.5-0.8-6.4,2.7-5.4,7.2c-0.6-0.1-1.2-0.1-1.9-0.2c-0.4-5.2-3.4-10-4-14.6
		c-1.2-8-2.8-16.1-2.4-24.3c0.1-2,0.5-3.8-0.3-5.8C179.3,141.7,183.1,133.6,191.7,130z M192.7,169.1c3.2-0.6,6.1-2,7.1-5.6
		c0.6-2-1-2.5-2.7-2.4c-2.3,0-8,4.2-7.9,5.9C189.3,169.1,191.1,168.8,192.7,169.1z"/>
	<path class="st7" d="M132,126.3c0.2-1.4,0.5-2.8,0.7-4.2c1.3-2.6,0.6-6.7,5.4-6.3c3.6,0.3,7.3,0,7.6,5.1c0.1,1.2,1.1,0.8,1.7,0.1
		c1.2,2.5-1.3,4.1-1.6,6.2C141.1,129.9,136.5,129.4,132,126.3z"/>
	<path class="st7" d="M189.2,194.8c0.6,0.1,1.2,0.1,1.9,0.2c3.3,2.1,6.5,0.9,9.8,0c0.7,0,1.3,0.1,2,0.1c0,0.5,0.1,0.9,0.1,1.4
		c-8.4,1-16.9,0.4-25.4,0.4c-19.8,0.1-39.5-0.1-59.3-0.2c3.6-1.8,7.9,1.1,11.4-1.6c0,0,0.3-0.2,0.3-0.2c3.6,0,7.3,0,10.9,0
		c3,0,6,0,9,0c2.6,0.4,4.8,0.1,7.2-1.6c2.2-1.5,5.9-3.6,6.8,1.8c8.3,1.6,16.6,1.3,24.9,0.1C188.9,195.1,189.1,194.9,189.2,194.8z"/>
	<path class="st6" d="M147.5,121c-0.6,0.7-1.6,1.2-1.7-0.1c-0.4-5.1-4.1-4.8-7.6-5.1c-4.8-0.4-4.1,3.7-5.4,6.3
		c-2.3-2.5-2.2-5.1-0.1-7.5c2.7-3.1,6.4-3.8,10-2.2c2.6,1.2,5.4,2.8,4.9,6.6C147.5,119.7,147.5,120.4,147.5,121z"/>
	<path class="st6" d="M132,126.3c4.5,3.1,9.1,3.6,13.9,0.9c0,2.3-0.4,4.5-2,6.3c-3,2.1-6,1.7-8.9-0.1
		C132.5,131.7,133.8,128.4,132,126.3z"/>
	<path class="st7" d="M134.9,133.5c3,1.8,5.9,2.1,8.9,0.1c0,0.8,0.1,1.6,0.1,2.4c-0.3,1.1-0.4,2.4-1,3.2c-1.8,2.5-4,4.8-7.4,3.6
		c-3.1-1.1-1.2-4-1.6-6.1C134.3,135.6,134.6,134.6,134.9,133.5z"/>
	<path class="st11" d="M188.8,195.2c-8.3,1.1-16.6,1.4-24.9-0.1C172.2,195.1,180.5,195.2,188.8,195.2z"/>
	<path class="st0" d="M282,246.8c1.4-14.7,1.9-29.4,2.6-44.1c0.1-2.5,0.6-4.9-0.7-7.3c-0.4-5.1,0-10.2-0.7-15.3
		c-1.7-12.2-2.9-24.5,2.3-36.5c1-2.3,3.5-5.9-0.6-8.4c2.2-0.6,2.4-2.4,3-4.1c2.4-7.1,2-14.4,2-21.7c0-10.2,0-10.2,10.1-10.4
		c8.3,0.1,11.5,2.5,11.9,9.1c-4.6,6.8-3.7,11.2,2.9,15.6c6.3,4.3,13.5,5.8,20.9,7.1c-1.3,0.4-3.5,0.2-2.5,2.5
		c3.1,6.9,6.1,14,14.6,16c0.3,6.4-1.8,13.5,5.3,18c-0.8,2.6-1.8,5.1-0.6,7.9c-0.1,0.1-0.3,0.3-0.4,0.4c-12-0.1-23.9-0.3-35.9-0.1
		c-4.7,0.1-8.2,2.7-9,7.7c-0.4,2.6-1.3,4-4.4,4.1c-5.7,0.3-8.3,3.4-9.1,9.1c-0.9,6.9-2.6,13.7-3.1,20.6c-0.6,7.8-3.1,15.3-2.7,23.2
		c-0.5,2.3-1,4.5-1.5,6.8C284.9,246.8,283.4,246.8,282,246.8z"/>
	<path class="st0" d="M200.9,194.9c-3.3,1-6.5,2.1-9.8,0c-0.9-4.5-1-8,5.4-7.2c2.4,0.3,4.8-1,6.9-2.6c1.8-1.4,2.6-3,1.5-5.2
		c-1.1-2.2-2.8-3.5-5.2-2.6c-2.4,0.9-5.4,1.2-5.8,4.6l0,0c-2.1-0.6-4,4.2-6.2,0.2c-1.9-3.5-2.7-7.1-1-10.9c0.8-1.7,2-1.2,3.4-0.8
		c4.5,1.5,7.7-0.7,10.4-3.9c1.6-1.8,2.1-4,0.7-5.9c-1.4-1.9-3.7-2.2-5.9-1.4c-2.7,1-5.1,2.6-6.8,4.8c-1.6,2.1-2.7,1.5-3.4-0.5
		c-0.7-1.8-1.6-3.7-1.1-5.8c0.5-2.2,0.7-4.4,4.4-3.3c2.9,0.9,6.7,1.4,8.5-2.7c1.9,0.9,3.6,2.3,6,1.8c12.7-2.8,23.8-8.3,31.9-18.8
		c3-3.8,2.9-7.9-0.3-11.7c-1-1.1-2.1-2.2-3.1-3.2c0.4-8,4.3-11.7,14.2-13c3.7,0.7,1.6,3,1.1,4.6c-2.6,9.1-5.1,18.2-1,27.5
		c-0.1,3.5,0.1,6.8,1.5,10.2c1.9,4.5,4,9.3,4.3,14.1c0.6,9.5,3.2,18.9,2.4,28.6c-0.1,1.7,0.7,3.5,1,5.3c-0.7,16-1.4,31.9-2.1,47.9
		c-2.6,0.7-3.1,2.8-3.1,5.1l0,0c-2.8,0.8-2.7,3.4-2.9,5.4c-0.2,2.1-1.1,2.8-3,2.8c-1.1-9.9,0.8-19.7-0.1-29.6
		c-0.6-6.9-0.1-14-0.2-21c0-1.6,0.9-3.9-1.9-4.5c-0.1-2.5-1.8-3-3.9-3.2c0-1.6-0.3-2.9-2.2-3.1c0-0.3,0-0.6,0.1-0.9
		c-7.2-2.2-14.5-0.4-21.7-0.9c-0.2-0.1-0.3-0.1-0.5-0.2c-0.3-5.4-3.5-7.4-8.2-5.1C203.2,190.9,201.9,192.8,200.9,194.9z"/>
	<path class="st0" d="M258,102.9c7.8-2.1,15.7-3.8,23.8-3.9c1.5,3.3,5,5.6,3.9,10.1c-1.8,7.5-3.8,14.8-6.9,21.9
		c0.8-2.6-1.6-4.1-2.1-6.2c0.3-2.6-1.3-4-3.3-4.9c-4.4-2.1-10.6-0.5-12.9,3.2c-2.7,4.3-1.4,8,4.2,11.9c2.1,1.3,0.7,2.7,0.2,4.2
		c-0.8,2.5-2.5,5-1,7.8c-2.1-3.8-7.7-4.3-8.5-9.3c-0.1-0.5-1.7-0.7-2.6-1c0.7-1.8,0.7-3.6,0.4-5.6c-1.3-9.6-4.9-19.8,4.7-27.6
		C258,103.3,258,103.1,258,102.9z"/>
	<path class="st12" d="M231.5,120c1,1.1,2.1,2.1,3.1,3.2c3.2,3.8,3.3,7.9,0.3,11.7c-8.1,10.5-19.2,16-31.9,18.8
		c-2.4,0.5-4.1-0.8-6-1.8c0,0-0.1-0.1-0.1-0.1c-1.4-1.9-2.7-3.9-4.1-5.8c-0.1-0.4-0.2-0.7-0.3-1.1c-0.5-1.4-0.6-2.8,0.4-4
		c0-1,0-1.9,0-2.9c0.4,4.8,3.1,4,6.3,3c11.3-3.6,20.7-10.1,29.3-18.2c2.2-2.1,1-4.7,1.8-7.4C230.8,117.3,231.1,118.6,231.5,120z"/>
	<path class="st12" d="M335.7,130.7c-7.3-1.2-14.5-2.8-20.8-7.1c-6.6-4.5-7.6-8.8-2.9-15.6c3.3,2.1,6.6,4.2,9.8,6.3
		c8.3,5.3,17.6,5,26.9,4.5c1.6-0.1,3.2-1,3.2-3.1c0-1.6,0.4-2.9,1.9-3.7c-0.1,5.7-2.6,11.1-1.9,16.9c-1.4,0.7-2.7,1.3-4.1,2
		C343.7,130.8,339.7,130.8,335.7,130.7z"/>
	<path class="st7" d="M278.9,131c3.1-7.1,5.1-14.4,6.9-21.9c1.1-4.5-2.4-6.8-3.9-10.1c0.6-0.5,1.6-0.9,1.8-1.6
		c1.5-4.3,2.7-4.7,5.4-1.3c1.6,1.9,3.2,1.9,5.1,2c1.9,0.1,4-0.5,5.8,0.8c-10.1,0.3-10,0.3-10.1,10.4c0,7.3,0.4,14.6-2,21.7
		c-0.6,1.8-0.9,3.6-3,4.1c-3.5-0.7-7.8-2.8-7.2,4c0.1,1.2-1,1.6-2,1.9c-1.2,0.5-2,1.4-1.7,2.7c0.4,2,0.9,4.3-1.6,4.9
		c-2.9,0.7-6.3,1.5-8.6-1.8c-1.5-2.8,0.1-5.3,1-7.8c0.5-1.5,1.9-2.9-0.2-4.2c-0.2-0.8-0.5-1.5-0.7-2.3c0.4-0.4,0.9-0.7,1.3-1.1
		c0.5-0.2,1-0.4,1.5-0.6C270.8,134.5,274.8,131.8,278.9,131z"/>
	<path class="st7" d="M258,102.9c0,0.2,0,0.4-0.1,0.5c-9.6,7.8-6,18-4.7,27.6c0.3,2.1,0.3,3.8-0.4,5.6c-2.3,0.8-4.6,1.6-6.9,2.3
		c-4.1-9.3-1.5-18.4,1-27.5c0.4-1.6,2.6-3.9-1.1-4.6C249.3,104.1,253.6,103.4,258,102.9z"/>
	<path class="st0" d="M192.9,141c-1.1,1.2-0.9,2.6-0.4,4c-1.6,0.8-3.3,1.5-4.8,2.3c-1.1,0.6-1.4,2.8-2.9,2.1
		c-1.6-0.7-1.8-2.7-1.7-4.3c0.2-6.1,3.2-10.5,8.6-13.3C192.5,134.9,191.1,138.2,192.9,141z"/>
	<path class="st1" d="M282,246.8c1.5,0,2.9,0,4.4,0c36.1,0.1,72.1,0.2,108.2,0.2c1.5,0,3.1,0.2,3.4-2c2.2,1.4,4.4,2.4,7.1,1.6
		l0.4,0.1l0.4-0.1c1.3,0.2,2.7,0.3,4,0.5c0.1,3.5,0.1,7,0.3,10.5c0.1,1.4-0.5,3.1,1.5,3.7c0.1,3.6,0,7.2,0.3,10.8
		c0.3,3.5-0.6,5.3-4.5,4.8c-2.1-0.2-4.3,0.1-6.4,0.2c-7.8,0-15.6,0-23.3,0c-11.8,0-23.6,0-35.4,0c-11.4,0-22.9,0.1-34.3,0.1
		c-7.8-0.5-15.5-0.4-23.3-0.1c-2.2-0.1-4.5-0.3-6.7-0.4C278.8,266.7,279.9,256.7,282,246.8z"/>
	<path class="st6" d="M411.4,197.6c0.2,0.8,0.3,1.6,0.5,2.4c1,7.4,3.7,14.4,4.1,21.9c-0.3,2.3,1,6.5-3.8,3.1c-0.7-1.7-1.5-3.3-2.2-5
		c-1.5-4.1-2.2-8.6-4.9-12.2c-0.2-1.4-0.5-2.8-2.3-3.6c-1,3-1.9,5.7-2,8.7c-1.6,5.4-3.1,10.7-4.7,16.1c-2.9,0.4-4.7-0.4-4.1-3.8
		c-0.9-8.8,2.1-17.4,1.1-26.1c1.8-2.4,1.3-5.3,1.8-7.9c0.6-3-0.8-3.9-3.5-3.3c-1.3,0.3-2.5,0.5-3.8,0.8c-6.8,0-13.6,0.8-20.2-0.2
		c-13-1.9-14.2-2.1-15.2-13c0.2-0.1,0.3-0.2,0.4-0.4c4,1.8,7.9,1.4,11.5-1.2c2.6,1.9,5.2,3.9,7.9,5.7c1.9,1.2,4.6-1,4.1-1.4
		c-2.4-2-1.3-5.8-4.2-7.1c3.1-2,7.3-1.6,10.3-4c6.2,2.2,12.5,4.1,18.6,6.5c3.9,1.6,6.1,5,7,9.1C408.8,187.7,410.1,192.7,411.4,197.6
		z"/>
	<path class="st3" d="M412.1,225c4.8,3.4,3.6-0.8,3.8-3.1c2.7,2.4,7-0.2,10.1,3.8c-4.8,0.3-7.2,3.7-10.2,6.3c0,0,0,0,0,0
		c-0.3-1.1,1.8-2.9-1.2-3.1C412.3,228.8,412.3,226.8,412.1,225z"/>
	<path class="st3" d="M405.8,246.6l-0.4,0.1c0,0-0.4-0.1-0.4-0.1c-0.1-1.3,0.8-2.1,1.9-2.6l0,0C406.9,245,406.5,245.9,405.8,246.6z"
		/>
	<path class="st3" d="M411.8,237c0,0.8-0.2,1.5-1,2c0,0,0,0,0,0C410.9,238.2,411.1,237.5,411.8,237L411.8,237z"/>
	<path class="st3" d="M458.9,189c-0.4,0.8-1.2,1-2,1l0,0C457.3,189.3,458.1,189,458.9,189L458.9,189z"/>
	<path class="st3" d="M452.9,193c0.4-0.8,1.2-1,2-1c0,0,0,0,0,0C454.4,192.8,453.7,193,452.9,193L452.9,193z"/>
	<path class="st3" d="M408.8,241c0,0.8-0.2,1.6-1,2c0,0,0,0,0,0C407.9,242.2,408.1,241.5,408.8,241L408.8,241z"/>
	<path class="st3" d="M414.9,233c0,0.8-0.3,1.5-1,2c0,0,0,0,0,0C413.9,234.2,414,233.5,414.9,233L414.9,233z"/>
	<path class="st0" d="M438.9,230c-0.4,0.9-1.2,0.9-2,1C437.3,230.2,438,229.8,438.9,230z"/>
	<path class="st3" d="M451.9,194c-0.1,0.1-0.3,0.3-0.4,0.4c0-0.1,0-0.2,0.1-0.3C451.6,194.1,451.8,194.1,451.9,194
		C451.9,194,451.9,194,451.9,194z"/>
	<path class="st3" d="M452.9,193c-0.3,0.3-0.7,0.7-1,1c0,0,0,0,0,0C452.2,193.7,452.6,193.4,452.9,193
		C452.9,193,452.9,193,452.9,193z"/>
	<path class="st3" d="M455.9,191c-0.3,0.3-0.7,0.7-1,1c0,0,0,0,0,0C455.2,191.7,455.6,191.4,455.9,191
		C455.9,191,455.9,191,455.9,191z"/>
	<path class="st3" d="M456.9,190c-0.3,0.3-0.7,0.7-1,1c0,0,0,0,0,0C456.2,190.7,456.6,190.4,456.9,190
		C456.9,190,456.9,190,456.9,190z"/>
	<path class="st3" d="M458.9,189c0.1-0.2,0.3-0.3,0.4-0.5c0,0.1,0,0.2-0.1,0.2C459.1,188.9,459,189,458.9,189
		C458.9,189,458.9,189,458.9,189z"/>
	<path class="st0" d="M448.1,182.9c0.3-0.3,0.6-0.6,0.8-0.9C448.6,182.3,448.4,182.6,448.1,182.9z"/>
	<path class="st3" d="M410.9,239c-0.3,0.3-0.7,0.7-1,1c0,0,0,0,0,0C410.2,239.7,410.6,239.4,410.9,239
		C410.9,239,410.9,239,410.9,239z"/>
	<path class="st3" d="M415.9,232c-0.3,0.3-0.7,0.7-1,1c0,0,0,0,0,0C415.2,232.7,415.6,232.4,415.9,232
		C415.9,232,415.9,232,415.9,232z"/>
	<path class="st3" d="M413.9,235c-0.3,0.3-0.7,0.7-1,1c0,0,0,0,0,0C413.2,235.7,413.6,235.4,413.9,235L413.9,235z"/>
	<path class="st3" d="M412.9,236c-0.3,0.3-0.7,0.7-1,1c0,0,0,0,0,0C412.2,236.7,412.6,236.4,412.9,236
		C412.9,236,412.9,236,412.9,236z"/>
	<path class="st3" d="M407.9,243c-0.3,0.3-0.7,0.7-1,1c0,0,0,0,0,0C407.2,243.7,407.6,243.4,407.9,243L407.9,243z"/>
	<path class="st3" d="M409.9,240c-0.3,0.3-0.7,0.7-1,1c0,0,0,0,0,0C409.2,240.7,409.6,240.4,409.9,240
		C409.9,240,409.9,240,409.9,240z"/>
	<path class="st11" d="M241.9,203.2c2.7,0.6,1.8,2.8,1.9,4.5c0.1,7-0.5,14,0.2,21c0.9,9.9-1,19.8,0.1,29.6c0,0.6,0,1.2-0.1,1.8
		c-0.1,2.5-0.4,5-0.1,7.4c0.9,7-1.6,12.6-6.4,17.4c-0.6-0.1-1.3-0.3-1.9-0.4c-1.5-0.1-2.9-0.4-4.4-0.4c-39,0-77.9,0-116.9,0
		c-4.6-2.8-6.7-6.8-6.4-12.3c0.3-6.2,0-12.5-0.1-18.8c0.1-3.7,1-7.4-0.8-11c1.8-1.4,1-3.4,1-5.1c0.1-9.3-0.1-18.6,0.1-27.9
		c0-2.1-0.9-4.8,1.9-6.2c-0.1,4.6-0.6,9.5,6,10.1c0.1,1,0.5,1.9,1.3,2.6c16.6,13.4,33.2,26.8,49.9,40.1c7.4,5.9,10.7,5.6,17.8-0.1
		c16.9-13.8,34-27.4,51-41.1C239.4,211.6,243.4,208.8,241.9,203.2z"/>
	<path class="st13" d="M115.8,213c-6.6-0.6-6.1-5.5-6-10.1c0.4-3.7,3.6-4.6,6.1-6.1c0.8,0,1.6-0.1,2.4-0.1
		c19.8,0.1,39.5,0.2,59.3,0.2c8.5,0,16.9,0.6,25.4-0.4c0.7,0,1.4,0,2.1,0.1c10.3,0.9,20.5,0.2,30.8,0.4c1.9,0.2,2.2,1.6,2.2,3.1
		c-1,1.1-1.9,2.3-3,3.3c-16.4,14.9-33.3,29.5-50.1,43.9c-3.3,2.8-6.5,3.8-10.7,4c-4.5,0.2-6.4-3-9.1-5.3
		c-14.6-12.6-29.1-25.2-43.7-37.7c-1.2-1-2.1-3.3-3.9-2.5c-1.8,0.8-1.7,3-1.7,4.9C115.9,211.3,115.8,212.2,115.8,213z"/>
	<path class="st8" d="M118.3,196.6c-0.8,0-1.6,0.1-2.4,0.1c0.1-0.5,0.1-1,0.2-1.6c1.3-0.1,2.6-0.2,3.9-0.3c0.6,0,1.2-0.1,1.9-0.1
		c2.6,0.1,5.2,0.1,7.8,0.2C126.2,197.7,121.9,194.9,118.3,196.6z"/>
	<path class="st3" d="M76.9,190c-0.8,0-1.6-0.2-2-1c0,0,0,0,0,0C75.7,189.1,76.4,189.2,76.9,190L76.9,190z"/>
	<path class="st0" d="M96.9,231c-0.8-0.1-1.6-0.2-2-1C95.8,229.8,96.4,230.2,96.9,231z"/>
	<path class="st3" d="M86.9,198c-0.8,0-1.6-0.2-2-1l0,0C85.7,197,86.4,197.3,86.9,198L86.9,198z"/>
	<path class="st3" d="M66.9,183c-0.4-0.1-0.9-0.2-1.3-0.3C66.3,181.7,66.5,182.7,66.9,183C66.8,183,66.9,183,66.9,183z"/>
	<path class="st3" d="M69.9,185c-0.8,0-1.6-0.2-2-1l0,0C68.7,184.1,69.4,184.2,69.9,185C69.9,185,69.9,185,69.9,185z"/>
	<path class="st3" d="M70.9,186c0.8,0,1.6,0.2,2,1c0,0,0,0,0,0C72.1,187,71.3,186.8,70.9,186L70.9,186z"/>
	<path class="st3" d="M88.9,200c-0.3-0.3-0.7-0.7-1-1c0,0,0,0,0,0C88.2,199.4,88.5,199.7,88.9,200L88.9,200z"/>
	<path class="st3" d="M91.9,203c0.1,0.1,0.3,0.3,0.4,0.4c-0.1,0-0.2,0-0.2-0.1C92,203.3,91.9,203.1,91.9,203L91.9,203z"/>
	<path class="st3" d="M91.9,203c-0.3-0.3-0.7-0.7-1-1c0,0,0,0,0,0C91.2,202.4,91.5,202.7,91.9,203C91.9,203,91.9,203,91.9,203z"/>
	<path class="st3" d="M86.9,198c0.3,0.3,0.7,0.7,1,1c0,0,0,0,0,0C87.6,198.7,87.2,198.3,86.9,198C86.9,198,86.9,198,86.9,198z"/>
	<path class="st3" d="M89.9,201c0.3,0.3,0.7,0.7,1,1c0,0,0,0,0,0C90.6,201.7,90.2,201.3,89.9,201C89.9,201,89.9,201,89.9,201z"/>
	<path class="st3" d="M76.8,190c0.1,0.1,0.3,0.3,0.4,0.4c-0.1,0-0.2,0-0.3-0.1C77,190.3,76.9,190.1,76.8,190
		C76.9,190,76.8,190,76.8,190z"/>
	<path class="st3" d="M73.9,188c0.3,0.3,0.7,0.7,1,1c0,0,0,0,0,0C74.6,188.7,74.2,188.3,73.9,188C73.9,188,73.9,188,73.9,188z"/>
	<path class="st3" d="M73.9,188c-0.3-0.3-0.7-0.7-1-1c0,0,0,0,0,0C73.2,187.4,73.5,187.7,73.9,188C73.9,188,73.9,188,73.9,188z"/>
	<path class="st3" d="M88.8,200c0.3,0.3,0.7,0.7,1,1c0,0,0,0,0,0C89.6,200.7,89.2,200.3,88.8,200C88.9,200,88.8,200,88.8,200z"/>
	<path class="st3" d="M70.9,186c-0.3-0.3-0.7-0.7-1-1c0,0,0,0,0,0C70.2,185.4,70.5,185.7,70.9,186C70.9,186,70.9,186,70.9,186z"/>
	<path class="st3" d="M84.9,197c-0.3-0.3-0.7-0.7-1-1l0,0C84.2,196.4,84.5,196.7,84.9,197C84.9,197,84.9,197,84.9,197z"/>
	<path class="st3" d="M67.9,184c-0.3-0.3-0.7-0.7-1-1c0,0,0,0,0,0C67.2,183.4,67.5,183.7,67.9,184C67.9,184,67.9,184,67.9,184z"/>
	<path class="st3" d="M83.9,196c-0.1-0.1-0.3-0.3-0.4-0.4c0.1,0,0.2,0,0.2,0.1C83.8,195.8,83.8,195.9,83.9,196
		C83.9,196,83.9,196,83.9,196z"/>
	<path class="st5" d="M245.8,139c2.3-0.8,4.6-1.6,6.9-2.3c0.9,0.3,2.5,0.5,2.6,1c0.9,5,6.5,5.5,8.5,9.3c2.3,3.3,5.6,2.4,8.6,1.8
		c2.5-0.6,2-2.9,1.6-4.9c-0.3-1.3,0.5-2.2,1.7-2.7c0.9-0.4,2.1-0.7,2-1.9c-0.6-6.8,3.7-4.7,7.2-4c4.1,2.5,1.5,6.1,0.6,8.4
		c-5.2,12-4,24.2-2.3,36.5c0.7,5.1,0.4,10.2,0.7,15.3c-9.3,5.6-18.9,5.3-28.8,1.7c-0.4-1.8-1.2-3.6-1-5.3c0.8-9.7-1.8-19-2.4-28.6
		c-0.3-4.8-2.4-9.5-4.3-14.1C245.9,145.8,245.7,142.5,245.8,139z"/>
	<path class="st0" d="M271.2,281.7c-1.1,3.7-4.3,1.8-6.5,2.5c-5-0.7-5.8-3.7-4.5-8c0.8-2.7,1.2-5.5,1.8-8.2c0.6,0,1.2,0.1,1.8,0.1
		l0,0c0.1,0.6,0.4,1,1,1l0,0c1.1,2.6,4.1,1.6,5.9,2.9C270.9,275.2,271.1,278.4,271.2,281.7z"/>
	<path class="st0" d="M264.7,250.9c1-8.7,2.9-17.2,5.3-25.7c0.5,8.3,1.5,16.6,0.7,24.9C268.7,250.3,266.7,250.6,264.7,250.9z"/>
	<path class="st0" d="M270.9,253c0,1.3,0,2.6,0,3.9c-1.2,0.7-1.3,1.9-1.1,3.1l0,0c-0.7,0-1,0.3-1,1l0,0c-0.7,0-1,0.3-1,1l0,0
		c-1-0.2-1.7,0-2,1l0,0c-1,0-1.9,0.1-2.9,0.1c-0.5-3.1,0.8-6.1,1.1-9.1C266.3,253.7,268.2,250.5,270.9,253z"/>
	<path class="st0" d="M277.9,276.7c2.2,0.1,4.5,0.3,6.7,0.4c0.1,1.9,0.2,3.9,0.3,5.8c-0.7,1.3-1.9,1-3,1
		C278,283,275.5,281.2,277.9,276.7z"/>
	<path class="st0" d="M270.9,260c0,3.3,0,6.7,0,10c-2-0.3-3.9-1.6-6-1c0,0,0,0,0,0c0-0.7-0.4-1-1-1l0,0c-0.8-2.3,2.1-3.1,2-5
		c0,0,0,0,0,0c1,0.3,1.7,0,2-1c0,0,0,0,0,0c0.6-0.1,1-0.4,1-1c0,0,0,0,0,0c0.6-0.1,1-0.4,1-1l0,0C270.2,260,270.5,260,270.9,260z"/>
	<path class="st10" d="M243.9,260.1c0-0.6,0-1.2,0.1-1.8c1.9,0,2.8-0.7,3-2.8c0.2-2.1,0-4.6,2.9-5.4c-1.2,7.2-1.2,7.2,3.6,6.2
		c-0.1,0.5-0.1,1.1-0.2,1.6c-2.7,0.3-2.5,2.3-2.4,4.2C248.5,261.7,246.7,259.1,243.9,260.1z"/>
	<path class="st0" d="M253.5,256.2c-4.8,1-4.8,1-3.6-6.2c0,0,0,0,0,0c1.1-0.7,2.3-1.5,3.4-2.2C254.1,250.6,253.6,253.4,253.5,256.2z
		"/>
	<path class="st10" d="M270.9,253c-2.6-2.5-4.6,0.6-6.8,0.9c0.1-1-0.5-2.3,0.7-3c2-0.3,4-0.5,6-0.8
		C270.8,251.1,270.8,252.1,270.9,253z"/>
	<path class="st10" d="M265.9,263c0.1,2-2.8,2.8-2,5c-0.6,0-1.2-0.1-1.8-0.1c-0.3-1.7-0.2-3.4,0.9-4.8
		C264,263.1,264.9,263,265.9,263z"/>
	<path class="st10" d="M253.3,247.8c-1.1,0.7-2.3,1.5-3.4,2.2c0-2.3,0.5-4.3,3.1-5.1C254.3,245.8,253.5,246.8,253.3,247.8z"/>
	<path class="st0" d="M250.9,262c-0.1-1.9-0.2-3.9,2.4-4.2c0.2,1.4,0.7,2.9-0.4,4.2C252.2,262,251.5,262,250.9,262L250.9,262z"/>
	<path class="st10" d="M264.9,269c2.2-0.6,4,0.7,6,1c0,0.6-0.1,1.3-0.1,1.9C268.9,270.7,266,271.7,264.9,269z"/>
	<path class="st10" d="M250.9,262c0.7,0,1.4,0,2.1,0c0.4,1,0.8,2.1,0.1,3.1C251.8,264.4,250.6,263.7,250.9,262z"/>
	<path class="st10" d="M270.9,260c-0.3,0-0.7,0-1,0c-0.2-1.2-0.2-2.4,1.1-3.1C270.9,258,270.9,259,270.9,260z"/>
	<path class="st14" d="M114.3,284.1c39,0,77.9,0,116.9,0c1.5,0,2.9,0.3,4.4,0.4c-2,0.1-4,0.4-5.9,0.4c-24.3,0-48.6,0-72.8,0
		c-1.7,0-3.3,0.2-5,0.3c-10.9-0.1-21.7-0.1-32.6-0.2C117.6,285,115.7,285.8,114.3,284.1z"/>
	<path class="st2" d="M447.7,245.5c11.2-5,22.9-8.5,35.3-9.1C471.1,239,459.3,241.9,447.7,245.5z"/>
	<path class="st2" d="M435.8,249.9c4.6-2.9,5-3,10.1-3.5c-3.4,2.2-6.4,3.6-9.8,3.8C436,250.2,435.8,249.9,435.8,249.9z"/>
	<path class="st2" d="M97.7,250.2c-4.8-0.2-8.7-3-13.1-4.4c-9.9-3.3-19.8-6.7-30.2-7.9c-1.2-0.1-2.4-0.8-3.5-1.7
		c16.4,1.9,32.2,6.1,47.1,13.7C98,249.9,97.7,250.2,97.7,250.2z"/>
	<path class="st9" d="M82.9,231c0-0.3,0-0.6,0-0.9c0.8-0.1,1.5,0.1,1.9,0.9C84.2,230.9,83.5,231,82.9,231z"/>
	<path class="st7" d="M371.7,171c3,1.3,1.9,5.2,4.2,7.1c0.5,0.4-2.2,2.6-4.1,1.4c-2.7-1.7-5.3-3.8-7.9-5.7
		c-3.2-2.9-6.4-5.8-10.9-6.7c-7.1-4.4-5-11.6-5.3-18c0.3-5.6-0.7-11.3,1.3-16.8c0.5-1.2-0.8-1.2-1.4-1.6c1.4-0.7,2.7-1.3,4.1-2
		c2.9-0.9,4.5,1,6.1,2.8c-0.3,7.6-2.4,15-2.3,22.7c0,2.5,0.5,4.4,2.4,6.1c2.8,2.6,5.3,5.4,8,8C367.6,170,369.3,171.4,371.7,171z"/>
	<path class="st10" d="M372.3,124.7c0.6,0.2,1.1,0.4,1.7,0.5c-0.1,1.6,0.1,3.3-0.5,4.8c-0.5,1.5-1.5,3.9-3.7,1.6
		c-2.1-2.3-2.9-0.3-4.1,0.8c-0.6-1.7-1.1-3.5-1.7-5.2C367.2,127.4,370.5,128.3,372.3,124.7z"/>
	<path class="st7" d="M372.3,124.7c-1.9,3.6-5.1,2.8-8.2,2.6c-0.7-3.1-1.3-6.1-2-9.2c-0.3-1.1-0.3-2.4-0.9-3.3
		c-1.2-1.9-7.5-4.4,0.8-4.8c1.5-0.1,1-2.9,2.1-4.3c1,0.5,1.1,2,2.5,2.1c1.7,0.2,4.4-2,5.1,0.9c0.8,3.3,1.6,7.4-0.6,10.1
		C368.5,121.9,369.8,123.1,372.3,124.7z"/>
	<path class="st2" d="M342.2,277.1c11.8,0,23.6,0,35.4,0c0.4,2.6,0.8,5.2,1.2,7.8c-11.9,0-23.7,0-35.6,0.1c-2.2,0-3.5-0.6-3.4-3
		C340.6,280.4,341.4,278.7,342.2,277.1z"/>
	<path class="st0" d="M342.2,277.1c-0.8,1.6-1.7,3.3-2.5,4.9c-1.1,1.3-2.3,2.1-4.2,2c-7.9-0.1-15.9-0.2-23.8,0
		c-3.3,0.1-4-1.4-3.9-4.1c0-0.9,0.1-1.9,0.1-2.8C319.4,277.1,330.8,277.1,342.2,277.1z"/>
	<path class="st0" d="M192.7,169.1c-1.6-0.3-3.4,0-3.5-2.1c-0.1-1.8,5.6-5.9,7.9-5.9c1.7,0,3.3,0.4,2.7,2.4
		C198.8,167,196,168.5,192.7,169.1z"/>
	<path class="st0" d="M193.9,182c1.7,0.1,2.6-1.4,3.9-2c1.9-0.8,4-1.9,5,0.8c1,2.5-1.1,3.5-3,4.2c-0.9,0.3-1.9,0.7-2.8,0.9
		C193.3,186.6,192.5,185.2,193.9,182C193.9,182,193.9,182,193.9,182z"/>
	<path class="st0" d="M192.8,146.1c1.4,1.9,2.7,3.9,4.1,5.8c-2.1,0.3-4,1.6-6.2,1.3c-1.3-0.2-2.9-0.1-3.4-1.5
		c-0.6-1.5,0.8-2.4,1.8-3.2C190.2,147.6,191.5,146.9,192.8,146.1z"/>
	<path class="st10" d="M200.9,194.9c1-2.1,2.3-4,4.6-5.1c4.7-2.3,7.9-0.4,8.2,5.1c-0.6,0-1.2,0-1.8,0c0.1-1.7-0.1-3.5-2.2-3.8
		c-3.2-0.5-5.2,1.5-6.8,4C202.2,195,201.5,195,200.9,194.9z"/>
	<path class="st0" d="M202.9,195c1.6-2.5,3.6-4.4,6.8-4c2.1,0.3,2.3,2.1,2.2,3.8c-2.4,0.1-4.8,0.1-6.9,1.6c-0.7,0-1.4,0-2.1-0.1
		C202.9,196,202.9,195.5,202.9,195z"/>
	<path class="st1" d="M352.1,175.4c1,10.9,2.2,11.1,15.2,13c6.6,1,13.5,0.2,20.2,0.2c4.1,2.3,3.7,6.9,5.5,10.4
		c1,8.8-2,17.4-1.1,26.1c-2.5,8-1.3,10.2,6,12.1c0,0.9-0.1,1.8-0.1,2.7c-36.6,0-73.2,0-109.8,0c-0.4-7.9,2.1-15.4,2.7-23.2
		c0.5-6.9,2.2-13.7,3.1-20.6c0.8-5.7,3.3-8.8,9.1-9.1c3.1-0.2,3.9-1.5,4.4-4.1c0.8-5,4.3-7.6,9-7.7
		C328.1,175.1,340.1,175.4,352.1,175.4z M367.9,212.7c1.7-14.2-12.7-26.2-25.5-25.8c-15.3,0.5-25.1,11.3-25.3,25.2
		c-0.3,15.2,11.9,25.7,25.9,25.9C357.1,238.1,369.3,225.7,367.9,212.7z"/>
	<path class="st12" d="M287.9,240c36.6,0,73.2,0,109.8,0c0.1,1.7,0.2,3.4,0.3,5c-0.3,2.1-1.9,2-3.4,2c-36.1-0.1-72.1-0.1-108.2-0.2
		C286.9,244.5,287.4,242.3,287.9,240z"/>
	<path class="st10" d="M347.7,130.9c0.6,0.4,1.8,0.3,1.4,1.6c-2,5.5-1,11.2-1.3,16.8c-8.5-2-11.5-9.1-14.6-16
		c-1-2.3,1.3-2.1,2.5-2.5C339.7,130.8,343.7,130.8,347.7,130.9z"/>
	<path class="st5" d="M353.1,167.2c4.4,0.9,7.6,3.9,10.9,6.7c-3.6,2.5-7.4,2.9-11.5,1.2C351.3,172.3,352.2,169.8,353.1,167.2z"/>
	<path class="st14" d="M115.8,213c0-0.8,0-1.7,0-2.5c0-1.9-0.1-4.1,1.7-4.9c1.8-0.8,2.7,1.5,3.9,2.5c14.6,12.5,29.1,25.1,43.7,37.7
		c2.7,2.3,4.6,5.5,9.1,5.3c4.2-0.1,7.5-1.2,10.7-4c16.8-14.5,33.7-29,50.1-43.9c1.1-1,2-2.2,3-3.3c2,0.1,3.7,0.7,3.9,3.2
		c1.5,5.7-2.5,8.4-6.1,11.3c-17,13.7-34,27.4-51,41.1c-7.1,5.8-10.5,6-17.8,0.1c-16.7-13.3-33.2-26.8-49.9-40.1
		C116.3,214.9,115.9,214,115.8,213z"/>
	<path class="st7" d="M205,196.5c2.1-1.5,4.5-1.5,6.9-1.6c0.6,0,1.2,0,1.8,0c0.2,0.1,0.3,0.1,0.5,0.2c1.3,1.6,3,0.8,4.6,0.9
		c5.7,0.1,11.4,0.1,17.1,0.1c0,0.3,0,0.6-0.1,0.9C225.5,196.6,215.3,197.3,205,196.5z"/>
	<path class="st8" d="M235.9,196c-5.7,0-11.4,0-17.1-0.1c-1.5,0-3.3,0.7-4.6-0.9C221.4,195.6,228.7,193.8,235.9,196z"/>
	<path class="st3" d="M264,132.7c0.2,0.8,0.5,1.5,0.7,2.3c-5.5-3.9-6.8-7.6-4.2-11.9c2.3-3.7,8.5-5.3,12.9-3.2
		c2.1,1,3.6,2.3,3.3,4.9c-3.1,2.3-7.7,2.3-9.9,6.1c-0.5,0.2-1,0.4-1.5,0.6c-0.6-0.6-1.5-0.9-2.1-0.2
		C262.7,131.9,263.4,132.3,264,132.7z"/>
	<path class="st8" d="M266.8,130.9c2.2-3.8,6.8-3.8,9.9-6.1c0.5,2.1,3,3.6,2.1,6.2C274.8,131.8,270.8,134.5,266.8,130.9z"/>
	<path class="st2" d="M398,245c-0.1-1.7-0.2-3.4-0.3-5c0-0.9,0.1-1.8,0.1-2.7c1-0.4,3.6,0.3,1.7-2.4c-1.2-1.7-1.9-3.8-2.8-5.8
		c1.2-0.8,2-1.8,3.6-2.3c3.9-1.2,7.3-3.2,9.6-6.8c0.7,1.7,1.5,3.3,2.2,5c0.2,1.8,0.2,3.8,2.6,4c3,0.1,0.9,2,1.2,3.1
		c-0.3,0.3-0.7,0.7-1,1c-0.8,0.4-1,1.2-1,2c-0.3,0.3-0.7,0.7-1,1c-0.3,0.3-0.7,0.7-1,1c-0.8,0.4-1,1.2-1,2c-0.3,0.3-0.7,0.7-1,1
		c-0.3,0.3-0.7,0.7-1,1c-0.8,0.4-1,1.2-1,2c-0.3,0.3-0.7,0.7-1,1c-1.1,0.5-1.9,1.2-1.9,2.6C402.4,247.4,400.1,246.5,398,245z"/>
	<path class="st4" d="M409.9,220c-2.3,3.6-5.7,5.7-9.6,6.8c-1.6,0.5-2.4,1.5-3.6,2.3c-0.3-0.1-0.5-0.1-0.8-0.2
		c1.6-5.4,3.1-10.7,4.7-16.1c1.4-1.7,2.9-3.4,4.3-5.1C407.6,211.5,408.3,215.9,409.9,220z"/>
	<path class="st3" d="M395.9,229c0.3,0.1,0.5,0.1,0.8,0.2c0.9,1.9,1.6,4,2.8,5.8c1.9,2.7-0.6,2-1.7,2.4c-7.3-1.9-8.4-4.2-6-12.1
		C391.3,228.6,393,229.4,395.9,229z"/>
	<path class="st0" d="M393,199.1c-1.8-3.5-1.4-8.2-5.5-10.4c1.3-0.3,2.5-0.6,3.8-0.8c2.7-0.6,4.1,0.3,3.5,3.3
		C394.3,193.8,394.8,196.7,393,199.1z"/>
	<path class="st8" d="M404.9,207.8c-1.4,1.7-2.9,3.4-4.3,5.1c0-3,1-5.7,2-8.7C404.4,205,404.7,206.4,404.9,207.8z"/>
	<path class="st10" d="M263.9,268c0.7,0,1,0.3,1,1C264.3,269,263.9,268.6,263.9,268z"/>
	<path class="st10" d="M267.9,262c-0.3,1-1.1,1.3-2,1C266.2,262.1,266.9,261.8,267.9,262z"/>
	<path class="st10" d="M268.9,261c-0.1,0.6-0.4,1-1,1C267.9,261.3,268.2,261,268.9,261z"/>
	<path class="st10" d="M269.9,260c-0.1,0.6-0.4,1-1,1C268.9,260.4,269.2,260,269.9,260z"/>
	<path class="st12" d="M367.9,212.7c1.4,13-10.8,25.4-24.9,25.2c-14-0.1-26.1-10.6-25.9-25.9c0.2-13.9,10-24.6,25.3-25.2
		C355.2,186.5,369.6,198.5,367.9,212.7z M342.7,234.2c12.1,0,21.9-9.6,22-21.7c0.1-11.9-9.8-21.9-21.8-22.1
		c-12.1-0.2-22.3,10-22.2,22.1C320.7,224.5,330.5,234.2,342.7,234.2z"/>
	<path class="st7" d="M264,132.7c-0.5-0.3-1.2-0.8-0.7-1.3c0.6-0.6,1.4-0.3,2.1,0.2C264.8,131.9,264.4,132.3,264,132.7z"/>
	<path class="st10" d="M342.7,234.2c-12.2,0-22-9.7-22-21.7c0-12.2,10.2-22.3,22.2-22.1c12,0.2,21.9,10.2,21.8,22.1
		C364.6,224.6,354.8,234.3,342.7,234.2z M339.5,197.2c-0.2-1.6-1.3-2.7-2.8-2.9c-1.8-0.2-2.7,1-2.7,2.7c-0.1,1.7,0.8,2.8,2.6,2.9
		C338.4,200,339.1,198.8,339.5,197.2z M332.7,202c-0.5-1.2-1.2-2.7-3-2.5c-1.6,0.2-2.7,1.3-2.7,3.1c0.1,1.6,1.1,2.3,2.7,2.4
		C331.5,205,332.5,204.1,332.7,202z M335.5,225.3c-0.2-1.6-1.1-2.8-2.8-2.8c-1.4,0-2.6,0.8-2.7,2.3c-0.2,1.7,0.7,2.9,2.4,3.1
		C334.2,228.2,335,226.9,335.5,225.3z M360.7,206.1c-0.4-1.5-1.3-2.8-3-2.7c-1.6,0.2-2.7,1.5-2.6,3.1c0.1,1.8,1.5,2.5,3.2,2.3
		C359.8,208.7,360.7,207.8,360.7,206.1z M349,225c-1.7,0-2.9,0.8-2.9,2.6c0,1.5,1.1,2.4,2.6,2.4c1.7,0,3-0.8,3-2.6
		C351.6,226,350.6,225.1,349,225z M355.7,199.7c-0.1-1.6-0.9-2.5-2.4-2.7c-1.7-0.2-3,0.4-3.2,2.3c-0.2,1.6,0.8,2.5,2.3,2.7
		C354.1,202.2,355.3,201.5,355.7,199.7z M345.2,198.9c1.4-0.2,2.4-0.9,2.5-2.4c0.1-1.7-1-2.9-2.6-3.1c-1.7-0.2-2.9,1-2.9,2.6
		C342.2,197.7,343.5,198.6,345.2,198.9z M326.5,207.3c-1.1,0.5-2.6,0.8-2.7,2.7c0,1.5,0.7,2.6,2.2,2.8c1.8,0.2,2.7-0.9,2.8-2.6
		C329,208.7,328.4,207.7,326.5,207.3z M343,228.5c-0.1-1.1-0.7-2.3-2.3-2.4c-1.8-0.2-2.7,0.9-2.8,2.6c-0.1,1.6,0.9,2.4,2.5,2.4
		C341.8,231.1,342.8,230.5,343,228.5z M327.5,221.1c1.6,0,2.4-0.8,2.4-2.4c0-1.5-0.5-2.6-2.2-2.7c-1.7-0.1-2.8,0.8-2.8,2.6
		C325,220.2,326.1,220.9,327.5,221.1z"/>
	<path class="st0" d="M339.5,197.2c-0.4,1.6-1.1,2.8-3,2.7c-1.8-0.1-2.7-1.2-2.6-2.9c0.1-1.7,1-2.9,2.7-2.7
		C338.2,194.5,339.3,195.6,339.5,197.2z"/>
	<path class="st0" d="M332.7,202c-0.2,2.1-1.2,3-3,2.9c-1.5-0.1-2.6-0.8-2.7-2.4c-0.1-1.7,1.1-2.9,2.7-3.1
		C331.5,199.3,332.2,200.8,332.7,202z"/>
	<path class="st0" d="M335.5,225.3c-0.5,1.6-1.3,2.9-3.1,2.6c-1.8-0.2-2.6-1.4-2.4-3.1c0.2-1.6,1.4-2.4,2.7-2.3
		C334.4,222.5,335.3,223.7,335.5,225.3z"/>
	<path class="st0" d="M360.7,206.1c0,1.6-0.9,2.6-2.4,2.8c-1.7,0.2-3.1-0.5-3.2-2.3c-0.1-1.7,1-3,2.6-3.1
		C359.4,203.3,360.3,204.6,360.7,206.1z"/>
	<path class="st0" d="M349,225c1.6,0.1,2.7,0.9,2.7,2.5c0,1.8-1.2,2.6-3,2.6c-1.5,0-2.6-0.9-2.6-2.4C346.1,225.8,347.3,225,349,225z
		"/>
	<path class="st0" d="M355.7,199.7c-0.4,1.8-1.5,2.5-3.3,2.3c-1.5-0.2-2.5-1.1-2.3-2.7c0.2-1.9,1.5-2.5,3.2-2.3
		C354.8,197.2,355.6,198.1,355.7,199.7z"/>
	<path class="st0" d="M345.2,198.9c-1.7-0.4-3-1.2-3-2.9c0-1.6,1.2-2.8,2.9-2.6c1.6,0.2,2.6,1.4,2.6,3.1
		C347.7,198,346.6,198.7,345.2,198.9z"/>
	<path class="st0" d="M326.5,207.3c1.8,0.4,2.4,1.5,2.4,2.9c-0.1,1.7-1,2.8-2.8,2.6c-1.5-0.2-2.2-1.3-2.2-2.8
		C323.9,208.1,325.4,207.8,326.5,207.3z"/>
	<path class="st0" d="M343,228.5c-0.1,2-1.1,2.6-2.6,2.6c-1.5,0-2.5-0.8-2.5-2.4c0.1-1.7,1-2.8,2.8-2.6
		C342.3,226.3,342.8,227.4,343,228.5z"/>
	<path class="st0" d="M327.5,221.1c-1.4-0.2-2.5-0.9-2.5-2.5c0-1.8,1.1-2.7,2.8-2.6c1.7,0.1,2.2,1.2,2.2,2.7
		C329.9,220.3,329.1,221,327.5,221.1z"/>
	<line class="st15" x1="16.7" y1="286.2" x2="514.2" y2="286.2"/>
</g>
</svg>
